<?xml version="1.0" encoding="UTF-8" standalone="no"?>
<!DOCTYPE svg PUBLIC "-//W3C//DTD SVG 1.1//EN"
 "http://www.w3.org/Graphics/SVG/1.1/DTD/svg11.dtd">
<!-- Generated by graphviz version 8.0.5 (20230430.1635)
 -->
<!-- Title: dependency&#45;cruiser output Pages: 1 -->
<svg width="557pt" height="1586pt"
 viewBox="0.00 0.00 556.88 1586.00" xmlns="http://www.w3.org/2000/svg" xmlns:xlink="http://www.w3.org/1999/xlink">
<g id="graph0" class="graph" transform="scale(1 1) rotate(0) translate(4 1582)">
<title>dependency&#45;cruiser output</title>
<polygon fill="white" stroke="none" points="-4,4 -4,-1582 552.88,-1582 552.88,4 -4,4"/>
<g id="clust1" class="cluster">
<title>cluster_src</title>
<path fill="#ffffff" stroke="black" stroke-width="2" d="M20,-8C20,-8 528.88,-8 528.88,-8 534.88,-8 540.88,-14 540.88,-20 540.88,-20 540.88,-1558 540.88,-1558 540.88,-1564 534.88,-1570 528.88,-1570 528.88,-1570 20,-1570 20,-1570 14,-1570 8,-1564 8,-1558 8,-1558 8,-20 8,-20 8,-14 14,-8 20,-8"/>
<text text-anchor="middle" x="274.44" y="-1557.45" font-family="Helvetica,sans-Serif" font-weight="bold" font-size="9.00">src</text>
</g>
<g id="clust2" class="cluster">
<title>cluster_src/app</title>
<path fill="#ffffff" stroke="black" stroke-width="2" d="M28,-1308C28,-1308 194.38,-1308 194.38,-1308 200.38,-1308 206.38,-1314 206.38,-1320 206.38,-1320 206.38,-1532 206.38,-1532 206.38,-1538 200.38,-1544 194.38,-1544 194.38,-1544 28,-1544 28,-1544 22,-1544 16,-1538 16,-1532 16,-1532 16,-1320 16,-1320 16,-1314 22,-1308 28,-1308"/>
<text text-anchor="middle" x="111.19" y="-1531.45" font-family="Helvetica,sans-Serif" font-weight="bold" font-size="9.00">app</text>
</g>
<g id="clust3" class="cluster">
<title>cluster_src/app/course</title>
<path fill="#ffffff" stroke="black" stroke-width="2" d="M36,-1432C36,-1432 186.38,-1432 186.38,-1432 192.38,-1432 198.38,-1438 198.38,-1444 198.38,-1444 198.38,-1506 198.38,-1506 198.38,-1512 192.38,-1518 186.38,-1518 186.38,-1518 36,-1518 36,-1518 30,-1518 24,-1512 24,-1506 24,-1506 24,-1444 24,-1444 24,-1438 30,-1432 36,-1432"/>
<text text-anchor="middle" x="111.19" y="-1505.45" font-family="Helvetica,sans-Serif" font-weight="bold" font-size="9.00">course</text>
</g>
<g id="clust4" class="cluster">
<title>cluster_src/app/course/[id]</title>
<path fill="#ffffff" stroke="black" stroke-width="2" d="M44,-1440C44,-1440 178.38,-1440 178.38,-1440 184.38,-1440 190.38,-1446 190.38,-1452 190.38,-1452 190.38,-1480 190.38,-1480 190.38,-1486 184.38,-1492 178.38,-1492 178.38,-1492 44,-1492 44,-1492 38,-1492 32,-1486 32,-1480 32,-1480 32,-1452 32,-1452 32,-1446 38,-1440 44,-1440"/>
<text text-anchor="middle" x="111.19" y="-1479.45" font-family="Helvetica,sans-Serif" font-weight="bold" font-size="9.00">[id]</text>
</g>
<g id="clust5" class="cluster">
<title>cluster_src/features</title>
<path fill="#ffffff" stroke="black" stroke-width="2" d="M36,-776C36,-776 411.38,-776 411.38,-776 417.38,-776 423.38,-782 423.38,-788 423.38,-788 423.38,-1288 423.38,-1288 423.38,-1294 417.38,-1300 411.38,-1300 411.38,-1300 36,-1300 36,-1300 30,-1300 24,-1294 24,-1288 24,-1288 24,-788 24,-788 24,-782 30,-776 36,-776"/>
<text text-anchor="middle" x="223.69" y="-1287.45" font-family="Helvetica,sans-Serif" font-weight="bold" font-size="9.00">features</text>
</g>
<g id="clust6" class="cluster">
<title>cluster_src/features/Course</title>
<path fill="#ffffff" stroke="black" stroke-width="2" d="M44,-1068C44,-1068 403.38,-1068 403.38,-1068 409.38,-1068 415.38,-1074 415.38,-1080 415.38,-1080 415.38,-1262 415.38,-1262 415.38,-1268 409.38,-1274 403.38,-1274 403.38,-1274 44,-1274 44,-1274 38,-1274 32,-1268 32,-1262 32,-1262 32,-1080 32,-1080 32,-1074 38,-1068 44,-1068"/>
<text text-anchor="middle" x="223.69" y="-1261.45" font-family="Helvetica,sans-Serif" font-weight="bold" font-size="9.00">Course</text>
</g>
<g id="clust7" class="cluster">
<title>cluster_src/features/Course/Item</title>
<path fill="#ffffff" stroke="black" stroke-width="2" d="M131.5,-1076C131.5,-1076 395.38,-1076 395.38,-1076 401.38,-1076 407.38,-1082 407.38,-1088 407.38,-1088 407.38,-1176 407.38,-1176 407.38,-1182 401.38,-1188 395.38,-1188 395.38,-1188 131.5,-1188 131.5,-1188 125.5,-1188 119.5,-1182 119.5,-1176 119.5,-1176 119.5,-1088 119.5,-1088 119.5,-1082 125.5,-1076 131.5,-1076"/>
<text text-anchor="middle" x="263.44" y="-1175.45" font-family="Helvetica,sans-Serif" font-weight="bold" font-size="9.00">Item</text>
</g>
<g id="clust8" class="cluster">
<title>cluster_src/features/Course/Item/ItemStats</title>
<path fill="#ffffff" stroke="black" stroke-width="2" d="M234.62,-1110C234.62,-1110 387.38,-1110 387.38,-1110 393.38,-1110 399.38,-1116 399.38,-1122 399.38,-1122 399.38,-1150 399.38,-1150 399.38,-1156 393.38,-1162 387.38,-1162 387.38,-1162 234.62,-1162 234.62,-1162 228.62,-1162 222.62,-1156 222.62,-1150 222.62,-1150 222.62,-1122 222.62,-1122 222.62,-1116 228.62,-1110 234.62,-1110"/>
<text text-anchor="middle" x="311" y="-1149.45" font-family="Helvetica,sans-Serif" font-weight="bold" font-size="9.00">ItemStats</text>
</g>
<g id="clust9" class="cluster">
<title>cluster_src/features/Course/List</title>
<path fill="#ffffff" stroke="black" stroke-width="2" d="M131.5,-1196C131.5,-1196 177.5,-1196 177.5,-1196 183.5,-1196 189.5,-1202 189.5,-1208 189.5,-1208 189.5,-1236 189.5,-1236 189.5,-1242 183.5,-1248 177.5,-1248 177.5,-1248 131.5,-1248 131.5,-1248 125.5,-1248 119.5,-1242 119.5,-1236 119.5,-1236 119.5,-1208 119.5,-1208 119.5,-1202 125.5,-1196 131.5,-1196"/>
<text text-anchor="middle" x="154.5" y="-1235.45" font-family="Helvetica,sans-Serif" font-weight="bold" font-size="9.00">List</text>
</g>
<g id="clust10" class="cluster">
<title>cluster_src/features/Header</title>
<path fill="#ffffff" stroke="black" stroke-width="2" d="M44,-1008C44,-1008 90,-1008 90,-1008 96,-1008 102,-1014 102,-1020 102,-1020 102,-1048 102,-1048 102,-1054 96,-1060 90,-1060 90,-1060 44,-1060 44,-1060 38,-1060 32,-1054 32,-1048 32,-1048 32,-1020 32,-1020 32,-1014 38,-1008 44,-1008"/>
<text text-anchor="middle" x="67" y="-1047.45" font-family="Helvetica,sans-Serif" font-weight="bold" font-size="9.00">Header</text>
</g>
<g id="clust11" class="cluster">
<title>cluster_src/features/Lesson</title>
<path fill="#ffffff" stroke="black" stroke-width="2" d="M44,-784C44,-784 283,-784 283,-784 289,-784 295,-790 295,-796 295,-796 295,-988 295,-988 295,-994 289,-1000 283,-1000 283,-1000 44,-1000 44,-1000 38,-1000 32,-994 32,-988 32,-988 32,-796 32,-796 32,-790 38,-784 44,-784"/>
<text text-anchor="middle" x="163.5" y="-987.45" font-family="Helvetica,sans-Serif" font-weight="bold" font-size="9.00">Lesson</text>
</g>
<g id="clust12" class="cluster">
<title>cluster_src/features/Lesson/Info</title>
<path fill="#ffffff" stroke="black" stroke-width="2" d="M131.5,-792C131.5,-792 177.5,-792 177.5,-792 183.5,-792 189.5,-798 189.5,-804 189.5,-804 189.5,-832 189.5,-832 189.5,-838 183.5,-844 177.5,-844 177.5,-844 131.5,-844 131.5,-844 125.5,-844 119.5,-838 119.5,-832 119.5,-832 119.5,-804 119.5,-804 119.5,-798 125.5,-792 131.5,-792"/>
<text text-anchor="middle" x="154.5" y="-831.45" font-family="Helvetica,sans-Serif" font-weight="bold" font-size="9.00">Info</text>
</g>
<g id="clust13" class="cluster">
<title>cluster_src/features/Lesson/List</title>
<path fill="#ffffff" stroke="black" stroke-width="2" d="M131.5,-852C131.5,-852 177.5,-852 177.5,-852 183.5,-852 189.5,-858 189.5,-864 189.5,-864 189.5,-892 189.5,-892 189.5,-898 183.5,-904 177.5,-904 177.5,-904 131.5,-904 131.5,-904 125.5,-904 119.5,-898 119.5,-892 119.5,-892 119.5,-864 119.5,-864 119.5,-858 125.5,-852 131.5,-852"/>
<text text-anchor="middle" x="154.5" y="-891.45" font-family="Helvetica,sans-Serif" font-weight="bold" font-size="9.00">List</text>
</g>
<g id="clust14" class="cluster">
<title>cluster_src/features/Lesson/Video</title>
<path fill="#ffffff" stroke="black" stroke-width="2" d="M131.5,-922C131.5,-922 177.5,-922 177.5,-922 183.5,-922 189.5,-928 189.5,-934 189.5,-934 189.5,-962 189.5,-962 189.5,-968 183.5,-974 177.5,-974 177.5,-974 131.5,-974 131.5,-974 125.5,-974 119.5,-968 119.5,-962 119.5,-962 119.5,-934 119.5,-934 119.5,-928 125.5,-922 131.5,-922"/>
<text text-anchor="middle" x="154.5" y="-961.45" font-family="Helvetica,sans-Serif" font-weight="bold" font-size="9.00">Video</text>
</g>
<g id="clust15" class="cluster">
<title>cluster_src/processes</title>
<path fill="#ffffff" stroke="black" stroke-width="2" d="M34.5,-656C34.5,-656 99.5,-656 99.5,-656 105.5,-656 111.5,-662 111.5,-668 111.5,-668 111.5,-756 111.5,-756 111.5,-762 105.5,-768 99.5,-768 99.5,-768 34.5,-768 34.5,-768 28.5,-768 22.5,-762 22.5,-756 22.5,-756 22.5,-668 22.5,-668 22.5,-662 28.5,-656 34.5,-656"/>
<text text-anchor="middle" x="67" y="-755.45" font-family="Helvetica,sans-Serif" font-weight="bold" font-size="9.00">processes</text>
</g>
<g id="clust16" class="cluster">
<title>cluster_src/shared</title>
<path fill="#ffffff" stroke="black" stroke-width="2" d="M36,-42C36,-42 520.88,-42 520.88,-42 526.88,-42 532.88,-48 532.88,-54 532.88,-54 532.88,-636 532.88,-636 532.88,-642 526.88,-648 520.88,-648 520.88,-648 36,-648 36,-648 30,-648 24,-642 24,-636 24,-636 24,-54 24,-54 24,-48 30,-42 36,-42"/>
<text text-anchor="middle" x="278.44" y="-635.45" font-family="Helvetica,sans-Serif" font-weight="bold" font-size="9.00">shared</text>
</g>
<g id="clust17" class="cluster">
<title>cluster_src/shared/api</title>
<path fill="#ffffff" stroke="black" stroke-width="2" d="M44,-455C44,-455 280.62,-455 280.62,-455 286.62,-455 292.62,-461 292.62,-467 292.62,-467 292.62,-525 292.62,-525 292.62,-531 286.62,-537 280.62,-537 280.62,-537 44,-537 44,-537 38,-537 32,-531 32,-525 32,-525 32,-467 32,-467 32,-461 38,-455 44,-455"/>
<text text-anchor="middle" x="162.31" y="-524.45" font-family="Helvetica,sans-Serif" font-weight="bold" font-size="9.00">api</text>
</g>
<g id="clust19" class="cluster">
<title>cluster_src/shared/lib</title>
<path fill="#ffffff" stroke="black" stroke-width="2" d="M340.12,-480C340.12,-480 512.88,-480 512.88,-480 518.88,-480 524.88,-486 524.88,-492 524.88,-492 524.88,-610 524.88,-610 524.88,-616 518.88,-622 512.88,-622 512.88,-622 340.12,-622 340.12,-622 334.12,-622 328.12,-616 328.12,-610 328.12,-610 328.12,-492 328.12,-492 328.12,-486 334.12,-480 340.12,-480"/>
<text text-anchor="middle" x="426.5" y="-609.45" font-family="Helvetica,sans-Serif" font-weight="bold" font-size="9.00">lib</text>
</g>
<g id="clust20" class="cluster">
<title>cluster_src/shared/ui</title>
<path fill="#ffffff" stroke="black" stroke-width="2" d="M44,-50C44,-50 413.38,-50 413.38,-50 419.38,-50 425.38,-56 425.38,-62 425.38,-62 425.38,-400 425.38,-400 425.38,-406 419.38,-412 413.38,-412 413.38,-412 44,-412 44,-412 38,-412 32,-406 32,-400 32,-400 32,-62 32,-62 32,-56 38,-50 44,-50"/>
<text text-anchor="middle" x="228.69" y="-399.45" font-family="Helvetica,sans-Serif" font-weight="bold" font-size="9.00">ui</text>
</g>
<g id="clust21" class="cluster">
<title>cluster_src/shared/ui/Card</title>
<path fill="#ffffff" stroke="black" stroke-width="2" d="M131.5,-58C131.5,-58 405.38,-58 405.38,-58 411.38,-58 417.38,-64 417.38,-70 417.38,-70 417.38,-188 417.38,-188 417.38,-194 411.38,-200 405.38,-200 405.38,-200 131.5,-200 131.5,-200 125.5,-200 119.5,-194 119.5,-188 119.5,-188 119.5,-70 119.5,-70 119.5,-64 125.5,-58 131.5,-58"/>
<text text-anchor="middle" x="268.44" y="-187.45" font-family="Helvetica,sans-Serif" font-weight="bold" font-size="9.00">Card</text>
</g>
<g id="clust22" class="cluster">
<title>cluster_src/shared/ui/ListGroup</title>
<path fill="#ffffff" stroke="black" stroke-width="2" d="M131.5,-248C131.5,-248 296.88,-248 296.88,-248 302.88,-248 308.88,-254 308.88,-260 308.88,-260 308.88,-288 308.88,-288 308.88,-294 302.88,-300 296.88,-300 296.88,-300 131.5,-300 131.5,-300 125.5,-300 119.5,-294 119.5,-288 119.5,-288 119.5,-260 119.5,-260 119.5,-254 125.5,-248 131.5,-248"/>
<text text-anchor="middle" x="214.19" y="-287.45" font-family="Helvetica,sans-Serif" font-weight="bold" font-size="9.00">ListGroup</text>
</g>
<g id="clust23" class="cluster">
<title>cluster_src/shared/ui/Navbar</title>
<path fill="#ffffff" stroke="black" stroke-width="2" d="M131.5,-334C131.5,-334 295.75,-334 295.75,-334 301.75,-334 307.75,-340 307.75,-346 307.75,-346 307.75,-374 307.75,-374 307.75,-380 301.75,-386 295.75,-386 295.75,-386 131.5,-386 131.5,-386 125.5,-386 119.5,-380 119.5,-374 119.5,-374 119.5,-346 119.5,-346 119.5,-340 125.5,-334 131.5,-334"/>
<text text-anchor="middle" x="213.62" y="-373.45" font-family="Helvetica,sans-Serif" font-weight="bold" font-size="9.00">Navbar</text>
</g>
<g id="clust18" class="cluster">
<title>cluster_src/shared/config</title>
<path fill="#ffffff" stroke="black" stroke-width="2" d="M340.12,-420C340.12,-420 498.12,-420 498.12,-420 504.12,-420 510.12,-426 510.12,-432 510.12,-432 510.12,-460 510.12,-460 510.12,-466 504.12,-472 498.12,-472 498.12,-472 340.12,-472 340.12,-472 334.12,-472 328.12,-466 328.12,-460 328.12,-460 328.12,-432 328.12,-432 328.12,-426 334.12,-420 340.12,-420"/>
<text text-anchor="middle" x="419.12" y="-459.45" font-family="Helvetica,sans-Serif" font-weight="bold" font-size="9.00">config</text>
</g>
<!-- src/app/course/[id]/Single.tsx -->
<g id="node1" class="node">
<title>src/app/course/[id]/Single.tsx</title>
<g id="a_node1"><a xlink:href="src/app/course/[id]/Single.tsx" xlink:title="Single.tsx">
<path fill="#bbfeff" stroke="black" d="M176.46,-1465.88C176.46,-1465.88 132.54,-1465.88 132.54,-1465.88 129.58,-1465.88 126.62,-1462.92 126.62,-1459.96 126.62,-1459.96 126.62,-1454.04 126.62,-1454.04 126.62,-1451.08 129.58,-1448.12 132.54,-1448.12 132.54,-1448.12 176.46,-1448.12 176.46,-1448.12 179.42,-1448.12 182.38,-1451.08 182.38,-1454.04 182.38,-1454.04 182.38,-1459.96 182.38,-1459.96 182.38,-1462.92 179.42,-1465.88 176.46,-1465.88"/>
<text text-anchor="start" x="134.62" y="-1453.33" font-family="Helvetica,sans-Serif" font-size="9.00">Single.tsx</text>
</a>
</g>
</g>
<!-- src/app/course/[id]/page.tsx -->
<g id="node2" class="node">
<title>src/app/course/[id]/page.tsx</title>
<g id="a_node2"><a xlink:href="src/app/course/[id]/page.tsx" xlink:title="page.tsx">
<path fill="#bbfeff" stroke="black" d="M88.08,-1465.88C88.08,-1465.88 45.92,-1465.88 45.92,-1465.88 42.96,-1465.88 40,-1462.92 40,-1459.96 40,-1459.96 40,-1454.04 40,-1454.04 40,-1451.08 42.96,-1448.12 45.92,-1448.12 45.92,-1448.12 88.08,-1448.12 88.08,-1448.12 91.04,-1448.12 94,-1451.08 94,-1454.04 94,-1454.04 94,-1459.96 94,-1459.96 94,-1462.92 91.04,-1465.88 88.08,-1465.88"/>
<text text-anchor="start" x="49.75" y="-1453.33" font-family="Helvetica,sans-Serif" font-size="9.00">page.tsx</text>
</a>
</g>
</g>
<!-- src/app/course/[id]/page.tsx&#45;&gt;src/app/course/[id]/Single.tsx -->
<g id="edge1" class="edge">
<title>src/app/course/[id]/page.tsx&#45;&gt;src/app/course/[id]/Single.tsx</title>
<path fill="none" stroke="#000000" stroke-width="2" stroke-opacity="0.200000" d="M94.12,-1457C101.46,-1457 109.58,-1457 117.39,-1457"/>
<polygon fill="#000000" fill-opacity="0.200000" stroke="#000000" stroke-width="2" stroke-opacity="0.200000" points="117.36,-1459.1 123.36,-1457 117.36,-1454.9 117.36,-1459.1"/>
</g>
<!-- src/app/layout.tsx -->
<g id="node3" class="node">
<title>src/app/layout.tsx</title>
<g id="a_node3"><a xlink:href="src/app/layout.tsx" xlink:title="layout.tsx">
<path fill="#ccffcc" stroke="black" d="M88.21,-1423.88C88.21,-1423.88 45.79,-1423.88 45.79,-1423.88 42.83,-1423.88 39.88,-1420.92 39.88,-1417.96 39.88,-1417.96 39.88,-1412.04 39.88,-1412.04 39.88,-1409.08 42.83,-1406.12 45.79,-1406.12 45.79,-1406.12 88.21,-1406.12 88.21,-1406.12 91.17,-1406.12 94.12,-1409.08 94.12,-1412.04 94.12,-1412.04 94.12,-1417.96 94.12,-1417.96 94.12,-1420.92 91.17,-1423.88 88.21,-1423.88"/>
<text text-anchor="start" x="47.88" y="-1411.33" font-family="Helvetica,sans-Serif" font-size="9.00">layout.tsx</text>
</a>
</g>
</g>
<!-- src/app/loading.tsx -->
<g id="node4" class="node">
<title>src/app/loading.tsx</title>
<g id="a_node4"><a xlink:href="src/app/loading.tsx" xlink:title="loading.tsx">
<path fill="#ccffcc" stroke="black" d="M91.21,-1393.88C91.21,-1393.88 42.79,-1393.88 42.79,-1393.88 39.83,-1393.88 36.88,-1390.92 36.88,-1387.96 36.88,-1387.96 36.88,-1382.04 36.88,-1382.04 36.88,-1379.08 39.83,-1376.12 42.79,-1376.12 42.79,-1376.12 91.21,-1376.12 91.21,-1376.12 94.17,-1376.12 97.12,-1379.08 97.12,-1382.04 97.12,-1382.04 97.12,-1387.96 97.12,-1387.96 97.12,-1390.92 94.17,-1393.88 91.21,-1393.88"/>
<text text-anchor="start" x="44.88" y="-1381.33" font-family="Helvetica,sans-Serif" font-size="9.00">loading.tsx</text>
</a>
</g>
</g>
<!-- src/app/not&#45;found.tsx -->
<g id="node5" class="node">
<title>src/app/not&#45;found.tsx</title>
<g id="a_node5"><a xlink:href="src/app/not-found.tsx" xlink:title="not&#45;found.tsx">
<path fill="#ccffcc" stroke="black" d="M95.33,-1363.88C95.33,-1363.88 38.67,-1363.88 38.67,-1363.88 35.71,-1363.88 32.75,-1360.92 32.75,-1357.96 32.75,-1357.96 32.75,-1352.04 32.75,-1352.04 32.75,-1349.08 35.71,-1346.12 38.67,-1346.12 38.67,-1346.12 95.33,-1346.12 95.33,-1346.12 98.29,-1346.12 101.25,-1349.08 101.25,-1352.04 101.25,-1352.04 101.25,-1357.96 101.25,-1357.96 101.25,-1360.92 98.29,-1363.88 95.33,-1363.88"/>
<text text-anchor="start" x="40.75" y="-1351.33" font-family="Helvetica,sans-Serif" font-size="9.00">not&#45;found.tsx</text>
</a>
</g>
</g>
<!-- src/app/page.tsx -->
<g id="node6" class="node">
<title>src/app/page.tsx</title>
<g id="a_node6"><a xlink:href="src/app/page.tsx" xlink:title="page.tsx">
<path fill="#ccffcc" stroke="black" d="M88.08,-1333.88C88.08,-1333.88 45.92,-1333.88 45.92,-1333.88 42.96,-1333.88 40,-1330.92 40,-1327.96 40,-1327.96 40,-1322.04 40,-1322.04 40,-1319.08 42.96,-1316.12 45.92,-1316.12 45.92,-1316.12 88.08,-1316.12 88.08,-1316.12 91.04,-1316.12 94,-1319.08 94,-1322.04 94,-1322.04 94,-1327.96 94,-1327.96 94,-1330.92 91.04,-1333.88 88.08,-1333.88"/>
<text text-anchor="start" x="49.75" y="-1321.33" font-family="Helvetica,sans-Serif" font-size="9.00">page.tsx</text>
</a>
</g>
</g>
<!-- src/features/Course/Item/ItemImage.tsx -->
<g id="node7" class="node">
<title>src/features/Course/Item/ItemImage.tsx</title>
<g id="a_node7"><a xlink:href="src/features/Course/Item/ItemImage.tsx" xlink:title="ItemImage.tsx">
<path fill="#bbfeff" stroke="black" d="M287.83,-1101.88C287.83,-1101.88 227.42,-1101.88 227.42,-1101.88 224.46,-1101.88 221.5,-1098.92 221.5,-1095.96 221.5,-1095.96 221.5,-1090.04 221.5,-1090.04 221.5,-1087.08 224.46,-1084.12 227.42,-1084.12 227.42,-1084.12 287.83,-1084.12 287.83,-1084.12 290.79,-1084.12 293.75,-1087.08 293.75,-1090.04 293.75,-1090.04 293.75,-1095.96 293.75,-1095.96 293.75,-1098.92 290.79,-1101.88 287.83,-1101.88"/>
<text text-anchor="start" x="229.5" y="-1089.33" font-family="Helvetica,sans-Serif" font-size="9.00">ItemImage.tsx</text>
</a>
</g>
</g>
<!-- src/features/Course/Item/ItemStats/Rating.tsx -->
<g id="node8" class="node">
<title>src/features/Course/Item/ItemStats/Rating.tsx</title>
<g id="a_node8"><a xlink:href="src/features/Course/Item/ItemStats/Rating.tsx" xlink:title="Rating.tsx">
<path fill="#bbfeff" stroke="black" d="M385.46,-1135.88C385.46,-1135.88 340.79,-1135.88 340.79,-1135.88 337.83,-1135.88 334.88,-1132.92 334.88,-1129.96 334.88,-1129.96 334.88,-1124.04 334.88,-1124.04 334.88,-1121.08 337.83,-1118.12 340.79,-1118.12 340.79,-1118.12 385.46,-1118.12 385.46,-1118.12 388.42,-1118.12 391.38,-1121.08 391.38,-1124.04 391.38,-1124.04 391.38,-1129.96 391.38,-1129.96 391.38,-1132.92 388.42,-1135.88 385.46,-1135.88"/>
<text text-anchor="start" x="342.88" y="-1123.33" font-family="Helvetica,sans-Serif" font-size="9.00">Rating.tsx</text>
</a>
</g>
</g>
<!-- src/features/Course/Item/ItemStats/index.tsx -->
<g id="node9" class="node">
<title>src/features/Course/Item/ItemStats/index.tsx</title>
<g id="a_node9"><a xlink:href="src/features/Course/Item/ItemStats/index.tsx" xlink:title="index.tsx">
<path fill="#bbfeff" stroke="black" d="M278.71,-1135.88C278.71,-1135.88 236.54,-1135.88 236.54,-1135.88 233.58,-1135.88 230.62,-1132.92 230.62,-1129.96 230.62,-1129.96 230.62,-1124.04 230.62,-1124.04 230.62,-1121.08 233.58,-1118.12 236.54,-1118.12 236.54,-1118.12 278.71,-1118.12 278.71,-1118.12 281.67,-1118.12 284.62,-1121.08 284.62,-1124.04 284.62,-1124.04 284.62,-1129.96 284.62,-1129.96 284.62,-1132.92 281.67,-1135.88 278.71,-1135.88"/>
<text text-anchor="start" x="239.62" y="-1123.33" font-family="Helvetica,sans-Serif" font-size="9.00">index.tsx</text>
</a>
</g>
</g>
<!-- src/features/Course/Item/ItemStats/index.tsx&#45;&gt;src/features/Course/Item/ItemStats/Rating.tsx -->
<g id="edge2" class="edge">
<title>src/features/Course/Item/ItemStats/index.tsx&#45;&gt;src/features/Course/Item/ItemStats/Rating.tsx</title>
<path fill="none" stroke="#000000" stroke-width="2" stroke-opacity="0.200000" d="M285.01,-1127C297.37,-1127 312.3,-1127 325.71,-1127"/>
<polygon fill="#000000" fill-opacity="0.200000" stroke="#000000" stroke-width="2" stroke-opacity="0.200000" points="325.7,-1129.1 331.7,-1127 325.7,-1124.9 325.7,-1129.1"/>
</g>
<!-- src/features/Course/Item/index.tsx -->
<g id="node10" class="node">
<title>src/features/Course/Item/index.tsx</title>
<g id="a_node10"><a xlink:href="src/features/Course/Item/index.tsx" xlink:title="index.tsx">
<path fill="#bbfeff" stroke="black" d="M175.58,-1135.88C175.58,-1135.88 133.42,-1135.88 133.42,-1135.88 130.46,-1135.88 127.5,-1132.92 127.5,-1129.96 127.5,-1129.96 127.5,-1124.04 127.5,-1124.04 127.5,-1121.08 130.46,-1118.12 133.42,-1118.12 133.42,-1118.12 175.58,-1118.12 175.58,-1118.12 178.54,-1118.12 181.5,-1121.08 181.5,-1124.04 181.5,-1124.04 181.5,-1129.96 181.5,-1129.96 181.5,-1132.92 178.54,-1135.88 175.58,-1135.88"/>
<text text-anchor="start" x="136.5" y="-1123.33" font-family="Helvetica,sans-Serif" font-size="9.00">index.tsx</text>
</a>
</g>
</g>
<!-- src/features/Course/Item/index.tsx&#45;&gt;src/features/Course/Item/ItemImage.tsx -->
<g id="edge3" class="edge">
<title>src/features/Course/Item/index.tsx&#45;&gt;src/features/Course/Item/ItemImage.tsx</title>
<path fill="none" stroke="#000000" stroke-width="2" stroke-opacity="0.200000" d="M181.86,-1118C192.02,-1114.54 203.73,-1110.57 214.38,-1107 216.22,-1106.38 218.11,-1105.75 220.02,-1105.11"/>
<polygon fill="#000000" fill-opacity="0.200000" stroke="#000000" stroke-width="2" stroke-opacity="0.200000" points="221.41,-1106.2 226.43,-1102.31 220.08,-1102.21 221.41,-1106.2"/>
</g>
<!-- src/features/Course/Item/index.tsx&#45;&gt;src/features/Course/Item/ItemStats/index.tsx -->
<g id="edge4" class="edge">
<title>src/features/Course/Item/index.tsx&#45;&gt;src/features/Course/Item/ItemStats/index.tsx</title>
<path fill="none" stroke="#000000" stroke-width="2" stroke-opacity="0.200000" d="M181.81,-1127C193.98,-1127 208.61,-1127 221.69,-1127"/>
<polygon fill="#000000" fill-opacity="0.200000" stroke="#000000" stroke-width="2" stroke-opacity="0.200000" points="221.45,-1129.1 227.45,-1127 221.45,-1124.9 221.45,-1129.1"/>
</g>
<!-- src/features/Course/List/index.tsx -->
<g id="node11" class="node">
<title>src/features/Course/List/index.tsx</title>
<g id="a_node11"><a xlink:href="src/features/Course/List/index.tsx" xlink:title="index.tsx">
<path fill="#bbfeff" stroke="black" d="M175.58,-1221.88C175.58,-1221.88 133.42,-1221.88 133.42,-1221.88 130.46,-1221.88 127.5,-1218.92 127.5,-1215.96 127.5,-1215.96 127.5,-1210.04 127.5,-1210.04 127.5,-1207.08 130.46,-1204.12 133.42,-1204.12 133.42,-1204.12 175.58,-1204.12 175.58,-1204.12 178.54,-1204.12 181.5,-1207.08 181.5,-1210.04 181.5,-1210.04 181.5,-1215.96 181.5,-1215.96 181.5,-1218.92 178.54,-1221.88 175.58,-1221.88"/>
<text text-anchor="start" x="136.5" y="-1209.33" font-family="Helvetica,sans-Serif" font-size="9.00">index.tsx</text>
</a>
</g>
</g>
<!-- src/features/Course/index.ts -->
<g id="node12" class="node">
<title>src/features/Course/index.ts</title>
<g id="a_node12"><a xlink:href="src/features/Course/index.ts" xlink:title="index.ts">
<path fill="#ddfeff" stroke="black" d="M88.08,-1178.88C88.08,-1178.88 45.92,-1178.88 45.92,-1178.88 42.96,-1178.88 40,-1175.92 40,-1172.96 40,-1172.96 40,-1167.04 40,-1167.04 40,-1164.08 42.96,-1161.12 45.92,-1161.12 45.92,-1161.12 88.08,-1161.12 88.08,-1161.12 91.04,-1161.12 94,-1164.08 94,-1167.04 94,-1167.04 94,-1172.96 94,-1172.96 94,-1175.92 91.04,-1178.88 88.08,-1178.88"/>
<text text-anchor="start" x="51.25" y="-1166.33" font-family="Helvetica,sans-Serif" font-size="9.00">index.ts</text>
</a>
</g>
</g>
<!-- src/features/Course/index.ts&#45;&gt;src/features/Course/Item/index.tsx -->
<g id="edge5" class="edge">
<title>src/features/Course/index.ts&#45;&gt;src/features/Course/Item/index.tsx</title>
<path fill="none" stroke="#000000" stroke-width="2" stroke-opacity="0.200000" d="M86.55,-1160.67C98.43,-1154.7 114.02,-1146.86 127.17,-1140.24"/>
<polygon fill="#000000" fill-opacity="0.200000" stroke="#000000" stroke-width="2" stroke-opacity="0.200000" points="128.57,-1141.88 132.98,-1137.31 126.68,-1138.13 128.57,-1141.88"/>
</g>
<!-- src/features/Course/index.ts&#45;&gt;src/features/Course/List/index.tsx -->
<g id="edge6" class="edge">
<title>src/features/Course/index.ts&#45;&gt;src/features/Course/List/index.tsx</title>
<path fill="none" stroke="#000000" stroke-width="2" stroke-opacity="0.200000" d="M86.55,-1179.33C98.43,-1185.3 114.02,-1193.14 127.17,-1199.76"/>
<polygon fill="#000000" fill-opacity="0.200000" stroke="#000000" stroke-width="2" stroke-opacity="0.200000" points="126.68,-1201.87 132.98,-1202.69 128.57,-1198.12 126.68,-1201.87"/>
</g>
<!-- src/features/Header/index.tsx -->
<g id="node13" class="node">
<title>src/features/Header/index.tsx</title>
<g id="a_node13"><a xlink:href="src/features/Header/index.tsx" xlink:title="index.tsx">
<path fill="#ccffcc" stroke="black" d="M88.08,-1033.88C88.08,-1033.88 45.92,-1033.88 45.92,-1033.88 42.96,-1033.88 40,-1030.92 40,-1027.96 40,-1027.96 40,-1022.04 40,-1022.04 40,-1019.08 42.96,-1016.12 45.92,-1016.12 45.92,-1016.12 88.08,-1016.12 88.08,-1016.12 91.04,-1016.12 94,-1019.08 94,-1022.04 94,-1022.04 94,-1027.96 94,-1027.96 94,-1030.92 91.04,-1033.88 88.08,-1033.88"/>
<text text-anchor="start" x="49" y="-1021.33" font-family="Helvetica,sans-Serif" font-size="9.00">index.tsx</text>
</a>
</g>
</g>
<!-- src/features/Lesson/Info/index.tsx -->
<g id="node14" class="node">
<title>src/features/Lesson/Info/index.tsx</title>
<g id="a_node14"><a xlink:href="src/features/Lesson/Info/index.tsx" xlink:title="index.tsx">
<path fill="#bbfeff" stroke="black" d="M175.58,-817.88C175.58,-817.88 133.42,-817.88 133.42,-817.88 130.46,-817.88 127.5,-814.92 127.5,-811.96 127.5,-811.96 127.5,-806.04 127.5,-806.04 127.5,-803.08 130.46,-800.12 133.42,-800.12 133.42,-800.12 175.58,-800.12 175.58,-800.12 178.54,-800.12 181.5,-803.08 181.5,-806.04 181.5,-806.04 181.5,-811.96 181.5,-811.96 181.5,-814.92 178.54,-817.88 175.58,-817.88"/>
<text text-anchor="start" x="136.5" y="-805.33" font-family="Helvetica,sans-Serif" font-size="9.00">index.tsx</text>
</a>
</g>
</g>
<!-- src/features/Lesson/List/index.tsx -->
<g id="node15" class="node">
<title>src/features/Lesson/List/index.tsx</title>
<g id="a_node15"><a xlink:href="src/features/Lesson/List/index.tsx" xlink:title="index.tsx">
<path fill="#bbfeff" stroke="black" d="M175.58,-877.88C175.58,-877.88 133.42,-877.88 133.42,-877.88 130.46,-877.88 127.5,-874.92 127.5,-871.96 127.5,-871.96 127.5,-866.04 127.5,-866.04 127.5,-863.08 130.46,-860.12 133.42,-860.12 133.42,-860.12 175.58,-860.12 175.58,-860.12 178.54,-860.12 181.5,-863.08 181.5,-866.04 181.5,-866.04 181.5,-871.96 181.5,-871.96 181.5,-874.92 178.54,-877.88 175.58,-877.88"/>
<text text-anchor="start" x="136.5" y="-865.33" font-family="Helvetica,sans-Serif" font-size="9.00">index.tsx</text>
</a>
</g>
</g>
<!-- src/features/Lesson/context.tsx -->
<g id="node16" class="node">
<title>src/features/Lesson/context.tsx</title>
<g id="a_node16"><a xlink:href="src/features/Lesson/context.tsx" xlink:title="context.tsx">
<path fill="#bbfeff" stroke="black" d="M281.08,-899.88C281.08,-899.88 234.17,-899.88 234.17,-899.88 231.21,-899.88 228.25,-896.92 228.25,-893.96 228.25,-893.96 228.25,-888.04 228.25,-888.04 228.25,-885.08 231.21,-882.12 234.17,-882.12 234.17,-882.12 281.08,-882.12 281.08,-882.12 284.04,-882.12 287,-885.08 287,-888.04 287,-888.04 287,-893.96 287,-893.96 287,-896.92 284.04,-899.88 281.08,-899.88"/>
<text text-anchor="start" x="236.25" y="-887.33" font-family="Helvetica,sans-Serif" font-size="9.00">context.tsx</text>
</a>
</g>
</g>
<!-- src/features/Lesson/List/index.tsx&#45;&gt;src/features/Lesson/context.tsx -->
<g id="edge7" class="edge">
<title>src/features/Lesson/List/index.tsx&#45;&gt;src/features/Lesson/context.tsx</title>
<path fill="none" stroke="#000000" stroke-width="2" stroke-opacity="0.200000" d="M181.81,-874.72C193.31,-877.23 207.02,-880.21 219.53,-882.93"/>
<polygon fill="#000000" fill-opacity="0.200000" stroke="#000000" stroke-width="2" stroke-opacity="0.200000" points="219.66,-885.54 225.96,-884.76 220.55,-881.44 219.66,-885.54"/>
</g>
<!-- src/features/Lesson/Video/index.tsx -->
<g id="node17" class="node">
<title>src/features/Lesson/Video/index.tsx</title>
<g id="a_node17"><a xlink:href="src/features/Lesson/Video/index.tsx" xlink:title="index.tsx">
<path fill="#bbfeff" stroke="black" d="M175.58,-947.88C175.58,-947.88 133.42,-947.88 133.42,-947.88 130.46,-947.88 127.5,-944.92 127.5,-941.96 127.5,-941.96 127.5,-936.04 127.5,-936.04 127.5,-933.08 130.46,-930.12 133.42,-930.12 133.42,-930.12 175.58,-930.12 175.58,-930.12 178.54,-930.12 181.5,-933.08 181.5,-936.04 181.5,-936.04 181.5,-941.96 181.5,-941.96 181.5,-944.92 178.54,-947.88 175.58,-947.88"/>
<text text-anchor="start" x="136.5" y="-935.33" font-family="Helvetica,sans-Serif" font-size="9.00">index.tsx</text>
</a>
</g>
</g>
<!-- src/features/Lesson/index.tsx -->
<g id="node18" class="node">
<title>src/features/Lesson/index.tsx</title>
<g id="a_node18"><a xlink:href="src/features/Lesson/index.tsx" xlink:title="index.tsx">
<path fill="#bbfeff" stroke="black" d="M88.08,-899.88C88.08,-899.88 45.92,-899.88 45.92,-899.88 42.96,-899.88 40,-896.92 40,-893.96 40,-893.96 40,-888.04 40,-888.04 40,-885.08 42.96,-882.12 45.92,-882.12 45.92,-882.12 88.08,-882.12 88.08,-882.12 91.04,-882.12 94,-885.08 94,-888.04 94,-888.04 94,-893.96 94,-893.96 94,-896.92 91.04,-899.88 88.08,-899.88"/>
<text text-anchor="start" x="49" y="-887.33" font-family="Helvetica,sans-Serif" font-size="9.00">index.tsx</text>
</a>
</g>
</g>
<!-- src/features/Lesson/index.tsx&#45;&gt;src/features/Lesson/Info/index.tsx -->
<g id="edge9" class="edge">
<title>src/features/Lesson/index.tsx&#45;&gt;src/features/Lesson/Info/index.tsx</title>
<path fill="none" stroke="#000000" stroke-width="2" stroke-opacity="0.200000" d="M81.08,-881.78C90,-875.26 101.89,-866.09 111.5,-857 117.36,-851.45 130.16,-836.66 140.1,-824.95"/>
<polygon fill="#000000" fill-opacity="0.200000" stroke="#000000" stroke-width="2" stroke-opacity="0.200000" points="142.56,-826.11 144.83,-820.17 139.36,-823.4 142.56,-826.11"/>
</g>
<!-- src/features/Lesson/index.tsx&#45;&gt;src/features/Lesson/List/index.tsx -->
<g id="edge10" class="edge">
<title>src/features/Lesson/index.tsx&#45;&gt;src/features/Lesson/List/index.tsx</title>
<path fill="none" stroke="#000000" stroke-width="2" stroke-opacity="0.200000" d="M94.12,-884.28C101.84,-882.29 110.41,-880.09 118.59,-877.98"/>
<polygon fill="#000000" fill-opacity="0.200000" stroke="#000000" stroke-width="2" stroke-opacity="0.200000" points="119.96,-879.28 125.25,-875.75 118.91,-875.22 119.96,-879.28"/>
</g>
<!-- src/features/Lesson/index.tsx&#45;&gt;src/features/Lesson/context.tsx -->
<g id="edge8" class="edge">
<title>src/features/Lesson/index.tsx&#45;&gt;src/features/Lesson/context.tsx</title>
<path fill="none" stroke="#000000" stroke-width="2" stroke-opacity="0.200000" d="M92.79,-900.36C101.15,-903.06 110.61,-905.65 119.5,-907 157.67,-912.79 168.22,-912.93 206.38,-907 212.21,-906.09 218.3,-904.63 224.13,-902.94"/>
<polygon fill="#000000" fill-opacity="0.200000" stroke="#000000" stroke-width="2" stroke-opacity="0.200000" points="225.35,-904.14 230.45,-900.36 224.1,-900.13 225.35,-904.14"/>
</g>
<!-- src/features/Lesson/index.tsx&#45;&gt;src/features/Lesson/Video/index.tsx -->
<g id="edge11" class="edge">
<title>src/features/Lesson/index.tsx&#45;&gt;src/features/Lesson/Video/index.tsx</title>
<path fill="none" stroke="#000000" stroke-width="2" stroke-opacity="0.200000" d="M79.78,-900.17C88.65,-906.82 101.4,-915.86 119.27,-925.5"/>
<polygon fill="#000000" fill-opacity="0.200000" stroke="#000000" stroke-width="2" stroke-opacity="0.200000" points="118.95,-927.75 125.24,-928.67 120.89,-924.03 118.95,-927.75"/>
</g>
<!-- src/features/Lesson/utils.ts -->
<g id="node19" class="node">
<title>src/features/Lesson/utils.ts</title>
<g id="a_node19"><a xlink:href="src/features/Lesson/utils.ts" xlink:title="utils.ts">
<path fill="#ccffcc" stroke="black" d="M88.08,-850.88C88.08,-850.88 45.92,-850.88 45.92,-850.88 42.96,-850.88 40,-847.92 40,-844.96 40,-844.96 40,-839.04 40,-839.04 40,-836.08 42.96,-833.12 45.92,-833.12 45.92,-833.12 88.08,-833.12 88.08,-833.12 91.04,-833.12 94,-836.08 94,-839.04 94,-839.04 94,-844.96 94,-844.96 94,-847.92 91.04,-850.88 88.08,-850.88"/>
<text text-anchor="start" x="54.25" y="-838.33" font-family="Helvetica,sans-Serif" font-size="9.00">utils.ts</text>
</a>
</g>
</g>
<!-- src/middleware.ts -->
<g id="node20" class="node">
<title>src/middleware.ts</title>
<g id="a_node20"><a xlink:href="src/middleware.ts" xlink:title="middleware.ts">
<path fill="#ccffcc" stroke="black" d="M97.58,-33.88C97.58,-33.88 36.42,-33.88 36.42,-33.88 33.46,-33.88 30.5,-30.92 30.5,-27.96 30.5,-27.96 30.5,-22.04 30.5,-22.04 30.5,-19.08 33.46,-16.12 36.42,-16.12 36.42,-16.12 97.58,-16.12 97.58,-16.12 100.54,-16.12 103.5,-19.08 103.5,-22.04 103.5,-22.04 103.5,-27.96 103.5,-27.96 103.5,-30.92 100.54,-33.88 97.58,-33.88"/>
<text text-anchor="start" x="38.5" y="-21.32" font-family="Helvetica,sans-Serif" font-size="9.00">middleware.ts</text>
</a>
</g>
</g>
<!-- src/processes/course.ts -->
<g id="node21" class="node">
<title>src/processes/course.ts</title>
<g id="a_node21"><a xlink:href="src/processes/course.ts" xlink:title="course.ts">
<path fill="#ccffcc" stroke="black" d="M88.08,-741.88C88.08,-741.88 45.92,-741.88 45.92,-741.88 42.96,-741.88 40,-738.92 40,-735.96 40,-735.96 40,-730.04 40,-730.04 40,-727.08 42.96,-724.12 45.92,-724.12 45.92,-724.12 88.08,-724.12 88.08,-724.12 91.04,-724.12 94,-727.08 94,-730.04 94,-730.04 94,-735.96 94,-735.96 94,-738.92 91.04,-741.88 88.08,-741.88"/>
<text text-anchor="start" x="48.62" y="-729.33" font-family="Helvetica,sans-Serif" font-size="9.00">course.ts</text>
</a>
</g>
</g>
<!-- src/processes/home.ts -->
<g id="node22" class="node">
<title>src/processes/home.ts</title>
<g id="a_node22"><a xlink:href="src/processes/home.ts" xlink:title="home.ts">
<path fill="#ccffcc" stroke="black" d="M88.08,-711.88C88.08,-711.88 45.92,-711.88 45.92,-711.88 42.96,-711.88 40,-708.92 40,-705.96 40,-705.96 40,-700.04 40,-700.04 40,-697.08 42.96,-694.12 45.92,-694.12 45.92,-694.12 88.08,-694.12 88.08,-694.12 91.04,-694.12 94,-697.08 94,-700.04 94,-700.04 94,-705.96 94,-705.96 94,-708.92 91.04,-711.88 88.08,-711.88"/>
<text text-anchor="start" x="50.88" y="-699.33" font-family="Helvetica,sans-Serif" font-size="9.00">home.ts</text>
</a>
</g>
</g>
<!-- src/processes/middleware.ts -->
<g id="node23" class="node">
<title>src/processes/middleware.ts</title>
<g id="a_node23"><a xlink:href="src/processes/middleware.ts" xlink:title="middleware.ts">
<path fill="#ccffcc" stroke="black" d="M97.58,-681.88C97.58,-681.88 36.42,-681.88 36.42,-681.88 33.46,-681.88 30.5,-678.92 30.5,-675.96 30.5,-675.96 30.5,-670.04 30.5,-670.04 30.5,-667.08 33.46,-664.12 36.42,-664.12 36.42,-664.12 97.58,-664.12 97.58,-664.12 100.54,-664.12 103.5,-667.08 103.5,-670.04 103.5,-670.04 103.5,-675.96 103.5,-675.96 103.5,-678.92 100.54,-681.88 97.58,-681.88"/>
<text text-anchor="start" x="38.5" y="-669.33" font-family="Helvetica,sans-Serif" font-size="9.00">middleware.ts</text>
</a>
</g>
</g>
<!-- src/shared/api/external.ts -->
<g id="node24" class="node">
<title>src/shared/api/external.ts</title>
<g id="a_node24"><a xlink:href="src/shared/api/external.ts" xlink:title="external.ts">
<path fill="#ddfeff" stroke="black" d="M177.58,-492.88C177.58,-492.88 131.42,-492.88 131.42,-492.88 128.46,-492.88 125.5,-489.92 125.5,-486.96 125.5,-486.96 125.5,-481.04 125.5,-481.04 125.5,-478.08 128.46,-475.12 131.42,-475.12 131.42,-475.12 177.58,-475.12 177.58,-475.12 180.54,-475.12 183.5,-478.08 183.5,-481.04 183.5,-481.04 183.5,-486.96 183.5,-486.96 183.5,-489.92 180.54,-492.88 177.58,-492.88"/>
<text text-anchor="start" x="133.5" y="-480.32" font-family="Helvetica,sans-Serif" font-size="9.00">external.ts</text>
</a>
</g>
</g>
<!-- src/shared/api/utils.ts -->
<g id="node25" class="node">
<title>src/shared/api/utils.ts</title>
<g id="a_node25"><a xlink:href="src/shared/api/utils.ts" xlink:title="utils.ts">
<path fill="#ddfeff" stroke="black" d="M278.71,-503.88C278.71,-503.88 236.54,-503.88 236.54,-503.88 233.58,-503.88 230.62,-500.92 230.62,-497.96 230.62,-497.96 230.62,-492.04 230.62,-492.04 230.62,-489.08 233.58,-486.12 236.54,-486.12 236.54,-486.12 278.71,-486.12 278.71,-486.12 281.67,-486.12 284.62,-489.08 284.62,-492.04 284.62,-492.04 284.62,-497.96 284.62,-497.96 284.62,-500.92 281.67,-503.88 278.71,-503.88"/>
<text text-anchor="start" x="244.88" y="-491.32" font-family="Helvetica,sans-Serif" font-size="9.00">utils.ts</text>
</a>
</g>
</g>
<!-- src/shared/api/external.ts&#45;&gt;src/shared/api/utils.ts -->
<g id="edge12" class="edge">
<title>src/shared/api/external.ts&#45;&gt;src/shared/api/utils.ts</title>
<path fill="none" stroke="#000000" stroke-width="2" stroke-opacity="0.200000" d="M183.94,-487.09C195.6,-488.36 209.21,-489.84 221.48,-491.18"/>
<polygon fill="#000000" fill-opacity="0.200000" stroke="#000000" stroke-width="2" stroke-opacity="0.200000" points="220.94,-493.56 227.13,-492.12 221.4,-489.38 220.94,-493.56"/>
</g>
<!-- src/shared/config/index.ts -->
<g id="node28" class="node">
<title>src/shared/config/index.ts</title>
<g id="a_node28"><a xlink:href="src/shared/config/index.ts" xlink:title="index.ts">
<path fill="#ddfeff" stroke="black" d="M384.21,-445.88C384.21,-445.88 342.04,-445.88 342.04,-445.88 339.08,-445.88 336.12,-442.92 336.12,-439.96 336.12,-439.96 336.12,-434.04 336.12,-434.04 336.12,-431.08 339.08,-428.12 342.04,-428.12 342.04,-428.12 384.21,-428.12 384.21,-428.12 387.17,-428.12 390.12,-431.08 390.12,-434.04 390.12,-434.04 390.12,-439.96 390.12,-439.96 390.12,-442.92 387.17,-445.88 384.21,-445.88"/>
<text text-anchor="start" x="347.38" y="-433.32" font-family="Helvetica,sans-Serif" font-size="9.00">index.ts</text>
</a>
</g>
</g>
<!-- src/shared/api/utils.ts&#45;&gt;src/shared/config/index.ts -->
<g id="edge15" class="edge">
<title>src/shared/api/utils.ts&#45;&gt;src/shared/config/index.ts</title>
<path fill="none" stroke="#000000" stroke-width="2" stroke-opacity="0.200000" d="M275.25,-485.68C292.15,-476.21 318.52,-461.44 337.77,-450.65"/>
<polygon fill="#000000" fill-opacity="0.200000" stroke="#000000" stroke-width="2" stroke-opacity="0.200000" points="339.33,-452.06 343.54,-447.3 337.28,-448.4 339.33,-452.06"/>
</g>
<!-- src/shared/lib/index.ts -->
<g id="node29" class="node">
<title>src/shared/lib/index.ts</title>
<g id="a_node29"><a xlink:href="src/shared/lib/index.ts" xlink:title="index.ts">
<path fill="#ddfeff" stroke="black" d="M384.21,-535.88C384.21,-535.88 342.04,-535.88 342.04,-535.88 339.08,-535.88 336.12,-532.92 336.12,-529.96 336.12,-529.96 336.12,-524.04 336.12,-524.04 336.12,-521.08 339.08,-518.12 342.04,-518.12 342.04,-518.12 384.21,-518.12 384.21,-518.12 387.17,-518.12 390.12,-521.08 390.12,-524.04 390.12,-524.04 390.12,-529.96 390.12,-529.96 390.12,-532.92 387.17,-535.88 384.21,-535.88"/>
<text text-anchor="start" x="347.38" y="-523.33" font-family="Helvetica,sans-Serif" font-size="9.00">index.ts</text>
</a>
</g>
</g>
<!-- src/shared/api/utils.ts&#45;&gt;src/shared/lib/index.ts -->
<g id="edge16" class="edge">
<title>src/shared/api/utils.ts&#45;&gt;src/shared/lib/index.ts</title>
<path fill="none" stroke="#000000" stroke-width="2" stroke-opacity="0.200000" d="M285.01,-503.16C297.91,-507.14 313.59,-511.99 327.44,-516.28"/>
<polygon fill="#000000" fill-opacity="0.200000" stroke="#000000" stroke-width="2" stroke-opacity="0.200000" points="327.44,-519.09 333.79,-518.86 328.68,-515.08 327.44,-519.09"/>
</g>
<!-- src/shared/api/index.ts -->
<g id="node26" class="node">
<title>src/shared/api/index.ts</title>
<g id="a_node26"><a xlink:href="src/shared/api/index.ts" xlink:title="index.ts">
<path fill="#ddfeff" stroke="black" d="M88.08,-510.88C88.08,-510.88 45.92,-510.88 45.92,-510.88 42.96,-510.88 40,-507.92 40,-504.96 40,-504.96 40,-499.04 40,-499.04 40,-496.08 42.96,-493.12 45.92,-493.12 45.92,-493.12 88.08,-493.12 88.08,-493.12 91.04,-493.12 94,-496.08 94,-499.04 94,-499.04 94,-504.96 94,-504.96 94,-507.92 91.04,-510.88 88.08,-510.88"/>
<text text-anchor="start" x="51.25" y="-498.32" font-family="Helvetica,sans-Serif" font-size="9.00">index.ts</text>
</a>
</g>
</g>
<!-- src/shared/api/index.ts&#45;&gt;src/shared/api/external.ts -->
<g id="edge13" class="edge">
<title>src/shared/api/index.ts&#45;&gt;src/shared/api/external.ts</title>
<path fill="none" stroke="#000000" stroke-width="2" stroke-opacity="0.200000" d="M94.12,-496.5C101.18,-495.02 108.95,-493.38 116.49,-491.79"/>
<polygon fill="#000000" fill-opacity="0.200000" stroke="#000000" stroke-width="2" stroke-opacity="0.200000" points="117.72,-493.26 123.16,-489.97 116.86,-489.15 117.72,-493.26"/>
</g>
<!-- src/shared/api/index.ts&#45;&gt;src/shared/api/utils.ts -->
<g id="edge14" class="edge">
<title>src/shared/api/index.ts&#45;&gt;src/shared/api/utils.ts</title>
<path fill="none" stroke="#000000" stroke-width="2" stroke-opacity="0.200000" d="M94.29,-501.88C122.13,-501.65 167.38,-500.97 206.38,-499 211.24,-498.75 216.36,-498.43 221.4,-498.06"/>
<polygon fill="#000000" fill-opacity="0.200000" stroke="#000000" stroke-width="2" stroke-opacity="0.200000" points="221.48,-499.93 227.3,-497.38 221.16,-495.75 221.48,-499.93"/>
</g>
<!-- src/shared/api/types.ts -->
<g id="node27" class="node">
<title>src/shared/api/types.ts</title>
<g id="a_node27"><a xlink:href="src/shared/api/types.ts" xlink:title="types.ts">
<path fill="#ccffcc" stroke="black" d="M88.08,-480.88C88.08,-480.88 45.92,-480.88 45.92,-480.88 42.96,-480.88 40,-477.92 40,-474.96 40,-474.96 40,-469.04 40,-469.04 40,-466.08 42.96,-463.12 45.92,-463.12 45.92,-463.12 88.08,-463.12 88.08,-463.12 91.04,-463.12 94,-466.08 94,-469.04 94,-469.04 94,-474.96 94,-474.96 94,-477.92 91.04,-480.88 88.08,-480.88"/>
<text text-anchor="start" x="51.62" y="-468.32" font-family="Helvetica,sans-Serif" font-size="9.00">types.ts</text>
</a>
</g>
</g>
<!-- src/shared/config/consts.ts -->
<g id="node30" class="node">
<title>src/shared/config/consts.ts</title>
<g id="a_node30"><a xlink:href="src/shared/config/consts.ts" xlink:title="consts.ts">
<path fill="#ddfeff" stroke="black" d="M496.21,-445.88C496.21,-445.88 454.04,-445.88 454.04,-445.88 451.08,-445.88 448.12,-442.92 448.12,-439.96 448.12,-439.96 448.12,-434.04 448.12,-434.04 448.12,-431.08 451.08,-428.12 454.04,-428.12 454.04,-428.12 496.21,-428.12 496.21,-428.12 499.17,-428.12 502.12,-431.08 502.12,-434.04 502.12,-434.04 502.12,-439.96 502.12,-439.96 502.12,-442.92 499.17,-445.88 496.21,-445.88"/>
<text text-anchor="start" x="457.5" y="-433.32" font-family="Helvetica,sans-Serif" font-size="9.00">consts.ts</text>
</a>
</g>
</g>
<!-- src/shared/config/index.ts&#45;&gt;src/shared/config/consts.ts -->
<g id="edge17" class="edge">
<title>src/shared/config/index.ts&#45;&gt;src/shared/config/consts.ts</title>
<path fill="none" stroke="#000000" stroke-width="2" stroke-opacity="0.200000" d="M390.47,-437C405.03,-437 423.3,-437 439.06,-437"/>
<polygon fill="#000000" fill-opacity="0.200000" stroke="#000000" stroke-width="2" stroke-opacity="0.200000" points="438.99,-439.1 444.99,-437 438.99,-434.9 438.99,-439.1"/>
</g>
<!-- src/shared/lib/delay.ts -->
<g id="node31" class="node">
<title>src/shared/lib/delay.ts</title>
<g id="a_node31"><a xlink:href="src/shared/lib/delay.ts" xlink:title="delay.ts">
<path fill="#ddfeff" stroke="black" d="M496.21,-505.88C496.21,-505.88 454.04,-505.88 454.04,-505.88 451.08,-505.88 448.12,-502.92 448.12,-499.96 448.12,-499.96 448.12,-494.04 448.12,-494.04 448.12,-491.08 451.08,-488.12 454.04,-488.12 454.04,-488.12 496.21,-488.12 496.21,-488.12 499.17,-488.12 502.12,-491.08 502.12,-494.04 502.12,-494.04 502.12,-499.96 502.12,-499.96 502.12,-502.92 499.17,-505.88 496.21,-505.88"/>
<text text-anchor="start" x="459.38" y="-493.32" font-family="Helvetica,sans-Serif" font-size="9.00">delay.ts</text>
</a>
</g>
</g>
<!-- src/shared/lib/index.ts&#45;&gt;src/shared/lib/delay.ts -->
<g id="edge18" class="edge">
<title>src/shared/lib/index.ts&#45;&gt;src/shared/lib/delay.ts</title>
<path fill="none" stroke="#000000" stroke-width="2" stroke-opacity="0.200000" d="M390.47,-519.81C405.17,-515.81 423.65,-510.77 439.5,-506.44"/>
<polygon fill="#000000" fill-opacity="0.200000" stroke="#000000" stroke-width="2" stroke-opacity="0.200000" points="440.76,-507.73 445.99,-504.13 439.65,-503.68 440.76,-507.73"/>
</g>
<!-- src/shared/lib/fetch.ts -->
<g id="node32" class="node">
<title>src/shared/lib/fetch.ts</title>
<g id="a_node32"><a xlink:href="src/shared/lib/fetch.ts" xlink:title="fetch.ts">
<path fill="#ddfeff" stroke="black" d="M496.21,-535.88C496.21,-535.88 454.04,-535.88 454.04,-535.88 451.08,-535.88 448.12,-532.92 448.12,-529.96 448.12,-529.96 448.12,-524.04 448.12,-524.04 448.12,-521.08 451.08,-518.12 454.04,-518.12 454.04,-518.12 496.21,-518.12 496.21,-518.12 499.17,-518.12 502.12,-521.08 502.12,-524.04 502.12,-524.04 502.12,-529.96 502.12,-529.96 502.12,-532.92 499.17,-535.88 496.21,-535.88"/>
<text text-anchor="start" x="460.88" y="-523.33" font-family="Helvetica,sans-Serif" font-size="9.00">fetch.ts</text>
</a>
</g>
</g>
<!-- src/shared/lib/index.ts&#45;&gt;src/shared/lib/fetch.ts -->
<g id="edge19" class="edge">
<title>src/shared/lib/index.ts&#45;&gt;src/shared/lib/fetch.ts</title>
<path fill="none" stroke="#000000" stroke-width="2" stroke-opacity="0.200000" d="M390.47,-527C405.03,-527 423.3,-527 439.06,-527"/>
<polygon fill="#000000" fill-opacity="0.200000" stroke="#000000" stroke-width="2" stroke-opacity="0.200000" points="438.99,-529.1 444.99,-527 438.99,-524.9 438.99,-529.1"/>
</g>
<!-- src/shared/lib/previews.ts -->
<g id="node33" class="node">
<title>src/shared/lib/previews.ts</title>
<g id="a_node33"><a xlink:href="src/shared/lib/previews.ts" xlink:title="previews.ts">
<path fill="#ddfeff" stroke="black" d="M500.08,-565.88C500.08,-565.88 450.17,-565.88 450.17,-565.88 447.21,-565.88 444.25,-562.92 444.25,-559.96 444.25,-559.96 444.25,-554.04 444.25,-554.04 444.25,-551.08 447.21,-548.12 450.17,-548.12 450.17,-548.12 500.08,-548.12 500.08,-548.12 503.04,-548.12 506,-551.08 506,-554.04 506,-554.04 506,-559.96 506,-559.96 506,-562.92 503.04,-565.88 500.08,-565.88"/>
<text text-anchor="start" x="452.25" y="-553.33" font-family="Helvetica,sans-Serif" font-size="9.00">previews.ts</text>
</a>
</g>
</g>
<!-- src/shared/lib/index.ts&#45;&gt;src/shared/lib/previews.ts -->
<g id="edge20" class="edge">
<title>src/shared/lib/index.ts&#45;&gt;src/shared/lib/previews.ts</title>
<path fill="none" stroke="#000000" stroke-width="2" stroke-opacity="0.200000" d="M390.47,-534.19C403.97,-537.87 420.66,-542.42 435.57,-546.48"/>
<polygon fill="#000000" fill-opacity="0.200000" stroke="#000000" stroke-width="2" stroke-opacity="0.200000" points="435.77,-549.26 442.11,-548.81 436.87,-545.21 435.77,-549.26"/>
</g>
<!-- src/shared/lib/timeTransform.ts -->
<g id="node34" class="node">
<title>src/shared/lib/timeTransform.ts</title>
<g id="a_node34"><a xlink:href="src/shared/lib/timeTransform.ts" xlink:title="timeTransform.ts">
<path fill="#ddfeff" stroke="black" d="M510.96,-595.88C510.96,-595.88 439.29,-595.88 439.29,-595.88 436.33,-595.88 433.38,-592.92 433.38,-589.96 433.38,-589.96 433.38,-584.04 433.38,-584.04 433.38,-581.08 436.33,-578.12 439.29,-578.12 439.29,-578.12 510.96,-578.12 510.96,-578.12 513.92,-578.12 516.88,-581.08 516.88,-584.04 516.88,-584.04 516.88,-589.96 516.88,-589.96 516.88,-592.92 513.92,-595.88 510.96,-595.88"/>
<text text-anchor="start" x="441.38" y="-583.33" font-family="Helvetica,sans-Serif" font-size="9.00">timeTransform.ts</text>
</a>
</g>
</g>
<!-- src/shared/lib/index.ts&#45;&gt;src/shared/lib/timeTransform.ts -->
<g id="edge21" class="edge">
<title>src/shared/lib/index.ts&#45;&gt;src/shared/lib/timeTransform.ts</title>
<path fill="none" stroke="#000000" stroke-width="2" stroke-opacity="0.200000" d="M376.38,-536.18C389.84,-545.96 412.35,-561.47 433.38,-572 434.89,-572.76 436.46,-573.5 438.05,-574.22"/>
<polygon fill="#000000" fill-opacity="0.200000" stroke="#000000" stroke-width="2" stroke-opacity="0.200000" points="437.81,-576.25 444.15,-576.65 439.44,-572.38 437.81,-576.25"/>
</g>
<!-- src/shared/ui/Badge.tsx -->
<g id="node35" class="node">
<title>src/shared/ui/Badge.tsx</title>
<g id="a_node35"><a xlink:href="src/shared/ui/Badge.tsx" xlink:title="Badge.tsx">
<path fill="#bbfeff" stroke="black" d="M176.83,-325.88C176.83,-325.88 132.17,-325.88 132.17,-325.88 129.21,-325.88 126.25,-322.92 126.25,-319.96 126.25,-319.96 126.25,-314.04 126.25,-314.04 126.25,-311.08 129.21,-308.12 132.17,-308.12 132.17,-308.12 176.83,-308.12 176.83,-308.12 179.79,-308.12 182.75,-311.08 182.75,-314.04 182.75,-314.04 182.75,-319.96 182.75,-319.96 182.75,-322.92 179.79,-325.88 176.83,-325.88"/>
<text text-anchor="start" x="134.25" y="-313.32" font-family="Helvetica,sans-Serif" font-size="9.00">Badge.tsx</text>
</a>
</g>
</g>
<!-- src/shared/ui/utils.ts -->
<g id="node36" class="node">
<title>src/shared/ui/utils.ts</title>
<g id="a_node36"><a xlink:href="src/shared/ui/utils.ts" xlink:title="utils.ts">
<path fill="#ddfeff" stroke="black" d="M384.21,-225.88C384.21,-225.88 342.04,-225.88 342.04,-225.88 339.08,-225.88 336.12,-222.92 336.12,-219.96 336.12,-219.96 336.12,-214.04 336.12,-214.04 336.12,-211.08 339.08,-208.12 342.04,-208.12 342.04,-208.12 384.21,-208.12 384.21,-208.12 387.17,-208.12 390.12,-211.08 390.12,-214.04 390.12,-214.04 390.12,-219.96 390.12,-219.96 390.12,-222.92 387.17,-225.88 384.21,-225.88"/>
<text text-anchor="start" x="350.38" y="-213.32" font-family="Helvetica,sans-Serif" font-size="9.00">utils.ts</text>
</a>
</g>
</g>
<!-- src/shared/ui/Badge.tsx&#45;&gt;src/shared/ui/utils.ts -->
<g id="edge22" class="edge">
<title>src/shared/ui/Badge.tsx&#45;&gt;src/shared/ui/utils.ts</title>
<path fill="none" stroke="#000000" stroke-width="2" stroke-opacity="0.200000" d="M182.93,-317.38C221.27,-317.42 288.46,-315.62 308.88,-303 334.13,-287.38 349.26,-254.87 356.61,-234.6"/>
<polygon fill="#000000" fill-opacity="0.200000" stroke="#000000" stroke-width="2" stroke-opacity="0.200000" points="359.51,-234.61 359.46,-228.25 355.54,-233.26 359.51,-234.61"/>
</g>
<!-- src/shared/ui/Card/CardBody.tsx -->
<g id="node37" class="node">
<title>src/shared/ui/Card/CardBody.tsx</title>
<g id="a_node37"><a xlink:href="src/shared/ui/Card/CardBody.tsx" xlink:title="CardBody.tsx">
<path fill="#bbfeff" stroke="black" d="M287.08,-143.88C287.08,-143.88 228.17,-143.88 228.17,-143.88 225.21,-143.88 222.25,-140.92 222.25,-137.96 222.25,-137.96 222.25,-132.04 222.25,-132.04 222.25,-129.08 225.21,-126.12 228.17,-126.12 228.17,-126.12 287.08,-126.12 287.08,-126.12 290.04,-126.12 293,-129.08 293,-132.04 293,-132.04 293,-137.96 293,-137.96 293,-140.92 290.04,-143.88 287.08,-143.88"/>
<text text-anchor="start" x="230.25" y="-131.32" font-family="Helvetica,sans-Serif" font-size="9.00">CardBody.tsx</text>
</a>
</g>
</g>
<!-- src/shared/ui/Card/CardBody.tsx&#45;&gt;src/shared/ui/utils.ts -->
<g id="edge23" class="edge">
<title>src/shared/ui/Card/CardBody.tsx&#45;&gt;src/shared/ui/utils.ts</title>
<path fill="none" stroke="#000000" stroke-width="2" stroke-opacity="0.200000" d="M293.3,-139.73C299.21,-141.98 304.76,-145.26 308.88,-150 324.5,-167.98 301.34,-184.94 316.88,-203 319.82,-206.42 323.57,-209.02 327.66,-210.99"/>
<polygon fill="#000000" fill-opacity="0.200000" stroke="#000000" stroke-width="2" stroke-opacity="0.200000" points="327.45,-212.9 333.81,-213.05 328.93,-208.97 327.45,-212.9"/>
</g>
<!-- src/shared/ui/Card/CardImg.tsx -->
<g id="node38" class="node">
<title>src/shared/ui/Card/CardImg.tsx</title>
<g id="a_node38"><a xlink:href="src/shared/ui/Card/CardImg.tsx" xlink:title="CardImg.tsx">
<path fill="#bbfeff" stroke="black" d="M284.08,-173.88C284.08,-173.88 231.17,-173.88 231.17,-173.88 228.21,-173.88 225.25,-170.92 225.25,-167.96 225.25,-167.96 225.25,-162.04 225.25,-162.04 225.25,-159.08 228.21,-156.12 231.17,-156.12 231.17,-156.12 284.08,-156.12 284.08,-156.12 287.04,-156.12 290,-159.08 290,-162.04 290,-162.04 290,-167.96 290,-167.96 290,-170.92 287.04,-173.88 284.08,-173.88"/>
<text text-anchor="start" x="233.25" y="-161.32" font-family="Helvetica,sans-Serif" font-size="9.00">CardImg.tsx</text>
</a>
</g>
</g>
<!-- src/shared/ui/Card/CardImg.tsx&#45;&gt;src/shared/ui/utils.ts -->
<g id="edge24" class="edge">
<title>src/shared/ui/Card/CardImg.tsx&#45;&gt;src/shared/ui/utils.ts</title>
<path fill="none" stroke="#000000" stroke-width="2" stroke-opacity="0.200000" d="M290.31,-168.11C297.11,-170.08 303.77,-173.17 308.88,-178 317.35,-186.01 308.59,-194.79 316.88,-203 319.93,-206.02 323.62,-208.4 327.56,-210.26"/>
<polygon fill="#000000" fill-opacity="0.200000" stroke="#000000" stroke-width="2" stroke-opacity="0.200000" points="327.53,-212.25 333.88,-212.4 329.01,-208.32 327.53,-212.25"/>
</g>
<!-- src/shared/ui/Card/CardText.tsx -->
<g id="node39" class="node">
<title>src/shared/ui/Card/CardText.tsx</title>
<g id="a_node39"><a xlink:href="src/shared/ui/Card/CardText.tsx" xlink:title="CardText.tsx">
<path fill="#bbfeff" stroke="black" d="M284.83,-83.88C284.83,-83.88 230.42,-83.88 230.42,-83.88 227.46,-83.88 224.5,-80.92 224.5,-77.96 224.5,-77.96 224.5,-72.04 224.5,-72.04 224.5,-69.08 227.46,-66.12 230.42,-66.12 230.42,-66.12 284.83,-66.12 284.83,-66.12 287.79,-66.12 290.75,-69.08 290.75,-72.04 290.75,-72.04 290.75,-77.96 290.75,-77.96 290.75,-80.92 287.79,-83.88 284.83,-83.88"/>
<text text-anchor="start" x="232.5" y="-71.33" font-family="Helvetica,sans-Serif" font-size="9.00">CardText.tsx</text>
</a>
</g>
</g>
<!-- src/shared/ui/Card/styles.module.scss -->
<g id="node40" class="node">
<title>src/shared/ui/Card/styles.module.scss</title>
<g id="a_node40"><a xlink:href="src/shared/ui/Card/styles.module.scss" xlink:title="styles.module.scss">
<path fill="#ffffcc" stroke="black" d="M403.46,-98.88C403.46,-98.88 322.79,-98.88 322.79,-98.88 319.83,-98.88 316.88,-95.92 316.88,-92.96 316.88,-92.96 316.88,-87.04 316.88,-87.04 316.88,-84.08 319.83,-81.12 322.79,-81.12 322.79,-81.12 403.46,-81.12 403.46,-81.12 406.42,-81.12 409.38,-84.08 409.38,-87.04 409.38,-87.04 409.38,-92.96 409.38,-92.96 409.38,-95.92 406.42,-98.88 403.46,-98.88"/>
<text text-anchor="start" x="324.88" y="-86.33" font-family="Helvetica,sans-Serif" font-size="9.00">styles.module.scss</text>
</a>
</g>
</g>
<!-- src/shared/ui/Card/CardText.tsx&#45;&gt;src/shared/ui/Card/styles.module.scss -->
<g id="edge25" class="edge">
<title>src/shared/ui/Card/CardText.tsx&#45;&gt;src/shared/ui/Card/styles.module.scss</title>
<path fill="none" stroke="#000000" stroke-width="2" stroke-opacity="0.200000" d="M291.09,-79.7C296.38,-80.47 301.99,-81.28 307.63,-82.1"/>
<polygon fill="#000000" fill-opacity="0.200000" stroke="#000000" stroke-width="2" stroke-opacity="0.200000" points="308.27,-84.61 314.51,-83.39 308.87,-80.45 308.27,-84.61"/>
</g>
<!-- src/shared/ui/Card/CardTitle.tsx -->
<g id="node41" class="node">
<title>src/shared/ui/Card/CardTitle.tsx</title>
<g id="a_node41"><a xlink:href="src/shared/ui/Card/CardTitle.tsx" xlink:title="CardTitle.tsx">
<path fill="#bbfeff" stroke="black" d="M284.83,-113.88C284.83,-113.88 230.42,-113.88 230.42,-113.88 227.46,-113.88 224.5,-110.92 224.5,-107.96 224.5,-107.96 224.5,-102.04 224.5,-102.04 224.5,-99.08 227.46,-96.12 230.42,-96.12 230.42,-96.12 284.83,-96.12 284.83,-96.12 287.79,-96.12 290.75,-99.08 290.75,-102.04 290.75,-102.04 290.75,-107.96 290.75,-107.96 290.75,-110.92 287.79,-113.88 284.83,-113.88"/>
<text text-anchor="start" x="232.5" y="-101.33" font-family="Helvetica,sans-Serif" font-size="9.00">CardTitle.tsx</text>
</a>
</g>
</g>
<!-- src/shared/ui/Card/CardTitle.tsx&#45;&gt;src/shared/ui/Card/styles.module.scss -->
<g id="edge26" class="edge">
<title>src/shared/ui/Card/CardTitle.tsx&#45;&gt;src/shared/ui/Card/styles.module.scss</title>
<path fill="none" stroke="#000000" stroke-width="2" stroke-opacity="0.200000" d="M291.09,-100.3C296.38,-99.53 301.99,-98.72 307.63,-97.9"/>
<polygon fill="#000000" fill-opacity="0.200000" stroke="#000000" stroke-width="2" stroke-opacity="0.200000" points="308.87,-99.55 314.51,-96.61 308.27,-95.39 308.87,-99.55"/>
</g>
<!-- src/shared/ui/Card/index.tsx -->
<g id="node42" class="node">
<title>src/shared/ui/Card/index.tsx</title>
<g id="a_node42"><a xlink:href="src/shared/ui/Card/index.tsx" xlink:title="index.tsx">
<path fill="#bbfeff" stroke="black" d="M175.58,-158.88C175.58,-158.88 133.42,-158.88 133.42,-158.88 130.46,-158.88 127.5,-155.92 127.5,-152.96 127.5,-152.96 127.5,-147.04 127.5,-147.04 127.5,-144.08 130.46,-141.12 133.42,-141.12 133.42,-141.12 175.58,-141.12 175.58,-141.12 178.54,-141.12 181.5,-144.08 181.5,-147.04 181.5,-147.04 181.5,-152.96 181.5,-152.96 181.5,-155.92 178.54,-158.88 175.58,-158.88"/>
<text text-anchor="start" x="136.5" y="-146.32" font-family="Helvetica,sans-Serif" font-size="9.00">index.tsx</text>
</a>
</g>
</g>
<!-- src/shared/ui/Card/index.tsx&#45;&gt;src/shared/ui/utils.ts -->
<g id="edge27" class="edge">
<title>src/shared/ui/Card/index.tsx&#45;&gt;src/shared/ui/utils.ts</title>
<path fill="none" stroke="#000000" stroke-width="2" stroke-opacity="0.200000" d="M181.85,-152.24C190.42,-154.07 199.49,-157.31 206.38,-163 212.81,-168.32 207.88,-174.75 214.38,-180 247.91,-207.11 267.11,-191.26 308.88,-202 314.75,-203.51 320.97,-205.19 327,-206.86"/>
<polygon fill="#000000" fill-opacity="0.200000" stroke="#000000" stroke-width="2" stroke-opacity="0.200000" points="327.3,-209.69 333.65,-209.28 328.43,-205.64 327.3,-209.69"/>
</g>
<!-- src/shared/ui/Card/index.tsx&#45;&gt;src/shared/ui/Card/CardBody.tsx -->
<g id="edge28" class="edge">
<title>src/shared/ui/Card/index.tsx&#45;&gt;src/shared/ui/Card/CardBody.tsx</title>
<path fill="none" stroke="#000000" stroke-width="2" stroke-opacity="0.200000" d="M181.81,-146.1C191.41,-144.67 202.54,-143.02 213.23,-141.44"/>
<polygon fill="#000000" fill-opacity="0.200000" stroke="#000000" stroke-width="2" stroke-opacity="0.200000" points="214.44,-143.08 220.07,-140.13 213.82,-138.93 214.44,-143.08"/>
</g>
<!-- src/shared/ui/Card/index.tsx&#45;&gt;src/shared/ui/Card/CardImg.tsx -->
<g id="edge29" class="edge">
<title>src/shared/ui/Card/index.tsx&#45;&gt;src/shared/ui/Card/CardImg.tsx</title>
<path fill="none" stroke="#000000" stroke-width="2" stroke-opacity="0.200000" d="M181.81,-153.9C192.34,-155.47 204.73,-157.3 216.35,-159.03"/>
<polygon fill="#000000" fill-opacity="0.200000" stroke="#000000" stroke-width="2" stroke-opacity="0.200000" points="216.81,-161.51 223.05,-160.32 217.42,-157.36 216.81,-161.51"/>
</g>
<!-- src/shared/ui/Card/index.tsx&#45;&gt;src/shared/ui/Card/CardText.tsx -->
<g id="edge30" class="edge">
<title>src/shared/ui/Card/index.tsx&#45;&gt;src/shared/ui/Card/CardText.tsx</title>
<path fill="none" stroke="#000000" stroke-width="2" stroke-opacity="0.200000" d="M162.13,-141.01C172.12,-128.05 192.23,-104.13 214.38,-90 215.33,-89.39 216.32,-88.8 217.33,-88.23"/>
<polygon fill="#000000" fill-opacity="0.200000" stroke="#000000" stroke-width="2" stroke-opacity="0.200000" points="218.94,-89.78 223.4,-85.25 217.09,-86.02 218.94,-89.78"/>
</g>
<!-- src/shared/ui/Card/index.tsx&#45;&gt;src/shared/ui/Card/CardTitle.tsx -->
<g id="edge31" class="edge">
<title>src/shared/ui/Card/index.tsx&#45;&gt;src/shared/ui/Card/CardTitle.tsx</title>
<path fill="none" stroke="#000000" stroke-width="2" stroke-opacity="0.200000" d="M172.23,-140.74C183.86,-134.48 199.83,-126.26 214.38,-120 216.38,-119.14 218.45,-118.29 220.54,-117.45"/>
<polygon fill="#000000" fill-opacity="0.200000" stroke="#000000" stroke-width="2" stroke-opacity="0.200000" points="221.84,-119.44 226.7,-115.33 220.34,-115.52 221.84,-119.44"/>
</g>
<!-- src/shared/ui/Container.tsx -->
<g id="node43" class="node">
<title>src/shared/ui/Container.tsx</title>
<g id="a_node43"><a xlink:href="src/shared/ui/Container.tsx" xlink:title="Container.tsx">
<path fill="#bbfeff" stroke="black" d="M183.58,-239.88C183.58,-239.88 125.42,-239.88 125.42,-239.88 122.46,-239.88 119.5,-236.92 119.5,-233.96 119.5,-233.96 119.5,-228.04 119.5,-228.04 119.5,-225.08 122.46,-222.12 125.42,-222.12 125.42,-222.12 183.58,-222.12 183.58,-222.12 186.54,-222.12 189.5,-225.08 189.5,-228.04 189.5,-228.04 189.5,-233.96 189.5,-233.96 189.5,-236.92 186.54,-239.88 183.58,-239.88"/>
<text text-anchor="start" x="127.5" y="-227.32" font-family="Helvetica,sans-Serif" font-size="9.00">Container.tsx</text>
</a>
</g>
</g>
<!-- src/shared/ui/Layout.tsx -->
<g id="node44" class="node">
<title>src/shared/ui/Layout.tsx</title>
<g id="a_node44"><a xlink:href="src/shared/ui/Layout.tsx" xlink:title="Layout.tsx">
<path fill="#bbfeff" stroke="black" d="M280.33,-225.88C280.33,-225.88 234.92,-225.88 234.92,-225.88 231.96,-225.88 229,-222.92 229,-219.96 229,-219.96 229,-214.04 229,-214.04 229,-211.08 231.96,-208.12 234.92,-208.12 234.92,-208.12 280.33,-208.12 280.33,-208.12 283.29,-208.12 286.25,-211.08 286.25,-214.04 286.25,-214.04 286.25,-219.96 286.25,-219.96 286.25,-222.92 283.29,-225.88 280.33,-225.88"/>
<text text-anchor="start" x="237" y="-213.32" font-family="Helvetica,sans-Serif" font-size="9.00">Layout.tsx</text>
</a>
</g>
</g>
<!-- src/shared/ui/Layout.tsx&#45;&gt;src/shared/ui/utils.ts -->
<g id="edge32" class="edge">
<title>src/shared/ui/Layout.tsx&#45;&gt;src/shared/ui/utils.ts</title>
<path fill="none" stroke="#000000" stroke-width="2" stroke-opacity="0.200000" d="M286.63,-217C299.09,-217 313.88,-217 327.06,-217"/>
<polygon fill="#000000" fill-opacity="0.200000" stroke="#000000" stroke-width="2" stroke-opacity="0.200000" points="326.87,-219.1 332.87,-217 326.87,-214.9 326.87,-219.1"/>
</g>
<!-- src/shared/ui/ListGroup/ListGroupItem.tsx -->
<g id="node45" class="node">
<title>src/shared/ui/ListGroup/ListGroupItem.tsx</title>
<g id="a_node45"><a xlink:href="src/shared/ui/ListGroup/ListGroupItem.tsx" xlink:title="ListGroupItem.tsx">
<path fill="#bbfeff" stroke="black" d="M294.96,-273.88C294.96,-273.88 220.29,-273.88 220.29,-273.88 217.33,-273.88 214.38,-270.92 214.38,-267.96 214.38,-267.96 214.38,-262.04 214.38,-262.04 214.38,-259.08 217.33,-256.12 220.29,-256.12 220.29,-256.12 294.96,-256.12 294.96,-256.12 297.92,-256.12 300.88,-259.08 300.88,-262.04 300.88,-262.04 300.88,-267.96 300.88,-267.96 300.88,-270.92 297.92,-273.88 294.96,-273.88"/>
<text text-anchor="start" x="222.38" y="-261.32" font-family="Helvetica,sans-Serif" font-size="9.00">ListGroupItem.tsx</text>
</a>
</g>
</g>
<!-- src/shared/ui/ListGroup/ListGroupItem.tsx&#45;&gt;src/shared/ui/utils.ts -->
<g id="edge33" class="edge">
<title>src/shared/ui/ListGroup/ListGroupItem.tsx&#45;&gt;src/shared/ui/utils.ts</title>
<path fill="none" stroke="#000000" stroke-width="2" stroke-opacity="0.200000" d="M299.34,-255.7C302.61,-254.58 305.83,-253.35 308.88,-252 321,-246.62 333.46,-238.6 343.27,-231.59"/>
<polygon fill="#000000" fill-opacity="0.200000" stroke="#000000" stroke-width="2" stroke-opacity="0.200000" points="344.92,-232.51 348.51,-227.26 342.43,-229.13 344.92,-232.51"/>
</g>
<!-- src/shared/ui/ListGroup/index.tsx -->
<g id="node46" class="node">
<title>src/shared/ui/ListGroup/index.tsx</title>
<g id="a_node46"><a xlink:href="src/shared/ui/ListGroup/index.tsx" xlink:title="index.tsx">
<path fill="#bbfeff" stroke="black" d="M175.58,-273.88C175.58,-273.88 133.42,-273.88 133.42,-273.88 130.46,-273.88 127.5,-270.92 127.5,-267.96 127.5,-267.96 127.5,-262.04 127.5,-262.04 127.5,-259.08 130.46,-256.12 133.42,-256.12 133.42,-256.12 175.58,-256.12 175.58,-256.12 178.54,-256.12 181.5,-259.08 181.5,-262.04 181.5,-262.04 181.5,-267.96 181.5,-267.96 181.5,-270.92 178.54,-273.88 175.58,-273.88"/>
<text text-anchor="start" x="136.5" y="-261.32" font-family="Helvetica,sans-Serif" font-size="9.00">index.tsx</text>
</a>
</g>
</g>
<!-- src/shared/ui/ListGroup/index.tsx&#45;&gt;src/shared/ui/ListGroup/ListGroupItem.tsx -->
<g id="edge34" class="edge">
<title>src/shared/ui/ListGroup/index.tsx&#45;&gt;src/shared/ui/ListGroup/ListGroupItem.tsx</title>
<path fill="none" stroke="#000000" stroke-width="2" stroke-opacity="0.200000" d="M181.81,-265C189.03,-265 197.11,-265 205.22,-265"/>
<polygon fill="#000000" fill-opacity="0.200000" stroke="#000000" stroke-width="2" stroke-opacity="0.200000" points="205,-267.1 211,-265 205,-262.9 205,-267.1"/>
</g>
<!-- src/shared/ui/Navbar/NavbarBrand.tsx -->
<g id="node47" class="node">
<title>src/shared/ui/Navbar/NavbarBrand.tsx</title>
<g id="a_node47"><a xlink:href="src/shared/ui/Navbar/NavbarBrand.tsx" xlink:title="NavbarBrand.tsx">
<path fill="#bbfeff" stroke="black" d="M293.83,-359.88C293.83,-359.88 221.42,-359.88 221.42,-359.88 218.46,-359.88 215.5,-356.92 215.5,-353.96 215.5,-353.96 215.5,-348.04 215.5,-348.04 215.5,-345.08 218.46,-342.12 221.42,-342.12 221.42,-342.12 293.83,-342.12 293.83,-342.12 296.79,-342.12 299.75,-345.08 299.75,-348.04 299.75,-348.04 299.75,-353.96 299.75,-353.96 299.75,-356.92 296.79,-359.88 293.83,-359.88"/>
<text text-anchor="start" x="223.5" y="-347.32" font-family="Helvetica,sans-Serif" font-size="9.00">NavbarBrand.tsx</text>
</a>
</g>
</g>
<!-- src/shared/ui/Navbar/index.tsx -->
<g id="node48" class="node">
<title>src/shared/ui/Navbar/index.tsx</title>
<g id="a_node48"><a xlink:href="src/shared/ui/Navbar/index.tsx" xlink:title="index.tsx">
<path fill="#bbfeff" stroke="black" d="M175.58,-359.88C175.58,-359.88 133.42,-359.88 133.42,-359.88 130.46,-359.88 127.5,-356.92 127.5,-353.96 127.5,-353.96 127.5,-348.04 127.5,-348.04 127.5,-345.08 130.46,-342.12 133.42,-342.12 133.42,-342.12 175.58,-342.12 175.58,-342.12 178.54,-342.12 181.5,-345.08 181.5,-348.04 181.5,-348.04 181.5,-353.96 181.5,-353.96 181.5,-356.92 178.54,-359.88 175.58,-359.88"/>
<text text-anchor="start" x="136.5" y="-347.32" font-family="Helvetica,sans-Serif" font-size="9.00">index.tsx</text>
</a>
</g>
</g>
<!-- src/shared/ui/Navbar/index.tsx&#45;&gt;src/shared/ui/utils.ts -->
<g id="edge35" class="edge">
<title>src/shared/ui/Navbar/index.tsx&#45;&gt;src/shared/ui/utils.ts</title>
<path fill="none" stroke="#000000" stroke-width="2" stroke-opacity="0.200000" d="M181.83,-344.27C195.91,-340.67 211.04,-336.81 214.38,-336 256.27,-325.79 274.51,-340.05 308.88,-314 335.4,-293.89 350.41,-256.57 357.34,-234.55"/>
<polygon fill="#000000" fill-opacity="0.200000" stroke="#000000" stroke-width="2" stroke-opacity="0.200000" points="360.14,-234.49 359.83,-228.14 356.12,-233.3 360.14,-234.49"/>
</g>
<!-- src/shared/ui/Navbar/index.tsx&#45;&gt;src/shared/ui/Navbar/NavbarBrand.tsx -->
<g id="edge36" class="edge">
<title>src/shared/ui/Navbar/index.tsx&#45;&gt;src/shared/ui/Navbar/NavbarBrand.tsx</title>
<path fill="none" stroke="#000000" stroke-width="2" stroke-opacity="0.200000" d="M181.81,-351C189.36,-351 197.87,-351 206.36,-351"/>
<polygon fill="#000000" fill-opacity="0.200000" stroke="#000000" stroke-width="2" stroke-opacity="0.200000" points="206.17,-353.1 212.17,-351 206.17,-348.9 206.17,-353.1"/>
</g>
<!-- src/shared/ui/index.ts -->
<g id="node49" class="node">
<title>src/shared/ui/index.ts</title>
<g id="a_node49"><a xlink:href="src/shared/ui/index.ts" xlink:title="index.ts">
<path fill="#ddfeff" stroke="black" d="M88.08,-256.88C88.08,-256.88 45.92,-256.88 45.92,-256.88 42.96,-256.88 40,-253.92 40,-250.96 40,-250.96 40,-245.04 40,-245.04 40,-242.08 42.96,-239.12 45.92,-239.12 45.92,-239.12 88.08,-239.12 88.08,-239.12 91.04,-239.12 94,-242.08 94,-245.04 94,-245.04 94,-250.96 94,-250.96 94,-253.92 91.04,-256.88 88.08,-256.88"/>
<text text-anchor="start" x="51.25" y="-244.32" font-family="Helvetica,sans-Serif" font-size="9.00">index.ts</text>
</a>
</g>
</g>
<!-- src/shared/ui/index.ts&#45;&gt;src/shared/ui/Badge.tsx -->
<g id="edge37" class="edge">
<title>src/shared/ui/index.ts&#45;&gt;src/shared/ui/Badge.tsx</title>
<path fill="none" stroke="#000000" stroke-width="2" stroke-opacity="0.200000" d="M74.7,-257.33C83.71,-269.3 100.77,-290.06 119.5,-303 119.66,-303.11 119.82,-303.22 119.98,-303.32"/>
<polygon fill="#000000" fill-opacity="0.200000" stroke="#000000" stroke-width="2" stroke-opacity="0.200000" points="119.38,-305.56 125.63,-306.74 121.48,-301.92 119.38,-305.56"/>
</g>
<!-- src/shared/ui/index.ts&#45;&gt;src/shared/ui/Card/index.tsx -->
<g id="edge38" class="edge">
<title>src/shared/ui/index.ts&#45;&gt;src/shared/ui/Card/index.tsx</title>
<path fill="none" stroke="#000000" stroke-width="2" stroke-opacity="0.200000" d="M71.28,-238.7C77.82,-221.43 94.07,-184.23 119.5,-163 119.65,-162.88 119.79,-162.76 119.94,-162.64"/>
<polygon fill="#000000" fill-opacity="0.200000" stroke="#000000" stroke-width="2" stroke-opacity="0.200000" points="121.33,-163.96 125.25,-158.95 119.07,-160.42 121.33,-163.96"/>
</g>
<!-- src/shared/ui/index.ts&#45;&gt;src/shared/ui/Container.tsx -->
<g id="edge39" class="edge">
<title>src/shared/ui/index.ts&#45;&gt;src/shared/ui/Container.tsx</title>
<path fill="none" stroke="#000000" stroke-width="2" stroke-opacity="0.200000" d="M94.12,-242.81C99.27,-241.78 104.81,-240.68 110.36,-239.58"/>
<polygon fill="#000000" fill-opacity="0.200000" stroke="#000000" stroke-width="2" stroke-opacity="0.200000" points="111.56,-241.08 117.03,-237.85 110.74,-236.96 111.56,-241.08"/>
</g>
<!-- src/shared/ui/index.ts&#45;&gt;src/shared/ui/Layout.tsx -->
<g id="edge40" class="edge">
<title>src/shared/ui/index.ts&#45;&gt;src/shared/ui/Layout.tsx</title>
<path fill="none" stroke="#000000" stroke-width="2" stroke-opacity="0.200000" d="M78.59,-238.93C88.44,-231.13 103.91,-220.45 119.5,-216 152.55,-206.57 191.94,-208.09 220,-211.22"/>
<polygon fill="#000000" fill-opacity="0.200000" stroke="#000000" stroke-width="2" stroke-opacity="0.200000" points="219.48,-213.63 225.69,-212.27 219.99,-209.46 219.48,-213.63"/>
</g>
<!-- src/shared/ui/index.ts&#45;&gt;src/shared/ui/ListGroup/index.tsx -->
<g id="edge41" class="edge">
<title>src/shared/ui/index.ts&#45;&gt;src/shared/ui/ListGroup/index.tsx</title>
<path fill="none" stroke="#000000" stroke-width="2" stroke-opacity="0.200000" d="M94.12,-253.19C101.84,-254.73 110.41,-256.43 118.59,-258.06"/>
<polygon fill="#000000" fill-opacity="0.200000" stroke="#000000" stroke-width="2" stroke-opacity="0.200000" points="118.95,-260.67 125.25,-259.78 119.77,-256.55 118.95,-260.67"/>
</g>
<!-- src/shared/ui/index.ts&#45;&gt;src/shared/ui/Navbar/index.tsx -->
<g id="edge42" class="edge">
<title>src/shared/ui/index.ts&#45;&gt;src/shared/ui/Navbar/index.tsx</title>
<path fill="none" stroke="#000000" stroke-width="2" stroke-opacity="0.200000" d="M70.93,-257.28C77.08,-275.31 92.97,-315.28 119.5,-338 119.64,-338.12 119.79,-338.25 119.94,-338.37"/>
<polygon fill="#000000" fill-opacity="0.200000" stroke="#000000" stroke-width="2" stroke-opacity="0.200000" points="119.03,-340.59 125.2,-342.11 121.32,-337.07 119.03,-340.59"/>
</g>
<!-- src/shared/ui/types.ts -->
<g id="node50" class="node">
<title>src/shared/ui/types.ts</title>
<g id="a_node50"><a xlink:href="src/shared/ui/types.ts" xlink:title="types.ts">
<path fill="#ccffcc" stroke="black" d="M88.08,-159.88C88.08,-159.88 45.92,-159.88 45.92,-159.88 42.96,-159.88 40,-156.92 40,-153.96 40,-153.96 40,-148.04 40,-148.04 40,-145.08 42.96,-142.12 45.92,-142.12 45.92,-142.12 88.08,-142.12 88.08,-142.12 91.04,-142.12 94,-145.08 94,-148.04 94,-148.04 94,-153.96 94,-153.96 94,-156.92 91.04,-159.88 88.08,-159.88"/>
<text text-anchor="start" x="51.62" y="-147.32" font-family="Helvetica,sans-Serif" font-size="9.00">types.ts</text>
</a>
</g>
</g>
</g>
</svg>
