<?xml version="1.0" encoding="UTF-8" standalone="no"?>
<!DOCTYPE svg PUBLIC "-//W3C//DTD SVG 1.1//EN"
 "http://www.w3.org/Graphics/SVG/1.1/DTD/svg11.dtd">
<!-- Generated by graphviz version 8.0.5 (20230430.1635)
 -->
<!-- Title: dependency&#45;cruiser output Pages: 1 -->
<svg width="1086pt" height="1142pt"
 viewBox="0.00 0.00 1085.50 1142.00" xmlns="http://www.w3.org/2000/svg" xmlns:xlink="http://www.w3.org/1999/xlink">
<g id="graph0" class="graph" transform="scale(1 1) rotate(0) translate(4 1138)">
<title>dependency&#45;cruiser output</title>
<polygon fill="white" stroke="none" points="-4,4 -4,-1138 1081.5,-1138 1081.5,4 -4,4"/>
<g id="clust1" class="cluster">
<title>cluster_src</title>
<path fill="#ffffff" stroke="black" stroke-width="2" d="M20,-8C20,-8 1057.5,-8 1057.5,-8 1063.5,-8 1069.5,-14 1069.5,-20 1069.5,-20 1069.5,-1114 1069.5,-1114 1069.5,-1120 1063.5,-1126 1057.5,-1126 1057.5,-1126 20,-1126 20,-1126 14,-1126 8,-1120 8,-1114 8,-1114 8,-20 8,-20 8,-14 14,-8 20,-8"/>
<text text-anchor="middle" x="538.75" y="-1113.45" font-family="Helvetica,sans-Serif" font-weight="bold" font-size="9.00">src</text>
</g>
<g id="clust2" class="cluster">
<title>cluster_src/app</title>
<path fill="#ffffff" stroke="black" stroke-width="2" d="M28,-480C28,-480 182,-480 182,-480 188,-480 194,-486 194,-492 194,-492 194,-700 194,-700 194,-706 188,-712 182,-712 182,-712 28,-712 28,-712 22,-712 16,-706 16,-700 16,-700 16,-492 16,-492 16,-486 22,-480 28,-480"/>
<text text-anchor="middle" x="105" y="-699.45" font-family="Helvetica,sans-Serif" font-weight="bold" font-size="9.00">app</text>
</g>
<g id="clust3" class="cluster">
<title>cluster_src/app/course</title>
<path fill="#ffffff" stroke="black" stroke-width="2" d="M36,-514C36,-514 174,-514 174,-514 180,-514 186,-520 186,-526 186,-526 186,-588 186,-588 186,-594 180,-600 174,-600 174,-600 36,-600 36,-600 30,-600 24,-594 24,-588 24,-588 24,-526 24,-526 24,-520 30,-514 36,-514"/>
<text text-anchor="middle" x="105" y="-587.45" font-family="Helvetica,sans-Serif" font-weight="bold" font-size="9.00">course</text>
</g>
<g id="clust4" class="cluster">
<title>cluster_src/app/course/[id]</title>
<path fill="#ffffff" stroke="black" stroke-width="2" d="M44,-522C44,-522 166,-522 166,-522 172,-522 178,-528 178,-534 178,-534 178,-562 178,-562 178,-568 172,-574 166,-574 166,-574 44,-574 44,-574 38,-574 32,-568 32,-562 32,-562 32,-534 32,-534 32,-528 38,-522 44,-522"/>
<text text-anchor="middle" x="105" y="-561.45" font-family="Helvetica,sans-Serif" font-weight="bold" font-size="9.00">[id]</text>
</g>
<g id="clust5" class="cluster">
<title>cluster_src/features</title>
<path fill="#ffffff" stroke="black" stroke-width="2" d="M214,-636C214,-636 640,-636 640,-636 646,-636 652,-642 652,-648 652,-648 652,-1088 652,-1088 652,-1094 646,-1100 640,-1100 640,-1100 214,-1100 214,-1100 208,-1100 202,-1094 202,-1088 202,-1088 202,-648 202,-648 202,-642 208,-636 214,-636"/>
<text text-anchor="middle" x="427" y="-1087.45" font-family="Helvetica,sans-Serif" font-weight="bold" font-size="9.00">features</text>
</g>
<g id="clust6" class="cluster">
<title>cluster_src/features/Course</title>
<path fill="#ffffff" stroke="black" stroke-width="2" d="M222,-704C222,-704 632,-704 632,-704 638,-704 644,-710 644,-716 644,-716 644,-838 644,-838 644,-844 638,-850 632,-850 632,-850 222,-850 222,-850 216,-850 210,-844 210,-838 210,-838 210,-716 210,-716 210,-710 216,-704 222,-704"/>
<text text-anchor="middle" x="427" y="-837.45" font-family="Helvetica,sans-Serif" font-weight="bold" font-size="9.00">Course</text>
</g>
<g id="clust7" class="cluster">
<title>cluster_src/features/Course/Item</title>
<path fill="#ffffff" stroke="black" stroke-width="2" d="M379.5,-712C379.5,-712 624,-712 624,-712 630,-712 636,-718 636,-724 636,-724 636,-812 636,-812 636,-818 630,-824 624,-824 624,-824 379.5,-824 379.5,-824 373.5,-824 367.5,-818 367.5,-812 367.5,-812 367.5,-724 367.5,-724 367.5,-718 373.5,-712 379.5,-712"/>
<text text-anchor="middle" x="501.75" y="-811.45" font-family="Helvetica,sans-Serif" font-weight="bold" font-size="9.00">Item</text>
</g>
<g id="clust8" class="cluster">
<title>cluster_src/features/Course/Item/ItemStats</title>
<path fill="#ffffff" stroke="black" stroke-width="2" d="M469.38,-720C469.38,-720 616,-720 616,-720 622,-720 628,-726 628,-732 628,-732 628,-760 628,-760 628,-766 622,-772 616,-772 616,-772 469.38,-772 469.38,-772 463.38,-772 457.38,-766 457.38,-760 457.38,-760 457.38,-732 457.38,-732 457.38,-726 463.38,-720 469.38,-720"/>
<text text-anchor="middle" x="542.69" y="-759.45" font-family="Helvetica,sans-Serif" font-weight="bold" font-size="9.00">ItemStats</text>
</g>
<g id="clust9" class="cluster">
<title>cluster_src/features/Course/List</title>
<path fill="#ffffff" stroke="black" stroke-width="2" d="M300,-712C300,-712 346,-712 346,-712 352,-712 358,-718 358,-724 358,-724 358,-752 358,-752 358,-758 352,-764 346,-764 346,-764 300,-764 300,-764 294,-764 288,-758 288,-752 288,-752 288,-724 288,-724 288,-718 294,-712 300,-712"/>
<text text-anchor="middle" x="323" y="-751.45" font-family="Helvetica,sans-Serif" font-weight="bold" font-size="9.00">List</text>
</g>
<g id="clust10" class="cluster">
<title>cluster_src/features/Header</title>
<path fill="#ffffff" stroke="black" stroke-width="2" d="M222,-644C222,-644 268,-644 268,-644 274,-644 280,-650 280,-656 280,-656 280,-684 280,-684 280,-690 274,-696 268,-696 268,-696 222,-696 222,-696 216,-696 210,-690 210,-684 210,-684 210,-656 210,-656 210,-650 216,-644 222,-644"/>
<text text-anchor="middle" x="245" y="-683.45" font-family="Helvetica,sans-Serif" font-weight="bold" font-size="9.00">Header</text>
</g>
<g id="clust11" class="cluster">
<title>cluster_src/features/Lesson</title>
<path fill="#ffffff" stroke="black" stroke-width="2" d="M222,-858C222,-858 427.88,-858 427.88,-858 433.88,-858 439.88,-864 439.88,-870 439.88,-870 439.88,-1062 439.88,-1062 439.88,-1068 433.88,-1074 427.88,-1074 427.88,-1074 222,-1074 222,-1074 216,-1074 210,-1068 210,-1062 210,-1062 210,-870 210,-870 210,-864 216,-858 222,-858"/>
<text text-anchor="middle" x="324.94" y="-1061.45" font-family="Helvetica,sans-Serif" font-weight="bold" font-size="9.00">Lesson</text>
</g>
<g id="clust12" class="cluster">
<title>cluster_src/features/Lesson/Info</title>
<path fill="#ffffff" stroke="black" stroke-width="2" d="M300,-936C300,-936 346,-936 346,-936 352,-936 358,-942 358,-948 358,-948 358,-976 358,-976 358,-982 352,-988 346,-988 346,-988 300,-988 300,-988 294,-988 288,-982 288,-976 288,-976 288,-948 288,-948 288,-942 294,-936 300,-936"/>
<text text-anchor="middle" x="323" y="-975.45" font-family="Helvetica,sans-Serif" font-weight="bold" font-size="9.00">Info</text>
</g>
<g id="clust13" class="cluster">
<title>cluster_src/features/Lesson/List</title>
<path fill="#ffffff" stroke="black" stroke-width="2" d="M300,-866C300,-866 346,-866 346,-866 352,-866 358,-872 358,-878 358,-878 358,-906 358,-906 358,-912 352,-918 346,-918 346,-918 300,-918 300,-918 294,-918 288,-912 288,-906 288,-906 288,-878 288,-878 288,-872 294,-866 300,-866"/>
<text text-anchor="middle" x="323" y="-905.45" font-family="Helvetica,sans-Serif" font-weight="bold" font-size="9.00">List</text>
</g>
<g id="clust14" class="cluster">
<title>cluster_src/features/Lesson/Video</title>
<path fill="#ffffff" stroke="black" stroke-width="2" d="M300,-996C300,-996 346,-996 346,-996 352,-996 358,-1002 358,-1008 358,-1008 358,-1036 358,-1036 358,-1042 352,-1048 346,-1048 346,-1048 300,-1048 300,-1048 294,-1048 288,-1042 288,-1036 288,-1036 288,-1008 288,-1008 288,-1002 294,-996 300,-996"/>
<text text-anchor="middle" x="323" y="-1035.45" font-family="Helvetica,sans-Serif" font-weight="bold" font-size="9.00">Video</text>
</g>
<g id="clust15" class="cluster">
<title>cluster_src/processes</title>
<path fill="#ffffff" stroke="black" stroke-width="2" d="M459.88,-370C459.88,-370 524.88,-370 524.88,-370 530.88,-370 536.88,-376 536.88,-382 536.88,-382 536.88,-470 536.88,-470 536.88,-476 530.88,-482 524.88,-482 524.88,-482 459.88,-482 459.88,-482 453.88,-482 447.88,-476 447.88,-470 447.88,-470 447.88,-382 447.88,-382 447.88,-376 453.88,-370 459.88,-370"/>
<text text-anchor="middle" x="492.38" y="-469.45" font-family="Helvetica,sans-Serif" font-weight="bold" font-size="9.00">processes</text>
</g>
<g id="clust16" class="cluster">
<title>cluster_src/shared</title>
<path fill="#ffffff" stroke="black" stroke-width="2" d="M556.88,-16C556.88,-16 1049.5,-16 1049.5,-16 1055.5,-16 1061.5,-22 1061.5,-28 1061.5,-28 1061.5,-616 1061.5,-616 1061.5,-622 1055.5,-628 1049.5,-628 1049.5,-628 556.88,-628 556.88,-628 550.88,-628 544.88,-622 544.88,-616 544.88,-616 544.88,-28 544.88,-28 544.88,-22 550.88,-16 556.88,-16"/>
<text text-anchor="middle" x="803.19" y="-615.45" font-family="Helvetica,sans-Serif" font-weight="bold" font-size="9.00">shared</text>
</g>
<g id="clust18" class="cluster">
<title>cluster_src/shared/config</title>
<path fill="#ffffff" stroke="black" stroke-width="2" d="M868.75,-400C868.75,-400 1026.75,-400 1026.75,-400 1032.75,-400 1038.75,-406 1038.75,-412 1038.75,-412 1038.75,-440 1038.75,-440 1038.75,-446 1032.75,-452 1026.75,-452 1026.75,-452 868.75,-452 868.75,-452 862.75,-452 856.75,-446 856.75,-440 856.75,-440 856.75,-412 856.75,-412 856.75,-406 862.75,-400 868.75,-400"/>
<text text-anchor="middle" x="947.75" y="-439.45" font-family="Helvetica,sans-Serif" font-weight="bold" font-size="9.00">config</text>
</g>
<g id="clust17" class="cluster">
<title>cluster_src/shared/api</title>
<path fill="#ffffff" stroke="black" stroke-width="2" d="M568.75,-400C568.75,-400 809.25,-400 809.25,-400 815.25,-400 821.25,-406 821.25,-412 821.25,-412 821.25,-470 821.25,-470 821.25,-476 815.25,-482 809.25,-482 809.25,-482 568.75,-482 568.75,-482 562.75,-482 556.75,-476 556.75,-470 556.75,-470 556.75,-412 556.75,-412 556.75,-406 562.75,-400 568.75,-400"/>
<text text-anchor="middle" x="689" y="-469.45" font-family="Helvetica,sans-Serif" font-weight="bold" font-size="9.00">api</text>
</g>
<g id="clust19" class="cluster">
<title>cluster_src/shared/lib</title>
<path fill="#ffffff" stroke="black" stroke-width="2" d="M868.75,-460C868.75,-460 1041.5,-460 1041.5,-460 1047.5,-460 1053.5,-466 1053.5,-472 1053.5,-472 1053.5,-590 1053.5,-590 1053.5,-596 1047.5,-602 1041.5,-602 1041.5,-602 868.75,-602 868.75,-602 862.75,-602 856.75,-596 856.75,-590 856.75,-590 856.75,-472 856.75,-472 856.75,-466 862.75,-460 868.75,-460"/>
<text text-anchor="middle" x="955.12" y="-589.45" font-family="Helvetica,sans-Serif" font-weight="bold" font-size="9.00">lib</text>
</g>
<g id="clust20" class="cluster">
<title>cluster_src/shared/ui</title>
<path fill="#ffffff" stroke="black" stroke-width="2" d="M564.88,-24C564.88,-24 942,-24 942,-24 948,-24 954,-30 954,-36 954,-36 954,-380 954,-380 954,-386 948,-392 942,-392 942,-392 564.88,-392 564.88,-392 558.88,-392 552.88,-386 552.88,-380 552.88,-380 552.88,-36 552.88,-36 552.88,-30 558.88,-24 564.88,-24"/>
<text text-anchor="middle" x="753.44" y="-379.45" font-family="Helvetica,sans-Serif" font-weight="bold" font-size="9.00">ui</text>
</g>
<g id="clust21" class="cluster">
<title>cluster_src/shared/ui/Card</title>
<path fill="#ffffff" stroke="black" stroke-width="2" d="M672,-32C672,-32 934,-32 934,-32 940,-32 946,-38 946,-44 946,-44 946,-162 946,-162 946,-168 940,-174 934,-174 934,-174 672,-174 672,-174 666,-174 660,-168 660,-162 660,-162 660,-44 660,-44 660,-38 666,-32 672,-32"/>
<text text-anchor="middle" x="803" y="-161.45" font-family="Helvetica,sans-Serif" font-weight="bold" font-size="9.00">Card</text>
</g>
<g id="clust22" class="cluster">
<title>cluster_src/shared/ui/ListGroup</title>
<path fill="#ffffff" stroke="black" stroke-width="2" d="M672,-288C672,-288 825.5,-288 825.5,-288 831.5,-288 837.5,-294 837.5,-300 837.5,-300 837.5,-328 837.5,-328 837.5,-334 831.5,-340 825.5,-340 825.5,-340 672,-340 672,-340 666,-340 660,-334 660,-328 660,-328 660,-300 660,-300 660,-294 666,-288 672,-288"/>
<text text-anchor="middle" x="748.75" y="-327.45" font-family="Helvetica,sans-Serif" font-weight="bold" font-size="9.00">ListGroup</text>
</g>
<g id="clust23" class="cluster">
<title>cluster_src/shared/ui/Navbar</title>
<path fill="#ffffff" stroke="black" stroke-width="2" d="M672,-188C672,-188 824.38,-188 824.38,-188 830.38,-188 836.38,-194 836.38,-200 836.38,-200 836.38,-228 836.38,-228 836.38,-234 830.38,-240 824.38,-240 824.38,-240 672,-240 672,-240 666,-240 660,-234 660,-228 660,-228 660,-200 660,-200 660,-194 666,-188 672,-188"/>
<text text-anchor="middle" x="748.19" y="-227.45" font-family="Helvetica,sans-Serif" font-weight="bold" font-size="9.00">Navbar</text>
</g>
<!-- src/app/course/[id]/Single.tsx -->
<g id="node1" class="node">
<title>src/app/course/[id]/Single.tsx</title>
<g id="a_node1"><a xlink:href="src/app/course/[id]/Single.tsx" xlink:title="Single.tsx">
<path fill="#bbfeff" stroke="black" d="M164.08,-547.88C164.08,-547.88 120.17,-547.88 120.17,-547.88 117.21,-547.88 114.25,-544.92 114.25,-541.96 114.25,-541.96 114.25,-536.04 114.25,-536.04 114.25,-533.08 117.21,-530.12 120.17,-530.12 120.17,-530.12 164.08,-530.12 164.08,-530.12 167.04,-530.12 170,-533.08 170,-536.04 170,-536.04 170,-541.96 170,-541.96 170,-544.92 167.04,-547.88 164.08,-547.88"/>
<text text-anchor="start" x="122.25" y="-535.33" font-family="Helvetica,sans-Serif" font-size="9.00">Single.tsx</text>
</a>
</g>
</g>
<!-- src/features/Lesson/index.tsx -->
<g id="node2" class="node">
<title>src/features/Lesson/index.tsx</title>
<g id="a_node2"><a xlink:href="src/features/Lesson/index.tsx" xlink:title="index.tsx">
<path fill="#bbfeff" stroke="black" d="M266.08,-935.88C266.08,-935.88 223.92,-935.88 223.92,-935.88 220.96,-935.88 218,-932.92 218,-929.96 218,-929.96 218,-924.04 218,-924.04 218,-921.08 220.96,-918.12 223.92,-918.12 223.92,-918.12 266.08,-918.12 266.08,-918.12 269.04,-918.12 272,-921.08 272,-924.04 272,-924.04 272,-929.96 272,-929.96 272,-932.92 269.04,-935.88 266.08,-935.88"/>
<text text-anchor="start" x="227" y="-923.33" font-family="Helvetica,sans-Serif" font-size="9.00">index.tsx</text>
</a>
</g>
</g>
<!-- src/app/course/[id]/Single.tsx&#45;&gt;src/features/Lesson/index.tsx -->
<g id="edge1" class="edge">
<title>src/app/course/[id]/Single.tsx&#45;&gt;src/features/Lesson/index.tsx</title>
<path fill="none" stroke="#000000" stroke-width="2" stroke-opacity="0.200000" d="M143.74,-548.29C146.55,-586.83 159.78,-737.63 202,-853 209.71,-874.07 223.05,-896.18 232.63,-910.69"/>
<polygon fill="#000000" fill-opacity="0.200000" stroke="#000000" stroke-width="2" stroke-opacity="0.200000" points="231.41,-912.11 236.51,-915.91 234.89,-909.76 231.41,-912.11"/>
</g>
<!-- src/shared/ui/index.ts -->
<g id="node3" class="node">
<title>src/shared/ui/index.ts</title>
<g id="a_node3"><a xlink:href="src/shared/ui/index.ts" xlink:title="index.ts">
<path fill="#ddfeff" stroke="black" d="M612.83,-365.88C612.83,-365.88 570.67,-365.88 570.67,-365.88 567.71,-365.88 564.75,-362.92 564.75,-359.96 564.75,-359.96 564.75,-354.04 564.75,-354.04 564.75,-351.08 567.71,-348.12 570.67,-348.12 570.67,-348.12 612.83,-348.12 612.83,-348.12 615.79,-348.12 618.75,-351.08 618.75,-354.04 618.75,-354.04 618.75,-359.96 618.75,-359.96 618.75,-362.92 615.79,-365.88 612.83,-365.88"/>
<text text-anchor="start" x="576" y="-353.32" font-family="Helvetica,sans-Serif" font-size="9.00">index.ts</text>
</a>
</g>
</g>
<!-- src/app/course/[id]/Single.tsx&#45;&gt;src/shared/ui/index.ts -->
<g id="edge2" class="edge">
<title>src/app/course/[id]/Single.tsx&#45;&gt;src/shared/ui/index.ts</title>
<path fill="none" stroke="#000000" stroke-width="2" stroke-opacity="0.200000" d="M170.31,-534.55C205.3,-529.22 268,-521 322,-521 322,-521 322,-521 403.5,-521 433.26,-521 516.03,-530.24 536.88,-509 554.36,-491.19 533.74,-419.33 544.88,-397 549.96,-386.8 558.9,-378.1 567.54,-371.44"/>
<polygon fill="#000000" fill-opacity="0.200000" stroke="#000000" stroke-width="2" stroke-opacity="0.200000" points="568.99,-372.55 572.64,-367.34 566.54,-369.14 568.99,-372.55"/>
</g>
<!-- src/features/Lesson/Info/index.tsx -->
<g id="node20" class="node">
<title>src/features/Lesson/Info/index.tsx</title>
<g id="a_node20"><a xlink:href="src/features/Lesson/Info/index.tsx" xlink:title="index.tsx">
<path fill="#bbfeff" stroke="black" d="M344.08,-961.88C344.08,-961.88 301.92,-961.88 301.92,-961.88 298.96,-961.88 296,-958.92 296,-955.96 296,-955.96 296,-950.04 296,-950.04 296,-947.08 298.96,-944.12 301.92,-944.12 301.92,-944.12 344.08,-944.12 344.08,-944.12 347.04,-944.12 350,-947.08 350,-950.04 350,-950.04 350,-955.96 350,-955.96 350,-958.92 347.04,-961.88 344.08,-961.88"/>
<text text-anchor="start" x="305" y="-949.33" font-family="Helvetica,sans-Serif" font-size="9.00">index.tsx</text>
</a>
</g>
</g>
<!-- src/features/Lesson/index.tsx&#45;&gt;src/features/Lesson/Info/index.tsx -->
<g id="edge33" class="edge">
<title>src/features/Lesson/index.tsx&#45;&gt;src/features/Lesson/Info/index.tsx</title>
<path fill="none" stroke="#000000" stroke-width="2" stroke-opacity="0.200000" d="M272.15,-935.95C277,-937.6 282.12,-939.36 287.17,-941.09"/>
<polygon fill="#000000" fill-opacity="0.200000" stroke="#000000" stroke-width="2" stroke-opacity="0.200000" points="287.18,-943.99 293.54,-943.95 288.54,-940.02 287.18,-943.99"/>
</g>
<!-- src/features/Lesson/List/index.tsx -->
<g id="node21" class="node">
<title>src/features/Lesson/List/index.tsx</title>
<g id="a_node21"><a xlink:href="src/features/Lesson/List/index.tsx" xlink:title="index.tsx">
<path fill="#bbfeff" stroke="black" d="M344.08,-891.88C344.08,-891.88 301.92,-891.88 301.92,-891.88 298.96,-891.88 296,-888.92 296,-885.96 296,-885.96 296,-880.04 296,-880.04 296,-877.08 298.96,-874.12 301.92,-874.12 301.92,-874.12 344.08,-874.12 344.08,-874.12 347.04,-874.12 350,-877.08 350,-880.04 350,-880.04 350,-885.96 350,-885.96 350,-888.92 347.04,-891.88 344.08,-891.88"/>
<text text-anchor="start" x="305" y="-879.33" font-family="Helvetica,sans-Serif" font-size="9.00">index.tsx</text>
</a>
</g>
</g>
<!-- src/features/Lesson/index.tsx&#45;&gt;src/features/Lesson/List/index.tsx -->
<g id="edge34" class="edge">
<title>src/features/Lesson/index.tsx&#45;&gt;src/features/Lesson/List/index.tsx</title>
<path fill="none" stroke="#000000" stroke-width="2" stroke-opacity="0.200000" d="M256.85,-917.71C263.87,-911.98 273.49,-904.62 288.1,-896.36"/>
<polygon fill="#000000" fill-opacity="0.200000" stroke="#000000" stroke-width="2" stroke-opacity="0.200000" points="289.42,-897.95 293.69,-893.23 287.41,-894.26 289.42,-897.95"/>
</g>
<!-- src/features/Lesson/context.tsx -->
<g id="node22" class="node">
<title>src/features/Lesson/context.tsx</title>
<g id="a_node22"><a xlink:href="src/features/Lesson/context.tsx" xlink:title="context.tsx">
<path fill="#bbfeff" stroke="black" d="M425.96,-887.88C425.96,-887.88 379.04,-887.88 379.04,-887.88 376.08,-887.88 373.12,-884.92 373.12,-881.96 373.12,-881.96 373.12,-876.04 373.12,-876.04 373.12,-873.08 376.08,-870.12 379.04,-870.12 379.04,-870.12 425.96,-870.12 425.96,-870.12 428.92,-870.12 431.88,-873.08 431.88,-876.04 431.88,-876.04 431.88,-881.96 431.88,-881.96 431.88,-884.92 428.92,-887.88 425.96,-887.88"/>
<text text-anchor="start" x="381.12" y="-875.33" font-family="Helvetica,sans-Serif" font-size="9.00">context.tsx</text>
</a>
</g>
</g>
<!-- src/features/Lesson/index.tsx&#45;&gt;src/features/Lesson/context.tsx -->
<g id="edge32" class="edge">
<title>src/features/Lesson/index.tsx&#45;&gt;src/features/Lesson/context.tsx</title>
<path fill="none" stroke="#000000" stroke-width="2" stroke-opacity="0.200000" d="M272.31,-928.97C301.2,-930.55 345.2,-931.1 358,-921 366.21,-914.52 360.46,-906.53 367.2,-895.3"/>
<polygon fill="#000000" fill-opacity="0.200000" stroke="#000000" stroke-width="2" stroke-opacity="0.200000" points="369.7,-896.3 371.82,-890.31 366.43,-893.67 369.7,-896.3"/>
</g>
<!-- src/features/Lesson/Video/index.tsx -->
<g id="node23" class="node">
<title>src/features/Lesson/Video/index.tsx</title>
<g id="a_node23"><a xlink:href="src/features/Lesson/Video/index.tsx" xlink:title="index.tsx">
<path fill="#bbfeff" stroke="black" d="M344.08,-1021.88C344.08,-1021.88 301.92,-1021.88 301.92,-1021.88 298.96,-1021.88 296,-1018.92 296,-1015.96 296,-1015.96 296,-1010.04 296,-1010.04 296,-1007.08 298.96,-1004.12 301.92,-1004.12 301.92,-1004.12 344.08,-1004.12 344.08,-1004.12 347.04,-1004.12 350,-1007.08 350,-1010.04 350,-1010.04 350,-1015.96 350,-1015.96 350,-1018.92 347.04,-1021.88 344.08,-1021.88"/>
<text text-anchor="start" x="305" y="-1009.33" font-family="Helvetica,sans-Serif" font-size="9.00">index.tsx</text>
</a>
</g>
</g>
<!-- src/features/Lesson/index.tsx&#45;&gt;src/features/Lesson/Video/index.tsx -->
<g id="edge35" class="edge">
<title>src/features/Lesson/index.tsx&#45;&gt;src/features/Lesson/Video/index.tsx</title>
<path fill="none" stroke="#000000" stroke-width="2" stroke-opacity="0.200000" d="M250.42,-936.11C257.16,-949.35 271.03,-974.14 288,-991 290.83,-993.81 294.07,-996.45 297.4,-998.86"/>
<polygon fill="#000000" fill-opacity="0.200000" stroke="#000000" stroke-width="2" stroke-opacity="0.200000" points="296.56,-1001.17 302.72,-1002.75 298.9,-997.67 296.56,-1001.17"/>
</g>
<!-- src/shared/ui/Badge.tsx -->
<g id="node37" class="node">
<title>src/shared/ui/Badge.tsx</title>
<g id="a_node37"><a xlink:href="src/shared/ui/Badge.tsx" xlink:title="Badge.tsx">
<path fill="#bbfeff" stroke="black" d="M808.58,-272.88C808.58,-272.88 763.92,-272.88 763.92,-272.88 760.96,-272.88 758,-269.92 758,-266.96 758,-266.96 758,-261.04 758,-261.04 758,-258.08 760.96,-255.12 763.92,-255.12 763.92,-255.12 808.58,-255.12 808.58,-255.12 811.54,-255.12 814.5,-258.08 814.5,-261.04 814.5,-261.04 814.5,-266.96 814.5,-266.96 814.5,-269.92 811.54,-272.88 808.58,-272.88"/>
<text text-anchor="start" x="766" y="-260.32" font-family="Helvetica,sans-Serif" font-size="9.00">Badge.tsx</text>
</a>
</g>
</g>
<!-- src/shared/ui/index.ts&#45;&gt;src/shared/ui/Badge.tsx -->
<g id="edge66" class="edge">
<title>src/shared/ui/index.ts&#45;&gt;src/shared/ui/Badge.tsx</title>
<path fill="none" stroke="#000000" stroke-width="2" stroke-opacity="0.200000" d="M619.15,-356.67C630.85,-355.1 643.78,-351.16 652,-342 669.08,-322.96 642.15,-303.33 660,-285 661.58,-283.38 712.74,-275.19 749.18,-269.53"/>
<polygon fill="#000000" fill-opacity="0.200000" stroke="#000000" stroke-width="2" stroke-opacity="0.200000" points="750.01,-271.21 755.62,-268.22 749.37,-267.06 750.01,-271.21"/>
</g>
<!-- src/shared/ui/Card/index.tsx -->
<g id="node44" class="node">
<title>src/shared/ui/Card/index.tsx</title>
<g id="a_node44"><a xlink:href="src/shared/ui/Card/index.tsx" xlink:title="index.tsx">
<path fill="#bbfeff" stroke="black" d="M716.08,-132.88C716.08,-132.88 673.92,-132.88 673.92,-132.88 670.96,-132.88 668,-129.92 668,-126.96 668,-126.96 668,-121.04 668,-121.04 668,-118.08 670.96,-115.12 673.92,-115.12 673.92,-115.12 716.08,-115.12 716.08,-115.12 719.04,-115.12 722,-118.08 722,-121.04 722,-121.04 722,-126.96 722,-126.96 722,-129.92 719.04,-132.88 716.08,-132.88"/>
<text text-anchor="start" x="677" y="-120.33" font-family="Helvetica,sans-Serif" font-size="9.00">index.tsx</text>
</a>
</g>
</g>
<!-- src/shared/ui/index.ts&#45;&gt;src/shared/ui/Card/index.tsx -->
<g id="edge67" class="edge">
<title>src/shared/ui/index.ts&#45;&gt;src/shared/ui/Card/index.tsx</title>
<path fill="none" stroke="#000000" stroke-width="2" stroke-opacity="0.200000" d="M619.22,-357.03C631.07,-355.56 644.13,-351.6 652,-342 663.08,-328.49 655.18,-201.79 660,-185 664.62,-168.9 674.16,-152.42 681.95,-140.65"/>
<polygon fill="#000000" fill-opacity="0.200000" stroke="#000000" stroke-width="2" stroke-opacity="0.200000" points="684.32,-141.45 685.99,-135.32 680.86,-139.07 684.32,-141.45"/>
</g>
<!-- src/shared/ui/Container.tsx -->
<g id="node45" class="node">
<title>src/shared/ui/Container.tsx</title>
<g id="a_node45"><a xlink:href="src/shared/ui/Container.tsx" xlink:title="Container.tsx">
<path fill="#bbfeff" stroke="black" d="M724.08,-265.88C724.08,-265.88 665.92,-265.88 665.92,-265.88 662.96,-265.88 660,-262.92 660,-259.96 660,-259.96 660,-254.04 660,-254.04 660,-251.08 662.96,-248.12 665.92,-248.12 665.92,-248.12 724.08,-248.12 724.08,-248.12 727.04,-248.12 730,-251.08 730,-254.04 730,-254.04 730,-259.96 730,-259.96 730,-262.92 727.04,-265.88 724.08,-265.88"/>
<text text-anchor="start" x="668" y="-253.32" font-family="Helvetica,sans-Serif" font-size="9.00">Container.tsx</text>
</a>
</g>
</g>
<!-- src/shared/ui/index.ts&#45;&gt;src/shared/ui/Container.tsx -->
<g id="edge68" class="edge">
<title>src/shared/ui/index.ts&#45;&gt;src/shared/ui/Container.tsx</title>
<path fill="none" stroke="#000000" stroke-width="2" stroke-opacity="0.200000" d="M619.24,-356.74C630.95,-355.19 643.88,-351.25 652,-342 671.79,-319.47 643.03,-299.73 660,-275 660.76,-273.9 661.6,-272.86 662.52,-271.88"/>
<polygon fill="#000000" fill-opacity="0.200000" stroke="#000000" stroke-width="2" stroke-opacity="0.200000" points="664.09,-272.67 667.39,-267.24 661.42,-269.42 664.09,-272.67"/>
</g>
<!-- src/shared/ui/Layout.tsx -->
<g id="node46" class="node">
<title>src/shared/ui/Layout.tsx</title>
<g id="a_node46"><a xlink:href="src/shared/ui/Layout.tsx" xlink:title="Layout.tsx">
<path fill="#bbfeff" stroke="black" d="M808.96,-365.88C808.96,-365.88 763.54,-365.88 763.54,-365.88 760.58,-365.88 757.62,-362.92 757.62,-359.96 757.62,-359.96 757.62,-354.04 757.62,-354.04 757.62,-351.08 760.58,-348.12 763.54,-348.12 763.54,-348.12 808.96,-348.12 808.96,-348.12 811.92,-348.12 814.88,-351.08 814.88,-354.04 814.88,-354.04 814.88,-359.96 814.88,-359.96 814.88,-362.92 811.92,-365.88 808.96,-365.88"/>
<text text-anchor="start" x="765.62" y="-353.32" font-family="Helvetica,sans-Serif" font-size="9.00">Layout.tsx</text>
</a>
</g>
</g>
<!-- src/shared/ui/index.ts&#45;&gt;src/shared/ui/Layout.tsx -->
<g id="edge69" class="edge">
<title>src/shared/ui/index.ts&#45;&gt;src/shared/ui/Layout.tsx</title>
<path fill="none" stroke="#000000" stroke-width="2" stroke-opacity="0.200000" d="M619.11,-357C652.67,-357 710.81,-357 748.65,-357"/>
<polygon fill="#000000" fill-opacity="0.200000" stroke="#000000" stroke-width="2" stroke-opacity="0.200000" points="748.34,-359.1 754.34,-357 748.34,-354.9 748.34,-359.1"/>
</g>
<!-- src/shared/ui/ListGroup/index.tsx -->
<g id="node48" class="node">
<title>src/shared/ui/ListGroup/index.tsx</title>
<g id="a_node48"><a xlink:href="src/shared/ui/ListGroup/index.tsx" xlink:title="index.tsx">
<path fill="#bbfeff" stroke="black" d="M716.08,-313.88C716.08,-313.88 673.92,-313.88 673.92,-313.88 670.96,-313.88 668,-310.92 668,-307.96 668,-307.96 668,-302.04 668,-302.04 668,-299.08 670.96,-296.12 673.92,-296.12 673.92,-296.12 716.08,-296.12 716.08,-296.12 719.04,-296.12 722,-299.08 722,-302.04 722,-302.04 722,-307.96 722,-307.96 722,-310.92 719.04,-313.88 716.08,-313.88"/>
<text text-anchor="start" x="677" y="-301.32" font-family="Helvetica,sans-Serif" font-size="9.00">index.tsx</text>
</a>
</g>
</g>
<!-- src/shared/ui/index.ts&#45;&gt;src/shared/ui/ListGroup/index.tsx -->
<g id="edge70" class="edge">
<title>src/shared/ui/index.ts&#45;&gt;src/shared/ui/ListGroup/index.tsx</title>
<path fill="none" stroke="#000000" stroke-width="2" stroke-opacity="0.200000" d="M619.03,-355.87C630.42,-354.11 643.14,-350.23 652,-342 660.24,-334.35 652.22,-326.12 660,-318 660.14,-317.86 660.27,-317.72 660.41,-317.58"/>
<polygon fill="#000000" fill-opacity="0.200000" stroke="#000000" stroke-width="2" stroke-opacity="0.200000" points="662.04,-318.52 665.63,-313.27 659.55,-315.13 662.04,-318.52"/>
</g>
<!-- src/shared/ui/Navbar/index.tsx -->
<g id="node50" class="node">
<title>src/shared/ui/Navbar/index.tsx</title>
<g id="a_node50"><a xlink:href="src/shared/ui/Navbar/index.tsx" xlink:title="index.tsx">
<path fill="#bbfeff" stroke="black" d="M716.08,-213.88C716.08,-213.88 673.92,-213.88 673.92,-213.88 670.96,-213.88 668,-210.92 668,-207.96 668,-207.96 668,-202.04 668,-202.04 668,-199.08 670.96,-196.12 673.92,-196.12 673.92,-196.12 716.08,-196.12 716.08,-196.12 719.04,-196.12 722,-199.08 722,-202.04 722,-202.04 722,-207.96 722,-207.96 722,-210.92 719.04,-213.88 716.08,-213.88"/>
<text text-anchor="start" x="677" y="-201.32" font-family="Helvetica,sans-Serif" font-size="9.00">index.tsx</text>
</a>
</g>
</g>
<!-- src/shared/ui/index.ts&#45;&gt;src/shared/ui/Navbar/index.tsx -->
<g id="edge71" class="edge">
<title>src/shared/ui/index.ts&#45;&gt;src/shared/ui/Navbar/index.tsx</title>
<path fill="none" stroke="#000000" stroke-width="2" stroke-opacity="0.200000" d="M619.16,-356.98C631,-355.5 644.06,-351.55 652,-342 669.65,-320.77 643.62,-240.23 660,-218 660.25,-217.66 660.52,-217.32 660.79,-217"/>
<polygon fill="#000000" fill-opacity="0.200000" stroke="#000000" stroke-width="2" stroke-opacity="0.200000" points="662.36,-217.8 665.68,-212.38 659.7,-214.54 662.36,-217.8"/>
</g>
<!-- src/app/course/[id]/page.tsx -->
<g id="node4" class="node">
<title>src/app/course/[id]/page.tsx</title>
<g id="a_node4"><a xlink:href="src/app/course/[id]/page.tsx" xlink:title="page.tsx">
<path fill="#bbfeff" stroke="black" d="M88.08,-547.88C88.08,-547.88 45.92,-547.88 45.92,-547.88 42.96,-547.88 40,-544.92 40,-541.96 40,-541.96 40,-536.04 40,-536.04 40,-533.08 42.96,-530.12 45.92,-530.12 45.92,-530.12 88.08,-530.12 88.08,-530.12 91.04,-530.12 94,-533.08 94,-536.04 94,-536.04 94,-541.96 94,-541.96 94,-544.92 91.04,-547.88 88.08,-547.88"/>
<text text-anchor="start" x="49.75" y="-535.33" font-family="Helvetica,sans-Serif" font-size="9.00">page.tsx</text>
</a>
</g>
</g>
<!-- src/app/course/[id]/page.tsx&#45;&gt;src/app/course/[id]/Single.tsx -->
<g id="edge3" class="edge">
<title>src/app/course/[id]/page.tsx&#45;&gt;src/app/course/[id]/Single.tsx</title>
<path fill="none" stroke="#000000" stroke-width="2" stroke-opacity="0.200000" d="M94.4,-539C97.89,-539 101.51,-539 105.13,-539"/>
<polygon fill="#000000" fill-opacity="0.200000" stroke="#000000" stroke-width="2" stroke-opacity="0.200000" points="105.03,-541.1 111.03,-539 105.03,-536.9 105.03,-541.1"/>
</g>
<!-- src/processes/course.ts -->
<g id="node5" class="node">
<title>src/processes/course.ts</title>
<g id="a_node5"><a xlink:href="src/processes/course.ts" xlink:title="course.ts">
<path fill="#ddfeff" stroke="black" d="M513.46,-395.88C513.46,-395.88 471.29,-395.88 471.29,-395.88 468.33,-395.88 465.38,-392.92 465.38,-389.96 465.38,-389.96 465.38,-384.04 465.38,-384.04 465.38,-381.08 468.33,-378.12 471.29,-378.12 471.29,-378.12 513.46,-378.12 513.46,-378.12 516.42,-378.12 519.38,-381.08 519.38,-384.04 519.38,-384.04 519.38,-389.96 519.38,-389.96 519.38,-392.92 516.42,-395.88 513.46,-395.88"/>
<text text-anchor="start" x="474" y="-383.32" font-family="Helvetica,sans-Serif" font-size="9.00">course.ts</text>
</a>
</g>
</g>
<!-- src/app/course/[id]/page.tsx&#45;&gt;src/processes/course.ts -->
<g id="edge4" class="edge">
<title>src/app/course/[id]/page.tsx&#45;&gt;src/processes/course.ts</title>
<path fill="none" stroke="#000000" stroke-width="2" stroke-opacity="0.200000" d="M94.49,-531.79C97.05,-530.23 99.39,-528.32 101.25,-526 124.63,-496.89 86.83,-468.35 114.25,-443 135.48,-423.37 215.08,-433 244,-433 244,-433 244,-433 324,-433 349.74,-433 415.67,-412.51 456.68,-398.88"/>
<polygon fill="#000000" fill-opacity="0.200000" stroke="#000000" stroke-width="2" stroke-opacity="0.200000" points="458.01,-399.98 463.03,-396.09 456.68,-396 458.01,-399.98"/>
</g>
<!-- src/shared/api/index.ts -->
<g id="node28" class="node">
<title>src/shared/api/index.ts</title>
<g id="a_node28"><a xlink:href="src/shared/api/index.ts" xlink:title="index.ts">
<path fill="#ddfeff" stroke="black" d="M612.83,-455.88C612.83,-455.88 570.67,-455.88 570.67,-455.88 567.71,-455.88 564.75,-452.92 564.75,-449.96 564.75,-449.96 564.75,-444.04 564.75,-444.04 564.75,-441.08 567.71,-438.12 570.67,-438.12 570.67,-438.12 612.83,-438.12 612.83,-438.12 615.79,-438.12 618.75,-441.08 618.75,-444.04 618.75,-444.04 618.75,-449.96 618.75,-449.96 618.75,-452.92 615.79,-455.88 612.83,-455.88"/>
<text text-anchor="start" x="576" y="-443.32" font-family="Helvetica,sans-Serif" font-size="9.00">index.ts</text>
</a>
</g>
</g>
<!-- src/processes/course.ts&#45;&gt;src/shared/api/index.ts -->
<g id="edge38" class="edge">
<title>src/processes/course.ts&#45;&gt;src/shared/api/index.ts</title>
<path fill="none" stroke="#000000" stroke-width="2" stroke-opacity="0.200000" d="M519.71,-391.56C526.05,-393.79 532.3,-397.09 536.88,-402 546.28,-412.1 535.39,-421.98 544.88,-432 548.03,-435.34 551.94,-437.93 556.14,-439.95"/>
<polygon fill="#000000" fill-opacity="0.200000" stroke="#000000" stroke-width="2" stroke-opacity="0.200000" points="556.08,-441.96 562.44,-442.17 557.6,-438.04 556.08,-441.96"/>
</g>
<!-- src/app/layout.tsx -->
<g id="node6" class="node">
<title>src/app/layout.tsx</title>
<g id="a_node6"><a xlink:href="src/app/layout.tsx" xlink:title="layout.tsx">
<path fill="#bbfeff" stroke="black" d="M88.21,-685.88C88.21,-685.88 45.79,-685.88 45.79,-685.88 42.83,-685.88 39.88,-682.92 39.88,-679.96 39.88,-679.96 39.88,-674.04 39.88,-674.04 39.88,-671.08 42.83,-668.12 45.79,-668.12 45.79,-668.12 88.21,-668.12 88.21,-668.12 91.17,-668.12 94.12,-671.08 94.12,-674.04 94.12,-674.04 94.12,-679.96 94.12,-679.96 94.12,-682.92 91.17,-685.88 88.21,-685.88"/>
<text text-anchor="start" x="47.88" y="-673.33" font-family="Helvetica,sans-Serif" font-size="9.00">layout.tsx</text>
</a>
</g>
</g>
<!-- src/features/Header/index.tsx -->
<g id="node7" class="node">
<title>src/features/Header/index.tsx</title>
<g id="a_node7"><a xlink:href="src/features/Header/index.tsx" xlink:title="index.tsx">
<path fill="#bbfeff" stroke="black" d="M266.08,-669.88C266.08,-669.88 223.92,-669.88 223.92,-669.88 220.96,-669.88 218,-666.92 218,-663.96 218,-663.96 218,-658.04 218,-658.04 218,-655.08 220.96,-652.12 223.92,-652.12 223.92,-652.12 266.08,-652.12 266.08,-652.12 269.04,-652.12 272,-655.08 272,-658.04 272,-658.04 272,-663.96 272,-663.96 272,-666.92 269.04,-669.88 266.08,-669.88"/>
<text text-anchor="start" x="227" y="-657.33" font-family="Helvetica,sans-Serif" font-size="9.00">index.tsx</text>
</a>
</g>
</g>
<!-- src/app/layout.tsx&#45;&gt;src/features/Header/index.tsx -->
<g id="edge5" class="edge">
<title>src/app/layout.tsx&#45;&gt;src/features/Header/index.tsx</title>
<path fill="none" stroke="#000000" stroke-width="2" stroke-opacity="0.200000" d="M94.35,-674.6C124.89,-671.83 175.36,-667.24 209.13,-664.17"/>
<polygon fill="#000000" fill-opacity="0.200000" stroke="#000000" stroke-width="2" stroke-opacity="0.200000" points="208.97,-666.02 214.76,-663.39 208.59,-661.84 208.97,-666.02"/>
</g>
<!-- src/shared/ui/global.scss -->
<g id="node8" class="node">
<title>src/shared/ui/global.scss</title>
<g id="a_node8"><a xlink:href="src/shared/ui/global.scss" xlink:title="global.scss">
<path fill="#ffffcc" stroke="black" d="M616.71,-335.88C616.71,-335.88 566.79,-335.88 566.79,-335.88 563.83,-335.88 560.88,-332.92 560.88,-329.96 560.88,-329.96 560.88,-324.04 560.88,-324.04 560.88,-321.08 563.83,-318.12 566.79,-318.12 566.79,-318.12 616.71,-318.12 616.71,-318.12 619.67,-318.12 622.62,-321.08 622.62,-324.04 622.62,-324.04 622.62,-329.96 622.62,-329.96 622.62,-332.92 619.67,-335.88 616.71,-335.88"/>
<text text-anchor="start" x="568.88" y="-323.32" font-family="Helvetica,sans-Serif" font-size="9.00">global.scss</text>
</a>
</g>
</g>
<!-- src/app/layout.tsx&#45;&gt;src/shared/ui/global.scss -->
<g id="edge6" class="edge">
<title>src/app/layout.tsx&#45;&gt;src/shared/ui/global.scss</title>
<path fill="none" stroke="#000000" stroke-width="2" stroke-opacity="0.200000" d="M94.37,-668.5C97.03,-666.72 99.41,-664.58 101.25,-662 119.76,-636.01 91.88,-541.75 114.25,-519 154.92,-477.64 186,-505 244,-505 244,-505 244,-505 403.5,-505 437,-505 526.71,-496.21 536.88,-485 558.26,-461.42 525.48,-367.23 544.88,-342 547.05,-339.17 549.78,-336.86 552.81,-334.98"/>
<polygon fill="#000000" fill-opacity="0.200000" stroke="#000000" stroke-width="2" stroke-opacity="0.200000" points="554.32,-336.64 558.83,-332.16 552.51,-332.84 554.32,-336.64"/>
</g>
<!-- src/features/Header/index.tsx&#45;&gt;src/shared/ui/index.ts -->
<g id="edge21" class="edge">
<title>src/features/Header/index.tsx&#45;&gt;src/shared/ui/index.ts</title>
<path fill="none" stroke="#000000" stroke-width="2" stroke-opacity="0.200000" d="M272.2,-652.58C337.54,-631.03 504.71,-572.23 536.88,-525 552.92,-501.44 532.27,-422.56 544.88,-397 549.91,-386.78 558.84,-378.08 567.5,-371.42"/>
<polygon fill="#000000" fill-opacity="0.200000" stroke="#000000" stroke-width="2" stroke-opacity="0.200000" points="568.95,-372.53 572.61,-367.32 566.51,-369.11 568.95,-372.53"/>
</g>
<!-- src/app/loading.tsx -->
<g id="node9" class="node">
<title>src/app/loading.tsx</title>
<g id="a_node9"><a xlink:href="src/app/loading.tsx" xlink:title="no&#45;orphans">
<path fill="#ccffcc" stroke="orange" d="M91.21,-625.88C91.21,-625.88 42.79,-625.88 42.79,-625.88 39.83,-625.88 36.88,-622.92 36.88,-619.96 36.88,-619.96 36.88,-614.04 36.88,-614.04 36.88,-611.08 39.83,-608.12 42.79,-608.12 42.79,-608.12 91.21,-608.12 91.21,-608.12 94.17,-608.12 97.12,-611.08 97.12,-614.04 97.12,-614.04 97.12,-619.96 97.12,-619.96 97.12,-622.92 94.17,-625.88 91.21,-625.88"/>
<text text-anchor="start" x="44.88" y="-613.33" font-family="Helvetica,sans-Serif" font-size="9.00" fill="orange">loading.tsx</text>
</a>
</g>
</g>
<!-- src/app/not&#45;found.tsx -->
<g id="node10" class="node">
<title>src/app/not&#45;found.tsx</title>
<g id="a_node10"><a xlink:href="src/app/not-found.tsx" xlink:title="not&#45;found.tsx">
<path fill="#bbfeff" stroke="black" d="M95.33,-505.88C95.33,-505.88 38.67,-505.88 38.67,-505.88 35.71,-505.88 32.75,-502.92 32.75,-499.96 32.75,-499.96 32.75,-494.04 32.75,-494.04 32.75,-491.08 35.71,-488.12 38.67,-488.12 38.67,-488.12 95.33,-488.12 95.33,-488.12 98.29,-488.12 101.25,-491.08 101.25,-494.04 101.25,-494.04 101.25,-499.96 101.25,-499.96 101.25,-502.92 98.29,-505.88 95.33,-505.88"/>
<text text-anchor="start" x="40.75" y="-493.32" font-family="Helvetica,sans-Serif" font-size="9.00">not&#45;found.tsx</text>
</a>
</g>
</g>
<!-- src/app/not&#45;found.tsx&#45;&gt;src/shared/ui/index.ts -->
<g id="edge7" class="edge">
<title>src/app/not&#45;found.tsx&#45;&gt;src/shared/ui/index.ts</title>
<path fill="none" stroke="#000000" stroke-width="2" stroke-opacity="0.200000" d="M70.86,-487.81C76.35,-471.98 90,-440.04 114.25,-427 145.47,-410.21 159.04,-421.17 194,-427 273.72,-440.29 286.28,-472.71 366,-486 398.39,-491.4 407.04,-486.17 439.88,-486 482.99,-485.78 505.19,-514.24 536.88,-485 551.31,-471.68 535.94,-414.49 544.88,-397 550.13,-386.71 559.27,-377.91 568.01,-371.2"/>
<polygon fill="#000000" fill-opacity="0.200000" stroke="#000000" stroke-width="2" stroke-opacity="0.200000" points="569.52,-372.28 573.17,-367.08 567.07,-368.87 569.52,-372.28"/>
</g>
<!-- src/app/page.tsx -->
<g id="node11" class="node">
<title>src/app/page.tsx</title>
<g id="a_node11"><a xlink:href="src/app/page.tsx" xlink:title="page.tsx">
<path fill="#bbfeff" stroke="black" d="M88.08,-655.88C88.08,-655.88 45.92,-655.88 45.92,-655.88 42.96,-655.88 40,-652.92 40,-649.96 40,-649.96 40,-644.04 40,-644.04 40,-641.08 42.96,-638.12 45.92,-638.12 45.92,-638.12 88.08,-638.12 88.08,-638.12 91.04,-638.12 94,-641.08 94,-644.04 94,-644.04 94,-649.96 94,-649.96 94,-652.92 91.04,-655.88 88.08,-655.88"/>
<text text-anchor="start" x="49.75" y="-643.33" font-family="Helvetica,sans-Serif" font-size="9.00">page.tsx</text>
</a>
</g>
</g>
<!-- src/features/Course/index.ts -->
<g id="node12" class="node">
<title>src/features/Course/index.ts</title>
<g id="a_node12"><a xlink:href="src/features/Course/index.ts" xlink:title="index.ts">
<path fill="#ddfeff" stroke="black" d="M266.08,-737.88C266.08,-737.88 223.92,-737.88 223.92,-737.88 220.96,-737.88 218,-734.92 218,-731.96 218,-731.96 218,-726.04 218,-726.04 218,-723.08 220.96,-720.12 223.92,-720.12 223.92,-720.12 266.08,-720.12 266.08,-720.12 269.04,-720.12 272,-723.08 272,-726.04 272,-726.04 272,-731.96 272,-731.96 272,-734.92 269.04,-737.88 266.08,-737.88"/>
<text text-anchor="start" x="229.25" y="-725.33" font-family="Helvetica,sans-Serif" font-size="9.00">index.ts</text>
</a>
</g>
</g>
<!-- src/app/page.tsx&#45;&gt;src/features/Course/index.ts -->
<g id="edge8" class="edge">
<title>src/app/page.tsx&#45;&gt;src/features/Course/index.ts</title>
<path fill="none" stroke="#000000" stroke-width="2" stroke-opacity="0.200000" d="M88.77,-656.31C92.91,-658.19 97.22,-660.15 101.25,-662 141.54,-680.54 188.01,-702.45 216.69,-716.04"/>
<polygon fill="#000000" fill-opacity="0.200000" stroke="#000000" stroke-width="2" stroke-opacity="0.200000" points="216.33,-718.13 222.65,-718.8 218.13,-714.34 216.33,-718.13"/>
</g>
<!-- src/processes/home.ts -->
<g id="node13" class="node">
<title>src/processes/home.ts</title>
<g id="a_node13"><a xlink:href="src/processes/home.ts" xlink:title="home.ts">
<path fill="#ddfeff" stroke="black" d="M513.46,-425.88C513.46,-425.88 471.29,-425.88 471.29,-425.88 468.33,-425.88 465.38,-422.92 465.38,-419.96 465.38,-419.96 465.38,-414.04 465.38,-414.04 465.38,-411.08 468.33,-408.12 471.29,-408.12 471.29,-408.12 513.46,-408.12 513.46,-408.12 516.42,-408.12 519.38,-411.08 519.38,-414.04 519.38,-414.04 519.38,-419.96 519.38,-419.96 519.38,-422.92 516.42,-425.88 513.46,-425.88"/>
<text text-anchor="start" x="476.25" y="-413.32" font-family="Helvetica,sans-Serif" font-size="9.00">home.ts</text>
</a>
</g>
</g>
<!-- src/app/page.tsx&#45;&gt;src/processes/home.ts -->
<g id="edge9" class="edge">
<title>src/app/page.tsx&#45;&gt;src/processes/home.ts</title>
<path fill="none" stroke="#000000" stroke-width="2" stroke-opacity="0.200000" d="M94.35,-638.49C97.01,-636.71 99.4,-634.57 101.25,-632 135.39,-584.48 79.42,-548.01 114.25,-501 151.43,-450.81 181.54,-447 244,-447 244,-447 244,-447 324,-447 370.34,-447 422.78,-435.72 456.42,-426.99"/>
<polygon fill="#000000" fill-opacity="0.200000" stroke="#000000" stroke-width="2" stroke-opacity="0.200000" points="457.71,-428.29 462.97,-424.73 456.63,-424.23 457.71,-428.29"/>
</g>
<!-- src/features/Course/Item/index.tsx -->
<g id="node18" class="node">
<title>src/features/Course/Item/index.tsx</title>
<g id="a_node18"><a xlink:href="src/features/Course/Item/index.tsx" xlink:title="index.tsx">
<path fill="#bbfeff" stroke="black" d="M423.58,-745.88C423.58,-745.88 381.42,-745.88 381.42,-745.88 378.46,-745.88 375.5,-742.92 375.5,-739.96 375.5,-739.96 375.5,-734.04 375.5,-734.04 375.5,-731.08 378.46,-728.12 381.42,-728.12 381.42,-728.12 423.58,-728.12 423.58,-728.12 426.54,-728.12 429.5,-731.08 429.5,-734.04 429.5,-734.04 429.5,-739.96 429.5,-739.96 429.5,-742.92 426.54,-745.88 423.58,-745.88"/>
<text text-anchor="start" x="384.5" y="-733.33" font-family="Helvetica,sans-Serif" font-size="9.00">index.tsx</text>
</a>
</g>
</g>
<!-- src/features/Course/index.ts&#45;&gt;src/features/Course/Item/index.tsx -->
<g id="edge19" class="edge">
<title>src/features/Course/index.ts&#45;&gt;src/features/Course/Item/index.tsx</title>
<path fill="none" stroke="#000000" stroke-width="2" stroke-opacity="0.200000" d="M252.82,-738.29C260.26,-747.58 273.14,-761.27 288,-767 317.03,-778.18 328.3,-776.25 358,-767 367.72,-763.97 377.19,-757.93 384.8,-752.06"/>
<polygon fill="#000000" fill-opacity="0.200000" stroke="#000000" stroke-width="2" stroke-opacity="0.200000" points="386.43,-752.79 389.73,-747.36 383.76,-749.55 386.43,-752.79"/>
</g>
<!-- src/features/Course/List/index.tsx -->
<g id="node19" class="node">
<title>src/features/Course/List/index.tsx</title>
<g id="a_node19"><a xlink:href="src/features/Course/List/index.tsx" xlink:title="index.tsx">
<path fill="#bbfeff" stroke="black" d="M344.08,-737.88C344.08,-737.88 301.92,-737.88 301.92,-737.88 298.96,-737.88 296,-734.92 296,-731.96 296,-731.96 296,-726.04 296,-726.04 296,-723.08 298.96,-720.12 301.92,-720.12 301.92,-720.12 344.08,-720.12 344.08,-720.12 347.04,-720.12 350,-723.08 350,-726.04 350,-726.04 350,-731.96 350,-731.96 350,-734.92 347.04,-737.88 344.08,-737.88"/>
<text text-anchor="start" x="305" y="-725.33" font-family="Helvetica,sans-Serif" font-size="9.00">index.tsx</text>
</a>
</g>
</g>
<!-- src/features/Course/index.ts&#45;&gt;src/features/Course/List/index.tsx -->
<g id="edge20" class="edge">
<title>src/features/Course/index.ts&#45;&gt;src/features/Course/List/index.tsx</title>
<path fill="none" stroke="#000000" stroke-width="2" stroke-opacity="0.200000" d="M272.15,-729C276.88,-729 281.87,-729 286.8,-729"/>
<polygon fill="#000000" fill-opacity="0.200000" stroke="#000000" stroke-width="2" stroke-opacity="0.200000" points="286.54,-731.1 292.54,-729 286.54,-726.9 286.54,-731.1"/>
</g>
<!-- src/processes/home.ts&#45;&gt;src/shared/api/index.ts -->
<g id="edge39" class="edge">
<title>src/processes/home.ts&#45;&gt;src/shared/api/index.ts</title>
<path fill="none" stroke="#000000" stroke-width="2" stroke-opacity="0.200000" d="M519.73,-425.12C530.88,-428.55 544.02,-432.6 555.95,-436.28"/>
<polygon fill="#000000" fill-opacity="0.200000" stroke="#000000" stroke-width="2" stroke-opacity="0.200000" points="556.03,-439.12 562.38,-438.88 557.26,-435.1 556.03,-439.12"/>
</g>
<!-- src/features/Course/Item/ItemImage.tsx -->
<g id="node14" class="node">
<title>src/features/Course/Item/ItemImage.tsx</title>
<g id="a_node14"><a xlink:href="src/features/Course/Item/ItemImage.tsx" xlink:title="ItemImage.tsx">
<path fill="#bbfeff" stroke="black" d="M522.58,-797.88C522.58,-797.88 462.17,-797.88 462.17,-797.88 459.21,-797.88 456.25,-794.92 456.25,-791.96 456.25,-791.96 456.25,-786.04 456.25,-786.04 456.25,-783.08 459.21,-780.12 462.17,-780.12 462.17,-780.12 522.58,-780.12 522.58,-780.12 525.54,-780.12 528.5,-783.08 528.5,-786.04 528.5,-786.04 528.5,-791.96 528.5,-791.96 528.5,-794.92 525.54,-797.88 522.58,-797.88"/>
<text text-anchor="start" x="464.25" y="-785.33" font-family="Helvetica,sans-Serif" font-size="9.00">ItemImage.tsx</text>
</a>
</g>
</g>
<!-- src/features/Course/Item/ItemImage.tsx&#45;&gt;src/shared/ui/index.ts -->
<g id="edge11" class="edge">
<title>src/features/Course/Item/ItemImage.tsx&#45;&gt;src/shared/ui/index.ts</title>
<path fill="none" stroke="#000000" stroke-width="2" stroke-opacity="0.200000" d="M528.76,-782.1C531.89,-780.25 534.69,-777.93 536.88,-775 549.42,-758.16 535.98,-416.03 544.88,-397 549.7,-386.68 558.6,-377.96 567.28,-371.32"/>
<polygon fill="#000000" fill-opacity="0.200000" stroke="#000000" stroke-width="2" stroke-opacity="0.200000" points="568.76,-372.43 572.43,-367.24 566.32,-369 568.76,-372.43"/>
</g>
<!-- src/shared/lib/index.ts -->
<g id="node15" class="node">
<title>src/shared/lib/index.ts</title>
<g id="a_node15"><a xlink:href="src/shared/lib/index.ts" xlink:title="index.ts">
<path fill="#ddfeff" stroke="black" d="M912.83,-575.88C912.83,-575.88 870.67,-575.88 870.67,-575.88 867.71,-575.88 864.75,-572.92 864.75,-569.96 864.75,-569.96 864.75,-564.04 864.75,-564.04 864.75,-561.08 867.71,-558.12 870.67,-558.12 870.67,-558.12 912.83,-558.12 912.83,-558.12 915.79,-558.12 918.75,-561.08 918.75,-564.04 918.75,-564.04 918.75,-569.96 918.75,-569.96 918.75,-572.92 915.79,-575.88 912.83,-575.88"/>
<text text-anchor="start" x="876" y="-563.33" font-family="Helvetica,sans-Serif" font-size="9.00">index.ts</text>
</a>
</g>
</g>
<!-- src/features/Course/Item/ItemImage.tsx&#45;&gt;src/shared/lib/index.ts -->
<g id="edge10" class="edge">
<title>src/features/Course/Item/ItemImage.tsx&#45;&gt;src/shared/lib/index.ts</title>
<path fill="none" stroke="#000000" stroke-width="2" stroke-opacity="0.200000" d="M528.76,-790.42C598.18,-791.16 752.84,-782.45 837.5,-697 868.98,-665.23 882.68,-612.27 887.93,-584.78"/>
<polygon fill="#000000" fill-opacity="0.200000" stroke="#000000" stroke-width="2" stroke-opacity="0.200000" points="890.47,-584.47 889.44,-578.19 886.33,-583.74 890.47,-584.47"/>
</g>
<!-- src/shared/lib/delay.ts -->
<g id="node33" class="node">
<title>src/shared/lib/delay.ts</title>
<g id="a_node33"><a xlink:href="src/shared/lib/delay.ts" xlink:title="delay.ts">
<path fill="#ddfeff" stroke="black" d="M1024.83,-485.88C1024.83,-485.88 982.67,-485.88 982.67,-485.88 979.71,-485.88 976.75,-482.92 976.75,-479.96 976.75,-479.96 976.75,-474.04 976.75,-474.04 976.75,-471.08 979.71,-468.12 982.67,-468.12 982.67,-468.12 1024.83,-468.12 1024.83,-468.12 1027.79,-468.12 1030.75,-471.08 1030.75,-474.04 1030.75,-474.04 1030.75,-479.96 1030.75,-479.96 1030.75,-482.92 1027.79,-485.88 1024.83,-485.88"/>
<text text-anchor="start" x="988" y="-473.32" font-family="Helvetica,sans-Serif" font-size="9.00">delay.ts</text>
</a>
</g>
</g>
<!-- src/shared/lib/index.ts&#45;&gt;src/shared/lib/delay.ts -->
<g id="edge47" class="edge">
<title>src/shared/lib/index.ts&#45;&gt;src/shared/lib/delay.ts</title>
<path fill="none" stroke="#000000" stroke-width="2" stroke-opacity="0.200000" d="M898.95,-557.85C909.94,-542.28 934.3,-510.51 962,-492 964.06,-490.63 966.26,-489.36 968.53,-488.19"/>
<polygon fill="#000000" fill-opacity="0.200000" stroke="#000000" stroke-width="2" stroke-opacity="0.200000" points="969.83,-490 974.42,-485.61 968.09,-486.17 969.83,-490"/>
</g>
<!-- src/shared/lib/fetch.ts -->
<g id="node34" class="node">
<title>src/shared/lib/fetch.ts</title>
<g id="a_node34"><a xlink:href="src/shared/lib/fetch.ts" xlink:title="fetch.ts">
<path fill="#ddfeff" stroke="black" d="M1024.83,-515.88C1024.83,-515.88 982.67,-515.88 982.67,-515.88 979.71,-515.88 976.75,-512.92 976.75,-509.96 976.75,-509.96 976.75,-504.04 976.75,-504.04 976.75,-501.08 979.71,-498.12 982.67,-498.12 982.67,-498.12 1024.83,-498.12 1024.83,-498.12 1027.79,-498.12 1030.75,-501.08 1030.75,-504.04 1030.75,-504.04 1030.75,-509.96 1030.75,-509.96 1030.75,-512.92 1027.79,-515.88 1024.83,-515.88"/>
<text text-anchor="start" x="989.5" y="-503.32" font-family="Helvetica,sans-Serif" font-size="9.00">fetch.ts</text>
</a>
</g>
</g>
<!-- src/shared/lib/index.ts&#45;&gt;src/shared/lib/fetch.ts -->
<g id="edge48" class="edge">
<title>src/shared/lib/index.ts&#45;&gt;src/shared/lib/fetch.ts</title>
<path fill="none" stroke="#000000" stroke-width="2" stroke-opacity="0.200000" d="M905.01,-557.82C918.47,-548.04 940.98,-532.53 962,-522 964.01,-521 966.09,-520.02 968.22,-519.09"/>
<polygon fill="#000000" fill-opacity="0.200000" stroke="#000000" stroke-width="2" stroke-opacity="0.200000" points="969.76,-520.9 974.51,-516.67 968.17,-517.01 969.76,-520.9"/>
</g>
<!-- src/shared/lib/previews.ts -->
<g id="node35" class="node">
<title>src/shared/lib/previews.ts</title>
<g id="a_node35"><a xlink:href="src/shared/lib/previews.ts" xlink:title="previews.ts">
<path fill="#ddfeff" stroke="black" d="M1028.71,-545.88C1028.71,-545.88 978.79,-545.88 978.79,-545.88 975.83,-545.88 972.88,-542.92 972.88,-539.96 972.88,-539.96 972.88,-534.04 972.88,-534.04 972.88,-531.08 975.83,-528.12 978.79,-528.12 978.79,-528.12 1028.71,-528.12 1028.71,-528.12 1031.67,-528.12 1034.62,-531.08 1034.62,-534.04 1034.62,-534.04 1034.62,-539.96 1034.62,-539.96 1034.62,-542.92 1031.67,-545.88 1028.71,-545.88"/>
<text text-anchor="start" x="980.88" y="-533.33" font-family="Helvetica,sans-Serif" font-size="9.00">previews.ts</text>
</a>
</g>
</g>
<!-- src/shared/lib/index.ts&#45;&gt;src/shared/lib/previews.ts -->
<g id="edge49" class="edge">
<title>src/shared/lib/index.ts&#45;&gt;src/shared/lib/previews.ts</title>
<path fill="none" stroke="#000000" stroke-width="2" stroke-opacity="0.200000" d="M919.1,-559.81C932.59,-556.13 949.28,-551.58 964.19,-547.52"/>
<polygon fill="#000000" fill-opacity="0.200000" stroke="#000000" stroke-width="2" stroke-opacity="0.200000" points="965.5,-548.79 970.73,-545.19 964.39,-544.74 965.5,-548.79"/>
</g>
<!-- src/shared/lib/timeTransform.ts -->
<g id="node36" class="node">
<title>src/shared/lib/timeTransform.ts</title>
<g id="a_node36"><a xlink:href="src/shared/lib/timeTransform.ts" xlink:title="timeTransform.ts">
<path fill="#ddfeff" stroke="black" d="M1039.58,-575.88C1039.58,-575.88 967.92,-575.88 967.92,-575.88 964.96,-575.88 962,-572.92 962,-569.96 962,-569.96 962,-564.04 962,-564.04 962,-561.08 964.96,-558.12 967.92,-558.12 967.92,-558.12 1039.58,-558.12 1039.58,-558.12 1042.54,-558.12 1045.5,-561.08 1045.5,-564.04 1045.5,-564.04 1045.5,-569.96 1045.5,-569.96 1045.5,-572.92 1042.54,-575.88 1039.58,-575.88"/>
<text text-anchor="start" x="970" y="-563.33" font-family="Helvetica,sans-Serif" font-size="9.00">timeTransform.ts</text>
</a>
</g>
</g>
<!-- src/shared/lib/index.ts&#45;&gt;src/shared/lib/timeTransform.ts -->
<g id="edge50" class="edge">
<title>src/shared/lib/index.ts&#45;&gt;src/shared/lib/timeTransform.ts</title>
<path fill="none" stroke="#000000" stroke-width="2" stroke-opacity="0.200000" d="M919.1,-567C929.23,-567 941.16,-567 952.78,-567"/>
<polygon fill="#000000" fill-opacity="0.200000" stroke="#000000" stroke-width="2" stroke-opacity="0.200000" points="952.58,-569.1 958.58,-567 952.58,-564.9 952.58,-569.1"/>
</g>
<!-- src/features/Course/Item/ItemStats/Rating.tsx -->
<g id="node16" class="node">
<title>src/features/Course/Item/ItemStats/Rating.tsx</title>
<g id="a_node16"><a xlink:href="src/features/Course/Item/ItemStats/Rating.tsx" xlink:title="Rating.tsx">
<path fill="#bbfeff" stroke="black" d="M614.08,-745.88C614.08,-745.88 569.42,-745.88 569.42,-745.88 566.46,-745.88 563.5,-742.92 563.5,-739.96 563.5,-739.96 563.5,-734.04 563.5,-734.04 563.5,-731.08 566.46,-728.12 569.42,-728.12 569.42,-728.12 614.08,-728.12 614.08,-728.12 617.04,-728.12 620,-731.08 620,-734.04 620,-734.04 620,-739.96 620,-739.96 620,-742.92 617.04,-745.88 614.08,-745.88"/>
<text text-anchor="start" x="571.5" y="-733.33" font-family="Helvetica,sans-Serif" font-size="9.00">Rating.tsx</text>
</a>
</g>
</g>
<!-- src/features/Course/Item/ItemStats/index.tsx -->
<g id="node17" class="node">
<title>src/features/Course/Item/ItemStats/index.tsx</title>
<g id="a_node17"><a xlink:href="src/features/Course/Item/ItemStats/index.tsx" xlink:title="index.tsx">
<path fill="#bbfeff" stroke="black" d="M513.46,-745.88C513.46,-745.88 471.29,-745.88 471.29,-745.88 468.33,-745.88 465.38,-742.92 465.38,-739.96 465.38,-739.96 465.38,-734.04 465.38,-734.04 465.38,-731.08 468.33,-728.12 471.29,-728.12 471.29,-728.12 513.46,-728.12 513.46,-728.12 516.42,-728.12 519.38,-731.08 519.38,-734.04 519.38,-734.04 519.38,-739.96 519.38,-739.96 519.38,-742.92 516.42,-745.88 513.46,-745.88"/>
<text text-anchor="start" x="474.38" y="-733.33" font-family="Helvetica,sans-Serif" font-size="9.00">index.tsx</text>
</a>
</g>
</g>
<!-- src/features/Course/Item/ItemStats/index.tsx&#45;&gt;src/shared/ui/index.ts -->
<g id="edge13" class="edge">
<title>src/features/Course/Item/ItemStats/index.tsx&#45;&gt;src/shared/ui/index.ts</title>
<path fill="none" stroke="#000000" stroke-width="2" stroke-opacity="0.200000" d="M519.44,-728.18C526.27,-724.57 532.84,-719.63 536.88,-713 555.11,-682.98 529.93,-428.78 544.88,-397 549.72,-386.69 558.62,-377.97 567.3,-371.33"/>
<polygon fill="#000000" fill-opacity="0.200000" stroke="#000000" stroke-width="2" stroke-opacity="0.200000" points="568.78,-372.44 572.45,-367.25 566.34,-369.01 568.78,-372.44"/>
</g>
<!-- src/features/Course/Item/ItemStats/index.tsx&#45;&gt;src/features/Course/Item/ItemStats/Rating.tsx -->
<g id="edge12" class="edge">
<title>src/features/Course/Item/ItemStats/index.tsx&#45;&gt;src/features/Course/Item/ItemStats/Rating.tsx</title>
<path fill="none" stroke="#000000" stroke-width="2" stroke-opacity="0.200000" d="M519.73,-737C530.3,-737 542.68,-737 554.11,-737"/>
<polygon fill="#000000" fill-opacity="0.200000" stroke="#000000" stroke-width="2" stroke-opacity="0.200000" points="554.02,-739.1 560.02,-737 554.02,-734.9 554.02,-739.1"/>
</g>
<!-- src/features/Course/Item/index.tsx&#45;&gt;src/shared/ui/index.ts -->
<g id="edge16" class="edge">
<title>src/features/Course/Item/index.tsx&#45;&gt;src/shared/ui/index.ts</title>
<path fill="none" stroke="#000000" stroke-width="2" stroke-opacity="0.200000" d="M423.77,-727.71C431.31,-724.3 439.97,-720.43 447.88,-717 487.18,-699.97 512.6,-715.29 536.88,-680 554.7,-654.08 531.45,-425.45 544.88,-397 549.74,-386.7 558.64,-377.98 567.32,-371.34"/>
<polygon fill="#000000" fill-opacity="0.200000" stroke="#000000" stroke-width="2" stroke-opacity="0.200000" points="568.79,-372.44 572.46,-367.26 566.36,-369.02 568.79,-372.44"/>
</g>
<!-- src/features/Course/Item/index.tsx&#45;&gt;src/features/Course/Item/ItemImage.tsx -->
<g id="edge14" class="edge">
<title>src/features/Course/Item/index.tsx&#45;&gt;src/features/Course/Item/ItemImage.tsx</title>
<path fill="none" stroke="#000000" stroke-width="2" stroke-opacity="0.200000" d="M412.2,-746.33C420.61,-754.86 434.06,-767.28 447.88,-775 448.57,-775.39 449.28,-775.77 450,-776.14"/>
<polygon fill="#000000" fill-opacity="0.200000" stroke="#000000" stroke-width="2" stroke-opacity="0.200000" points="449.68,-778.21 456.01,-778.79 451.42,-774.39 449.68,-778.21"/>
</g>
<!-- src/features/Course/Item/index.tsx&#45;&gt;src/features/Course/Item/ItemStats/index.tsx -->
<g id="edge15" class="edge">
<title>src/features/Course/Item/index.tsx&#45;&gt;src/features/Course/Item/ItemStats/index.tsx</title>
<path fill="none" stroke="#000000" stroke-width="2" stroke-opacity="0.200000" d="M429.87,-737C438.12,-737 447.37,-737 456.13,-737"/>
<polygon fill="#000000" fill-opacity="0.200000" stroke="#000000" stroke-width="2" stroke-opacity="0.200000" points="456.03,-739.1 462.03,-737 456.03,-734.9 456.03,-739.1"/>
</g>
<!-- src/features/Course/List/index.tsx&#45;&gt;src/shared/ui/index.ts -->
<g id="edge18" class="edge">
<title>src/features/Course/List/index.tsx&#45;&gt;src/shared/ui/index.ts</title>
<path fill="none" stroke="#000000" stroke-width="2" stroke-opacity="0.200000" d="M326.57,-719.64C331.52,-703.37 343.85,-669.83 366,-651 427.21,-598.96 488.92,-656.46 536.88,-592 549.82,-574.6 535.49,-416.55 544.88,-397 549.8,-386.73 558.72,-378.01 567.38,-371.37"/>
<polygon fill="#000000" fill-opacity="0.200000" stroke="#000000" stroke-width="2" stroke-opacity="0.200000" points="568.85,-372.47 572.52,-367.28 566.41,-369.06 568.85,-372.47"/>
</g>
<!-- src/features/Course/List/index.tsx&#45;&gt;src/features/Course/Item/index.tsx -->
<g id="edge17" class="edge">
<title>src/features/Course/List/index.tsx&#45;&gt;src/features/Course/Item/index.tsx</title>
<path fill="none" stroke="#000000" stroke-width="2" stroke-opacity="0.200000" d="M350.24,-731.71C355.36,-732.24 360.8,-732.8 366.16,-733.35"/>
<polygon fill="#000000" fill-opacity="0.200000" stroke="#000000" stroke-width="2" stroke-opacity="0.200000" points="365.84,-735.74 372.03,-734.27 366.27,-731.56 365.84,-735.74"/>
</g>
<!-- src/features/Lesson/Info/index.tsx&#45;&gt;src/shared/ui/index.ts -->
<g id="edge23" class="edge">
<title>src/features/Lesson/Info/index.tsx&#45;&gt;src/shared/ui/index.ts</title>
<path fill="none" stroke="#000000" stroke-width="2" stroke-opacity="0.200000" d="M338.14,-943.82C345.49,-938.2 353.79,-930.3 358,-921 368.64,-897.5 350.56,-709.66 366,-689 389.96,-656.93 512.92,-664.07 536.88,-632 552.51,-611.07 533.66,-420.59 544.88,-397 549.77,-386.71 558.68,-377.99 567.35,-371.35"/>
<polygon fill="#000000" fill-opacity="0.200000" stroke="#000000" stroke-width="2" stroke-opacity="0.200000" points="568.82,-372.46 572.49,-367.27 566.38,-369.04 568.82,-372.46"/>
</g>
<!-- src/features/Lesson/Info/index.tsx&#45;&gt;src/shared/lib/index.ts -->
<g id="edge22" class="edge">
<title>src/features/Lesson/Info/index.tsx&#45;&gt;src/shared/lib/index.ts</title>
<path fill="none" stroke="#000000" stroke-width="2" stroke-opacity="0.200000" d="M350.38,-951.98C383.35,-950.8 441.53,-949 491.38,-949 491.38,-949 491.38,-949 696,-949 730.24,-949 800.14,-932.8 837.5,-883 873.39,-835.15 886.56,-644.74 889.85,-585.01"/>
<polygon fill="#000000" fill-opacity="0.200000" stroke="#000000" stroke-width="2" stroke-opacity="0.200000" points="892.09,-585.4 890.31,-579.3 887.9,-585.18 892.09,-585.4"/>
</g>
<!-- src/features/Lesson/List/index.tsx&#45;&gt;src/shared/ui/index.ts -->
<g id="edge26" class="edge">
<title>src/features/Lesson/List/index.tsx&#45;&gt;src/shared/ui/index.ts</title>
<path fill="none" stroke="#000000" stroke-width="2" stroke-opacity="0.200000" d="M327.38,-873.83C334.37,-854.43 350.41,-807.64 358,-767 361.89,-746.17 352.99,-688.72 366,-672 415.33,-608.59 489.04,-677.55 536.88,-613 551.17,-593.7 534.53,-418.67 544.88,-397 549.78,-386.72 558.69,-378 567.36,-371.36"/>
<polygon fill="#000000" fill-opacity="0.200000" stroke="#000000" stroke-width="2" stroke-opacity="0.200000" points="568.83,-372.47 572.5,-367.27 566.39,-369.05 568.83,-372.47"/>
</g>
<!-- src/features/Lesson/List/index.tsx&#45;&gt;src/shared/lib/index.ts -->
<g id="edge25" class="edge">
<title>src/features/Lesson/List/index.tsx&#45;&gt;src/shared/lib/index.ts</title>
<path fill="none" stroke="#000000" stroke-width="2" stroke-opacity="0.200000" d="M329.8,-892.22C336.9,-902.58 349.98,-918.88 366,-926 416.95,-948.66 435.61,-931 491.38,-931 491.38,-931 491.38,-931 696,-931 772,-931 795.51,-898.34 837.5,-835 865.2,-793.22 883.46,-637.76 888.98,-584.8"/>
<polygon fill="#000000" fill-opacity="0.200000" stroke="#000000" stroke-width="2" stroke-opacity="0.200000" points="891.35,-585.34 889.87,-579.16 887.17,-584.91 891.35,-585.34"/>
</g>
<!-- src/features/Lesson/List/index.tsx&#45;&gt;src/features/Lesson/context.tsx -->
<g id="edge24" class="edge">
<title>src/features/Lesson/List/index.tsx&#45;&gt;src/features/Lesson/context.tsx</title>
<path fill="none" stroke="#000000" stroke-width="2" stroke-opacity="0.200000" d="M350.24,-881.65C354.63,-881.42 359.25,-881.18 363.86,-880.94"/>
<polygon fill="#000000" fill-opacity="0.200000" stroke="#000000" stroke-width="2" stroke-opacity="0.200000" points="363.74,-882.9 369.63,-880.49 363.53,-878.7 363.74,-882.9"/>
</g>
<!-- src/shared/config/index.ts -->
<g id="node25" class="node">
<title>src/shared/config/index.ts</title>
<g id="a_node25"><a xlink:href="src/shared/config/index.ts" xlink:title="index.ts">
<path fill="#ddfeff" stroke="black" d="M912.83,-425.88C912.83,-425.88 870.67,-425.88 870.67,-425.88 867.71,-425.88 864.75,-422.92 864.75,-419.96 864.75,-419.96 864.75,-414.04 864.75,-414.04 864.75,-411.08 867.71,-408.12 870.67,-408.12 870.67,-408.12 912.83,-408.12 912.83,-408.12 915.79,-408.12 918.75,-411.08 918.75,-414.04 918.75,-414.04 918.75,-419.96 918.75,-419.96 918.75,-422.92 915.79,-425.88 912.83,-425.88"/>
<text text-anchor="start" x="876" y="-413.32" font-family="Helvetica,sans-Serif" font-size="9.00">index.ts</text>
</a>
</g>
</g>
<!-- src/features/Lesson/context.tsx&#45;&gt;src/shared/config/index.ts -->
<g id="edge31" class="edge">
<title>src/features/Lesson/context.tsx&#45;&gt;src/shared/config/index.ts</title>
<path fill="none" stroke="#000000" stroke-width="2" stroke-opacity="0.200000" d="M432.33,-876C469.07,-872.45 534.56,-867 590.75,-867 590.75,-867 590.75,-867 696,-867 794.3,-867 802.53,-788.87 837.5,-697 846.99,-672.06 834.13,-481.14 845.5,-457 850.32,-446.77 859.1,-438.07 867.66,-431.41"/>
<polygon fill="#000000" fill-opacity="0.200000" stroke="#000000" stroke-width="2" stroke-opacity="0.200000" points="869.07,-432.54 872.7,-427.32 866.61,-429.13 869.07,-432.54"/>
</g>
<!-- src/features/Lesson/Video/index.tsx&#45;&gt;src/shared/lib/index.ts -->
<g id="edge30" class="edge">
<title>src/features/Lesson/Video/index.tsx&#45;&gt;src/shared/lib/index.ts</title>
<path fill="none" stroke="#000000" stroke-width="2" stroke-opacity="0.200000" d="M350.25,-1007.65C383.1,-1001.42 441.15,-992 491.38,-992 491.38,-992 491.38,-992 696,-992 767.39,-992 796.33,-974.32 837.5,-916 875.83,-861.7 887.43,-648.89 890.09,-585.14"/>
<polygon fill="#000000" fill-opacity="0.200000" stroke="#000000" stroke-width="2" stroke-opacity="0.200000" points="892.3,-585.31 890.44,-579.24 888.1,-585.15 892.3,-585.31"/>
</g>
<!-- src/features/Lesson/Video/index.tsx&#45;&gt;src/features/Lesson/context.tsx -->
<g id="edge27" class="edge">
<title>src/features/Lesson/Video/index.tsx&#45;&gt;src/features/Lesson/context.tsx</title>
<path fill="none" stroke="#000000" stroke-width="2" stroke-opacity="0.200000" d="M344.96,-1003.64C350.04,-1000.37 354.89,-996.19 358,-991 369.11,-972.44 353.32,-911.52 366,-894 366.11,-893.84 366.23,-893.69 366.34,-893.54"/>
<polygon fill="#000000" fill-opacity="0.200000" stroke="#000000" stroke-width="2" stroke-opacity="0.200000" points="367.69,-895.3 370.67,-889.69 364.84,-892.22 367.69,-895.3"/>
</g>
<!-- src/features/Lesson/utils.ts -->
<g id="node24" class="node">
<title>src/features/Lesson/utils.ts</title>
<g id="a_node24"><a xlink:href="src/features/Lesson/utils.ts" xlink:title="utils.ts">
<path fill="#ddfeff" stroke="black" d="M423.58,-917.88C423.58,-917.88 381.42,-917.88 381.42,-917.88 378.46,-917.88 375.5,-914.92 375.5,-911.96 375.5,-911.96 375.5,-906.04 375.5,-906.04 375.5,-903.08 378.46,-900.12 381.42,-900.12 381.42,-900.12 423.58,-900.12 423.58,-900.12 426.54,-900.12 429.5,-903.08 429.5,-906.04 429.5,-906.04 429.5,-911.96 429.5,-911.96 429.5,-914.92 426.54,-917.88 423.58,-917.88"/>
<text text-anchor="start" x="389.75" y="-905.33" font-family="Helvetica,sans-Serif" font-size="9.00">utils.ts</text>
</a>
</g>
</g>
<!-- src/features/Lesson/Video/index.tsx&#45;&gt;src/features/Lesson/utils.ts -->
<g id="edge28" class="edge">
<title>src/features/Lesson/Video/index.tsx&#45;&gt;src/features/Lesson/utils.ts</title>
<path fill="none" stroke="#000000" stroke-width="2" stroke-opacity="0.200000" d="M341.9,-1003.79C347.52,-1000.31 353.44,-995.97 358,-991 375.53,-971.88 388.21,-944.39 395.21,-926.61"/>
<polygon fill="#000000" fill-opacity="0.200000" stroke="#000000" stroke-width="2" stroke-opacity="0.200000" points="397.2,-926.65 397.35,-920.3 393.27,-925.17 397.2,-926.65"/>
</g>
<!-- src/features/Lesson/Video/index.tsx&#45;&gt;src/shared/config/index.ts -->
<g id="edge29" class="edge">
<title>src/features/Lesson/Video/index.tsx&#45;&gt;src/shared/config/index.ts</title>
<path fill="none" stroke="#000000" stroke-width="2" stroke-opacity="0.200000" d="M345.15,-1003.75C350.23,-1000.48 355.04,-996.27 358,-991 365.68,-977.34 355.48,-720.61 366,-709 403.72,-667.37 435.2,-693 491.38,-693 491.38,-693 491.38,-693 696,-693 807.81,-693 790.1,-586.26 837.5,-485 842.99,-473.28 838.6,-467.95 845.5,-457 851.7,-447.16 861.03,-438.34 869.6,-431.5"/>
<polygon fill="#000000" fill-opacity="0.200000" stroke="#000000" stroke-width="2" stroke-opacity="0.200000" points="871.03,-432.54 874.55,-427.24 868.5,-429.19 871.03,-432.54"/>
</g>
<!-- src/features/Lesson/utils.ts&#45;&gt;src/shared/config/index.ts -->
<g id="edge36" class="edge">
<title>src/features/Lesson/utils.ts&#45;&gt;src/shared/config/index.ts</title>
<path fill="none" stroke="#000000" stroke-width="2" stroke-opacity="0.200000" d="M429.8,-905.33C465.97,-900.61 533.16,-893 590.75,-893 590.75,-893 590.75,-893 696,-893 736.12,-893 795.47,-868.19 837.5,-781 853.14,-748.56 830.3,-489.65 845.5,-457 850.27,-446.75 859.05,-438.04 867.61,-431.39"/>
<polygon fill="#000000" fill-opacity="0.200000" stroke="#000000" stroke-width="2" stroke-opacity="0.200000" points="869.03,-432.52 872.66,-427.3 866.57,-429.11 869.03,-432.52"/>
</g>
<!-- src/shared/config/consts.ts -->
<g id="node32" class="node">
<title>src/shared/config/consts.ts</title>
<g id="a_node32"><a xlink:href="src/shared/config/consts.ts" xlink:title="consts.ts">
<path fill="#ddfeff" stroke="black" d="M1024.83,-425.88C1024.83,-425.88 982.67,-425.88 982.67,-425.88 979.71,-425.88 976.75,-422.92 976.75,-419.96 976.75,-419.96 976.75,-414.04 976.75,-414.04 976.75,-411.08 979.71,-408.12 982.67,-408.12 982.67,-408.12 1024.83,-408.12 1024.83,-408.12 1027.79,-408.12 1030.75,-411.08 1030.75,-414.04 1030.75,-414.04 1030.75,-419.96 1030.75,-419.96 1030.75,-422.92 1027.79,-425.88 1024.83,-425.88"/>
<text text-anchor="start" x="986.12" y="-413.32" font-family="Helvetica,sans-Serif" font-size="9.00">consts.ts</text>
</a>
</g>
</g>
<!-- src/shared/config/index.ts&#45;&gt;src/shared/config/consts.ts -->
<g id="edge46" class="edge">
<title>src/shared/config/index.ts&#45;&gt;src/shared/config/consts.ts</title>
<path fill="none" stroke="#000000" stroke-width="2" stroke-opacity="0.200000" d="M919.1,-417C933.66,-417 951.93,-417 967.68,-417"/>
<polygon fill="#000000" fill-opacity="0.200000" stroke="#000000" stroke-width="2" stroke-opacity="0.200000" points="967.62,-419.1 973.62,-417 967.62,-414.9 967.62,-419.1"/>
</g>
<!-- src/middleware.ts -->
<g id="node26" class="node">
<title>src/middleware.ts</title>
<g id="a_node26"><a xlink:href="src/middleware.ts" xlink:title="middleware.ts">
<path fill="#ddfeff" stroke="black" d="M433.08,-477.88C433.08,-477.88 371.92,-477.88 371.92,-477.88 368.96,-477.88 366,-474.92 366,-471.96 366,-471.96 366,-466.04 366,-466.04 366,-463.08 368.96,-460.12 371.92,-460.12 371.92,-460.12 433.08,-460.12 433.08,-460.12 436.04,-460.12 439,-463.08 439,-466.04 439,-466.04 439,-471.96 439,-471.96 439,-474.92 436.04,-477.88 433.08,-477.88"/>
<text text-anchor="start" x="374" y="-465.32" font-family="Helvetica,sans-Serif" font-size="9.00">middleware.ts</text>
</a>
</g>
</g>
<!-- src/processes/middleware.ts -->
<g id="node27" class="node">
<title>src/processes/middleware.ts</title>
<g id="a_node27"><a xlink:href="src/processes/middleware.ts" xlink:title="middleware.ts">
<path fill="#ddfeff" stroke="black" d="M522.96,-455.88C522.96,-455.88 461.79,-455.88 461.79,-455.88 458.83,-455.88 455.88,-452.92 455.88,-449.96 455.88,-449.96 455.88,-444.04 455.88,-444.04 455.88,-441.08 458.83,-438.12 461.79,-438.12 461.79,-438.12 522.96,-438.12 522.96,-438.12 525.92,-438.12 528.88,-441.08 528.88,-444.04 528.88,-444.04 528.88,-449.96 528.88,-449.96 528.88,-452.92 525.92,-455.88 522.96,-455.88"/>
<text text-anchor="start" x="463.88" y="-443.32" font-family="Helvetica,sans-Serif" font-size="9.00">middleware.ts</text>
</a>
</g>
</g>
<!-- src/middleware.ts&#45;&gt;src/processes/middleware.ts -->
<g id="edge37" class="edge">
<title>src/middleware.ts&#45;&gt;src/processes/middleware.ts</title>
<path fill="none" stroke="#000000" stroke-width="2" stroke-opacity="0.200000" d="M439.5,-459.99C441.98,-459.37 444.51,-458.73 447.03,-458.1"/>
<polygon fill="#000000" fill-opacity="0.200000" stroke="#000000" stroke-width="2" stroke-opacity="0.200000" points="448.27,-459.46 453.58,-455.96 447.25,-455.38 448.27,-459.46"/>
</g>
<!-- src/processes/middleware.ts&#45;&gt;src/shared/api/index.ts -->
<g id="edge40" class="edge">
<title>src/processes/middleware.ts&#45;&gt;src/shared/api/index.ts</title>
<path fill="none" stroke="#000000" stroke-width="2" stroke-opacity="0.200000" d="M529.36,-447C537.87,-447 546.94,-447 555.43,-447"/>
<polygon fill="#000000" fill-opacity="0.200000" stroke="#000000" stroke-width="2" stroke-opacity="0.200000" points="555.35,-449.1 561.35,-447 555.35,-444.9 555.35,-449.1"/>
</g>
<!-- src/shared/api/external.ts -->
<g id="node29" class="node">
<title>src/shared/api/external.ts</title>
<g id="a_node29"><a xlink:href="src/shared/api/external.ts" xlink:title="external.ts">
<path fill="#ddfeff" stroke="black" d="M718.08,-455.88C718.08,-455.88 671.92,-455.88 671.92,-455.88 668.96,-455.88 666,-452.92 666,-449.96 666,-449.96 666,-444.04 666,-444.04 666,-441.08 668.96,-438.12 671.92,-438.12 671.92,-438.12 718.08,-438.12 718.08,-438.12 721.04,-438.12 724,-441.08 724,-444.04 724,-444.04 724,-449.96 724,-449.96 724,-452.92 721.04,-455.88 718.08,-455.88"/>
<text text-anchor="start" x="674" y="-443.32" font-family="Helvetica,sans-Serif" font-size="9.00">external.ts</text>
</a>
</g>
</g>
<!-- src/shared/api/index.ts&#45;&gt;src/shared/api/external.ts -->
<g id="edge42" class="edge">
<title>src/shared/api/index.ts&#45;&gt;src/shared/api/external.ts</title>
<path fill="none" stroke="#000000" stroke-width="2" stroke-opacity="0.200000" d="M619.09,-447C630.59,-447 644.29,-447 656.81,-447"/>
<polygon fill="#000000" fill-opacity="0.200000" stroke="#000000" stroke-width="2" stroke-opacity="0.200000" points="656.66,-449.1 662.66,-447 656.66,-444.9 656.66,-449.1"/>
</g>
<!-- src/shared/api/utils.ts -->
<g id="node30" class="node">
<title>src/shared/api/utils.ts</title>
<g id="a_node30"><a xlink:href="src/shared/api/utils.ts" xlink:title="utils.ts">
<path fill="#ddfeff" stroke="black" d="M807.33,-444.88C807.33,-444.88 765.17,-444.88 765.17,-444.88 762.21,-444.88 759.25,-441.92 759.25,-438.96 759.25,-438.96 759.25,-433.04 759.25,-433.04 759.25,-430.08 762.21,-427.12 765.17,-427.12 765.17,-427.12 807.33,-427.12 807.33,-427.12 810.29,-427.12 813.25,-430.08 813.25,-433.04 813.25,-433.04 813.25,-438.96 813.25,-438.96 813.25,-441.92 810.29,-444.88 807.33,-444.88"/>
<text text-anchor="start" x="773.5" y="-432.32" font-family="Helvetica,sans-Serif" font-size="9.00">utils.ts</text>
</a>
</g>
</g>
<!-- src/shared/api/index.ts&#45;&gt;src/shared/api/utils.ts -->
<g id="edge43" class="edge">
<title>src/shared/api/index.ts&#45;&gt;src/shared/api/utils.ts</title>
<path fill="none" stroke="#000000" stroke-width="2" stroke-opacity="0.200000" d="M619.04,-439.73C631.37,-436.69 646.33,-433.51 660,-432 690.92,-428.59 698.91,-430.88 730,-432 736.48,-432.23 743.37,-432.62 750.01,-433.07"/>
<polygon fill="#000000" fill-opacity="0.200000" stroke="#000000" stroke-width="2" stroke-opacity="0.200000" points="749.72,-435.37 755.85,-433.7 750.02,-431.18 749.72,-435.37"/>
</g>
<!-- src/shared/api/external.ts&#45;&gt;src/shared/api/utils.ts -->
<g id="edge41" class="edge">
<title>src/shared/api/external.ts&#45;&gt;src/shared/api/utils.ts</title>
<path fill="none" stroke="#000000" stroke-width="2" stroke-opacity="0.200000" d="M724.24,-443.52C732.5,-442.5 741.64,-441.38 750.26,-440.31"/>
<polygon fill="#000000" fill-opacity="0.200000" stroke="#000000" stroke-width="2" stroke-opacity="0.200000" points="750.32,-442.05 756.01,-439.23 749.8,-437.88 750.32,-442.05"/>
</g>
<!-- src/shared/api/utils.ts&#45;&gt;src/shared/lib/index.ts -->
<g id="edge45" class="edge">
<title>src/shared/api/utils.ts&#45;&gt;src/shared/lib/index.ts</title>
<path fill="none" stroke="#000000" stroke-width="2" stroke-opacity="0.200000" d="M794.36,-445C811.65,-466.88 856.04,-523.06 878.02,-550.89"/>
<polygon fill="#000000" fill-opacity="0.200000" stroke="#000000" stroke-width="2" stroke-opacity="0.200000" points="877.22,-552.53 882.59,-555.93 880.51,-549.92 877.22,-552.53"/>
</g>
<!-- src/shared/api/utils.ts&#45;&gt;src/shared/config/index.ts -->
<g id="edge44" class="edge">
<title>src/shared/api/utils.ts&#45;&gt;src/shared/config/index.ts</title>
<path fill="none" stroke="#000000" stroke-width="2" stroke-opacity="0.200000" d="M813.64,-431.16C826.41,-428.81 841.92,-425.96 855.68,-423.44"/>
<polygon fill="#000000" fill-opacity="0.200000" stroke="#000000" stroke-width="2" stroke-opacity="0.200000" points="856.89,-424.98 862.41,-421.83 856.13,-420.85 856.89,-424.98"/>
</g>
<!-- src/shared/api/types.ts -->
<g id="node31" class="node">
<title>src/shared/api/types.ts</title>
<g id="a_node31"><a xlink:href="src/shared/api/types.ts" xlink:title="no&#45;orphans">
<path fill="#ccffcc" stroke="orange" d="M612.83,-425.88C612.83,-425.88 570.67,-425.88 570.67,-425.88 567.71,-425.88 564.75,-422.92 564.75,-419.96 564.75,-419.96 564.75,-414.04 564.75,-414.04 564.75,-411.08 567.71,-408.12 570.67,-408.12 570.67,-408.12 612.83,-408.12 612.83,-408.12 615.79,-408.12 618.75,-411.08 618.75,-414.04 618.75,-414.04 618.75,-419.96 618.75,-419.96 618.75,-422.92 615.79,-425.88 612.83,-425.88"/>
<text text-anchor="start" x="576.38" y="-413.32" font-family="Helvetica,sans-Serif" font-size="9.00" fill="orange">types.ts</text>
</a>
</g>
</g>
<!-- src/shared/ui/utils.ts -->
<g id="node38" class="node">
<title>src/shared/ui/utils.ts</title>
<g id="a_node38"><a xlink:href="src/shared/ui/utils.ts" xlink:title="utils.ts">
<path fill="#ddfeff" stroke="black" d="M912.83,-199.88C912.83,-199.88 870.67,-199.88 870.67,-199.88 867.71,-199.88 864.75,-196.92 864.75,-193.96 864.75,-193.96 864.75,-188.04 864.75,-188.04 864.75,-185.08 867.71,-182.12 870.67,-182.12 870.67,-182.12 912.83,-182.12 912.83,-182.12 915.79,-182.12 918.75,-185.08 918.75,-188.04 918.75,-188.04 918.75,-193.96 918.75,-193.96 918.75,-196.92 915.79,-199.88 912.83,-199.88"/>
<text text-anchor="start" x="879" y="-187.32" font-family="Helvetica,sans-Serif" font-size="9.00">utils.ts</text>
</a>
</g>
</g>
<!-- src/shared/ui/Badge.tsx&#45;&gt;src/shared/ui/utils.ts -->
<g id="edge51" class="edge">
<title>src/shared/ui/Badge.tsx&#45;&gt;src/shared/ui/utils.ts</title>
<path fill="none" stroke="#000000" stroke-width="2" stroke-opacity="0.200000" d="M814.8,-254.67C822.46,-251.51 830.56,-247.59 837.5,-243 852.7,-232.94 867.32,-218.17 877.38,-206.94"/>
<polygon fill="#000000" fill-opacity="0.200000" stroke="#000000" stroke-width="2" stroke-opacity="0.200000" points="879.94,-208.06 882.3,-202.16 876.77,-205.3 879.94,-208.06"/>
</g>
<!-- src/shared/ui/Card/CardBody.tsx -->
<g id="node39" class="node">
<title>src/shared/ui/Card/CardBody.tsx</title>
<g id="a_node39"><a xlink:href="src/shared/ui/Card/CardBody.tsx" xlink:title="CardBody.tsx">
<path fill="#bbfeff" stroke="black" d="M815.71,-117.88C815.71,-117.88 756.79,-117.88 756.79,-117.88 753.83,-117.88 750.88,-114.92 750.88,-111.96 750.88,-111.96 750.88,-106.04 750.88,-106.04 750.88,-103.08 753.83,-100.12 756.79,-100.12 756.79,-100.12 815.71,-100.12 815.71,-100.12 818.67,-100.12 821.62,-103.08 821.62,-106.04 821.62,-106.04 821.62,-111.96 821.62,-111.96 821.62,-114.92 818.67,-117.88 815.71,-117.88"/>
<text text-anchor="start" x="758.88" y="-105.33" font-family="Helvetica,sans-Serif" font-size="9.00">CardBody.tsx</text>
</a>
</g>
</g>
<!-- src/shared/ui/Card/CardBody.tsx&#45;&gt;src/shared/ui/utils.ts -->
<g id="edge52" class="edge">
<title>src/shared/ui/Card/CardBody.tsx&#45;&gt;src/shared/ui/utils.ts</title>
<path fill="none" stroke="#000000" stroke-width="2" stroke-opacity="0.200000" d="M821.92,-113.73C827.83,-115.98 833.38,-119.26 837.5,-124 853.12,-141.98 829.97,-158.94 845.5,-177 848.44,-180.42 852.2,-183.02 856.29,-184.99"/>
<polygon fill="#000000" fill-opacity="0.200000" stroke="#000000" stroke-width="2" stroke-opacity="0.200000" points="856.08,-186.9 862.43,-187.05 857.56,-182.97 856.08,-186.9"/>
</g>
<!-- src/shared/ui/Card/CardImg.tsx -->
<g id="node40" class="node">
<title>src/shared/ui/Card/CardImg.tsx</title>
<g id="a_node40"><a xlink:href="src/shared/ui/Card/CardImg.tsx" xlink:title="CardImg.tsx">
<path fill="#bbfeff" stroke="black" d="M812.71,-147.88C812.71,-147.88 759.79,-147.88 759.79,-147.88 756.83,-147.88 753.88,-144.92 753.88,-141.96 753.88,-141.96 753.88,-136.04 753.88,-136.04 753.88,-133.08 756.83,-130.12 759.79,-130.12 759.79,-130.12 812.71,-130.12 812.71,-130.12 815.67,-130.12 818.62,-133.08 818.62,-136.04 818.62,-136.04 818.62,-141.96 818.62,-141.96 818.62,-144.92 815.67,-147.88 812.71,-147.88"/>
<text text-anchor="start" x="761.88" y="-135.32" font-family="Helvetica,sans-Serif" font-size="9.00">CardImg.tsx</text>
</a>
</g>
</g>
<!-- src/shared/ui/Card/CardImg.tsx&#45;&gt;src/shared/ui/utils.ts -->
<g id="edge53" class="edge">
<title>src/shared/ui/Card/CardImg.tsx&#45;&gt;src/shared/ui/utils.ts</title>
<path fill="none" stroke="#000000" stroke-width="2" stroke-opacity="0.200000" d="M818.94,-142.11C825.73,-144.08 832.39,-147.17 837.5,-152 845.98,-160.01 837.21,-168.79 845.5,-177 848.55,-180.02 852.24,-182.4 856.19,-184.26"/>
<polygon fill="#000000" fill-opacity="0.200000" stroke="#000000" stroke-width="2" stroke-opacity="0.200000" points="856.15,-186.25 862.51,-186.4 857.64,-182.32 856.15,-186.25"/>
</g>
<!-- src/shared/ui/Card/CardText.tsx -->
<g id="node41" class="node">
<title>src/shared/ui/Card/CardText.tsx</title>
<g id="a_node41"><a xlink:href="src/shared/ui/Card/CardText.tsx" xlink:title="CardText.tsx">
<path fill="#bbfeff" stroke="black" d="M813.46,-57.88C813.46,-57.88 759.04,-57.88 759.04,-57.88 756.08,-57.88 753.12,-54.92 753.12,-51.96 753.12,-51.96 753.12,-46.04 753.12,-46.04 753.12,-43.08 756.08,-40.12 759.04,-40.12 759.04,-40.12 813.46,-40.12 813.46,-40.12 816.42,-40.12 819.38,-43.08 819.38,-46.04 819.38,-46.04 819.38,-51.96 819.38,-51.96 819.38,-54.92 816.42,-57.88 813.46,-57.88"/>
<text text-anchor="start" x="761.12" y="-45.33" font-family="Helvetica,sans-Serif" font-size="9.00">CardText.tsx</text>
</a>
</g>
</g>
<!-- src/shared/ui/Card/styles.module.scss -->
<g id="node42" class="node">
<title>src/shared/ui/Card/styles.module.scss</title>
<g id="a_node42"><a xlink:href="src/shared/ui/Card/styles.module.scss" xlink:title="styles.module.scss">
<path fill="#ffffcc" stroke="black" d="M932.08,-72.88C932.08,-72.88 851.42,-72.88 851.42,-72.88 848.46,-72.88 845.5,-69.92 845.5,-66.96 845.5,-66.96 845.5,-61.04 845.5,-61.04 845.5,-58.08 848.46,-55.12 851.42,-55.12 851.42,-55.12 932.08,-55.12 932.08,-55.12 935.04,-55.12 938,-58.08 938,-61.04 938,-61.04 938,-66.96 938,-66.96 938,-69.92 935.04,-72.88 932.08,-72.88"/>
<text text-anchor="start" x="853.5" y="-60.33" font-family="Helvetica,sans-Serif" font-size="9.00">styles.module.scss</text>
</a>
</g>
</g>
<!-- src/shared/ui/Card/CardText.tsx&#45;&gt;src/shared/ui/Card/styles.module.scss -->
<g id="edge54" class="edge">
<title>src/shared/ui/Card/CardText.tsx&#45;&gt;src/shared/ui/Card/styles.module.scss</title>
<path fill="none" stroke="#000000" stroke-width="2" stroke-opacity="0.200000" d="M819.71,-53.7C825.01,-54.47 830.61,-55.28 836.26,-56.1"/>
<polygon fill="#000000" fill-opacity="0.200000" stroke="#000000" stroke-width="2" stroke-opacity="0.200000" points="836.89,-58.61 843.13,-57.39 837.5,-54.45 836.89,-58.61"/>
</g>
<!-- src/shared/ui/Card/CardTitle.tsx -->
<g id="node43" class="node">
<title>src/shared/ui/Card/CardTitle.tsx</title>
<g id="a_node43"><a xlink:href="src/shared/ui/Card/CardTitle.tsx" xlink:title="CardTitle.tsx">
<path fill="#bbfeff" stroke="black" d="M813.46,-87.88C813.46,-87.88 759.04,-87.88 759.04,-87.88 756.08,-87.88 753.12,-84.92 753.12,-81.96 753.12,-81.96 753.12,-76.04 753.12,-76.04 753.12,-73.08 756.08,-70.12 759.04,-70.12 759.04,-70.12 813.46,-70.12 813.46,-70.12 816.42,-70.12 819.38,-73.08 819.38,-76.04 819.38,-76.04 819.38,-81.96 819.38,-81.96 819.38,-84.92 816.42,-87.88 813.46,-87.88"/>
<text text-anchor="start" x="761.12" y="-75.33" font-family="Helvetica,sans-Serif" font-size="9.00">CardTitle.tsx</text>
</a>
</g>
</g>
<!-- src/shared/ui/Card/CardTitle.tsx&#45;&gt;src/shared/ui/Card/styles.module.scss -->
<g id="edge55" class="edge">
<title>src/shared/ui/Card/CardTitle.tsx&#45;&gt;src/shared/ui/Card/styles.module.scss</title>
<path fill="none" stroke="#000000" stroke-width="2" stroke-opacity="0.200000" d="M819.71,-74.3C825.01,-73.53 830.61,-72.72 836.26,-71.9"/>
<polygon fill="#000000" fill-opacity="0.200000" stroke="#000000" stroke-width="2" stroke-opacity="0.200000" points="837.5,-73.55 843.13,-70.61 836.89,-69.39 837.5,-73.55"/>
</g>
<!-- src/shared/ui/Card/index.tsx&#45;&gt;src/shared/ui/utils.ts -->
<g id="edge56" class="edge">
<title>src/shared/ui/Card/index.tsx&#45;&gt;src/shared/ui/utils.ts</title>
<path fill="none" stroke="#000000" stroke-width="2" stroke-opacity="0.200000" d="M708.15,-133.31C717.3,-139.93 730.38,-148.56 743,-154 779.91,-169.9 825.08,-179.96 855.68,-185.51"/>
<polygon fill="#000000" fill-opacity="0.200000" stroke="#000000" stroke-width="2" stroke-opacity="0.200000" points="856.03,-188.06 862.3,-187.03 856.75,-183.92 856.03,-188.06"/>
</g>
<!-- src/shared/ui/Card/index.tsx&#45;&gt;src/shared/ui/Card/CardBody.tsx -->
<g id="edge57" class="edge">
<title>src/shared/ui/Card/index.tsx&#45;&gt;src/shared/ui/Card/CardBody.tsx</title>
<path fill="none" stroke="#000000" stroke-width="2" stroke-opacity="0.200000" d="M722.3,-119.58C728.51,-118.54 735.31,-117.39 742.06,-116.26"/>
<polygon fill="#000000" fill-opacity="0.200000" stroke="#000000" stroke-width="2" stroke-opacity="0.200000" points="742.97,-117.9 748.54,-114.83 742.27,-113.76 742.97,-117.9"/>
</g>
<!-- src/shared/ui/Card/index.tsx&#45;&gt;src/shared/ui/Card/CardImg.tsx -->
<g id="edge58" class="edge">
<title>src/shared/ui/Card/index.tsx&#45;&gt;src/shared/ui/Card/CardImg.tsx</title>
<path fill="none" stroke="#000000" stroke-width="2" stroke-opacity="0.200000" d="M722.3,-128.42C729.32,-129.6 737.07,-130.9 744.67,-132.18"/>
<polygon fill="#000000" fill-opacity="0.200000" stroke="#000000" stroke-width="2" stroke-opacity="0.200000" points="745.2,-134.73 751.46,-133.66 745.89,-130.59 745.2,-134.73"/>
</g>
<!-- src/shared/ui/Card/index.tsx&#45;&gt;src/shared/ui/Card/CardText.tsx -->
<g id="edge59" class="edge">
<title>src/shared/ui/Card/index.tsx&#45;&gt;src/shared/ui/Card/CardText.tsx</title>
<path fill="none" stroke="#000000" stroke-width="2" stroke-opacity="0.200000" d="M700.86,-114.95C708.28,-101.92 723.67,-77.91 743,-64 743.66,-63.52 744.34,-63.06 745.04,-62.61"/>
<polygon fill="#000000" fill-opacity="0.200000" stroke="#000000" stroke-width="2" stroke-opacity="0.200000" points="746.65,-64.02 750.91,-59.29 744.63,-60.34 746.65,-64.02"/>
</g>
<!-- src/shared/ui/Card/index.tsx&#45;&gt;src/shared/ui/Card/CardTitle.tsx -->
<g id="edge60" class="edge">
<title>src/shared/ui/Card/index.tsx&#45;&gt;src/shared/ui/Card/CardTitle.tsx</title>
<path fill="none" stroke="#000000" stroke-width="2" stroke-opacity="0.200000" d="M708.71,-114.77C717.91,-108.37 730.82,-99.95 743,-94 744.7,-93.17 746.47,-92.36 748.26,-91.57"/>
<polygon fill="#000000" fill-opacity="0.200000" stroke="#000000" stroke-width="2" stroke-opacity="0.200000" points="749.49,-93.52 754.25,-89.31 747.9,-89.63 749.49,-93.52"/>
</g>
<!-- src/shared/ui/Layout.tsx&#45;&gt;src/shared/ui/utils.ts -->
<g id="edge61" class="edge">
<title>src/shared/ui/Layout.tsx&#45;&gt;src/shared/ui/utils.ts</title>
<path fill="none" stroke="#000000" stroke-width="2" stroke-opacity="0.200000" d="M815.21,-354.14C823.22,-352.11 831.42,-348.7 837.5,-343 876.34,-306.62 886.86,-240.33 889.7,-208.7"/>
<polygon fill="#000000" fill-opacity="0.200000" stroke="#000000" stroke-width="2" stroke-opacity="0.200000" points="892,-209.21 890.36,-203.07 887.81,-208.89 892,-209.21"/>
</g>
<!-- src/shared/ui/ListGroup/ListGroupItem.tsx -->
<g id="node47" class="node">
<title>src/shared/ui/ListGroup/ListGroupItem.tsx</title>
<g id="a_node47"><a xlink:href="src/shared/ui/ListGroup/ListGroupItem.tsx" xlink:title="ListGroupItem.tsx">
<path fill="#bbfeff" stroke="black" d="M823.58,-313.88C823.58,-313.88 748.92,-313.88 748.92,-313.88 745.96,-313.88 743,-310.92 743,-307.96 743,-307.96 743,-302.04 743,-302.04 743,-299.08 745.96,-296.12 748.92,-296.12 748.92,-296.12 823.58,-296.12 823.58,-296.12 826.54,-296.12 829.5,-299.08 829.5,-302.04 829.5,-302.04 829.5,-307.96 829.5,-307.96 829.5,-310.92 826.54,-313.88 823.58,-313.88"/>
<text text-anchor="start" x="751" y="-301.32" font-family="Helvetica,sans-Serif" font-size="9.00">ListGroupItem.tsx</text>
</a>
</g>
</g>
<!-- src/shared/ui/ListGroup/ListGroupItem.tsx&#45;&gt;src/shared/ui/utils.ts -->
<g id="edge62" class="edge">
<title>src/shared/ui/ListGroup/ListGroupItem.tsx&#45;&gt;src/shared/ui/utils.ts</title>
<path fill="none" stroke="#000000" stroke-width="2" stroke-opacity="0.200000" d="M829.66,-296.92C832.45,-295.53 835.1,-293.9 837.5,-292 864.57,-270.58 879.45,-231.57 886.2,-208.81"/>
<polygon fill="#000000" fill-opacity="0.200000" stroke="#000000" stroke-width="2" stroke-opacity="0.200000" points="889.02,-208.49 888.61,-202.15 884.98,-207.37 889.02,-208.49"/>
</g>
<!-- src/shared/ui/ListGroup/index.tsx&#45;&gt;src/shared/ui/ListGroup/ListGroupItem.tsx -->
<g id="edge63" class="edge">
<title>src/shared/ui/ListGroup/index.tsx&#45;&gt;src/shared/ui/ListGroup/ListGroupItem.tsx</title>
<path fill="none" stroke="#000000" stroke-width="2" stroke-opacity="0.200000" d="M722.3,-305C725.98,-305 729.87,-305 733.83,-305"/>
<polygon fill="#000000" fill-opacity="0.200000" stroke="#000000" stroke-width="2" stroke-opacity="0.200000" points="733.57,-307.1 739.57,-305 733.57,-302.9 733.57,-307.1"/>
</g>
<!-- src/shared/ui/Navbar/NavbarBrand.tsx -->
<g id="node49" class="node">
<title>src/shared/ui/Navbar/NavbarBrand.tsx</title>
<g id="a_node49"><a xlink:href="src/shared/ui/Navbar/NavbarBrand.tsx" xlink:title="NavbarBrand.tsx">
<path fill="#bbfeff" stroke="black" d="M822.46,-213.88C822.46,-213.88 750.04,-213.88 750.04,-213.88 747.08,-213.88 744.12,-210.92 744.12,-207.96 744.12,-207.96 744.12,-202.04 744.12,-202.04 744.12,-199.08 747.08,-196.12 750.04,-196.12 750.04,-196.12 822.46,-196.12 822.46,-196.12 825.42,-196.12 828.38,-199.08 828.38,-202.04 828.38,-202.04 828.38,-207.96 828.38,-207.96 828.38,-210.92 825.42,-213.88 822.46,-213.88"/>
<text text-anchor="start" x="752.12" y="-201.32" font-family="Helvetica,sans-Serif" font-size="9.00">NavbarBrand.tsx</text>
</a>
</g>
</g>
<!-- src/shared/ui/Navbar/index.tsx&#45;&gt;src/shared/ui/utils.ts -->
<g id="edge64" class="edge">
<title>src/shared/ui/Navbar/index.tsx&#45;&gt;src/shared/ui/utils.ts</title>
<path fill="none" stroke="#000000" stroke-width="2" stroke-opacity="0.200000" d="M720.05,-195.75C727.31,-193.39 735.38,-191.19 743,-190 781.13,-184.06 825.47,-185.45 855.55,-187.6"/>
<polygon fill="#000000" fill-opacity="0.200000" stroke="#000000" stroke-width="2" stroke-opacity="0.200000" points="855.26,-189.92 861.41,-188.29 855.59,-185.73 855.26,-189.92"/>
</g>
<!-- src/shared/ui/Navbar/index.tsx&#45;&gt;src/shared/ui/Navbar/NavbarBrand.tsx -->
<g id="edge65" class="edge">
<title>src/shared/ui/Navbar/index.tsx&#45;&gt;src/shared/ui/Navbar/NavbarBrand.tsx</title>
<path fill="none" stroke="#000000" stroke-width="2" stroke-opacity="0.200000" d="M722.3,-205C726.33,-205 730.6,-205 734.94,-205"/>
<polygon fill="#000000" fill-opacity="0.200000" stroke="#000000" stroke-width="2" stroke-opacity="0.200000" points="734.91,-207.1 740.91,-205 734.91,-202.9 734.91,-207.1"/>
</g>
<!-- src/shared/ui/types.ts -->
<g id="node51" class="node">
<title>src/shared/ui/types.ts</title>
<g id="a_node51"><a xlink:href="src/shared/ui/types.ts" xlink:title="no&#45;orphans">
<path fill="#ccffcc" stroke="orange" d="M612.83,-177.88C612.83,-177.88 570.67,-177.88 570.67,-177.88 567.71,-177.88 564.75,-174.92 564.75,-171.96 564.75,-171.96 564.75,-166.04 564.75,-166.04 564.75,-163.08 567.71,-160.12 570.67,-160.12 570.67,-160.12 612.83,-160.12 612.83,-160.12 615.79,-160.12 618.75,-163.08 618.75,-166.04 618.75,-166.04 618.75,-171.96 618.75,-171.96 618.75,-174.92 615.79,-177.88 612.83,-177.88"/>
<text text-anchor="start" x="576.38" y="-165.32" font-family="Helvetica,sans-Serif" font-size="9.00" fill="orange">types.ts</text>
</a>
</g>
</g>
</g>
</svg>
