<svg width="103" height="28" viewBox="0 0 103 28" fill="none" xmlns="http://www.w3.org/2000/svg">
<path d="M25.6689 5.13281H17.651C16.3442 5.13281 15.1401 5.83287 14.4867 6.96229L11.6772 11.8347C12.2279 12.152 12.6853 12.6094 13.012 13.1694L18.6031 22.8489L27.2557 7.86769C27.9558 6.65426 27.0784 5.13281 25.6689 5.13281Z" fill="#00A698"/>
<path d="M9.8466 11.349H1.82864C0.419196 11.349 -0.458205 12.8705 0.251184 14.0932L5.31024 22.8672L11.6761 11.8437C11.1254 11.517 10.5 11.349 9.8466 11.349Z" fill="#EA552B"/>
<path d="M11.675 11.8344L5.30914 22.8579H18.6008L13.0097 13.1691C12.683 12.6091 12.2257 12.1517 11.675 11.8344Z" fill="#4723D1"/>
<path d="M9.29499 9.46382C10.491 9.46382 11.4605 8.49429 11.4605 7.29832C11.4605 6.10234 10.491 5.13281 9.29499 5.13281C8.09901 5.13281 7.12949 6.10234 7.12949 7.29832C7.12949 8.49429 8.09901 9.46382 9.29499 9.46382Z" fill="#EA552B"/>
<path d="M50.583 8.11096H54.0179V8.45632L49.5376 20.3666H46.7373L43.7784 12.2553L40.8009 20.3666H38.01L33.5016 8.45632V8.11096H36.9646L39.6061 15.5689L42.369 8.11096H45.1692L47.9321 15.5689L50.583 8.11096Z" fill="#fff"/>
<path d="M55.8939 20.365V8.10935H59.3755V20.365H55.8939ZM57.63 6.88659C58.8061 6.88659 59.7489 5.93451 59.7489 4.76776C59.7489 3.601 58.7968 2.64893 57.63 2.64893C56.4633 2.64893 55.5112 3.601 55.5112 4.76776C55.5112 5.93451 56.4539 6.88659 57.63 6.88659Z" fill="#fff"/>
<path d="M67.1692 20.5823C66.2077 20.5823 65.2743 20.4702 64.3876 20.2369C63.5009 20.0129 62.8008 19.7049 62.2874 19.3222V16.4099C62.9035 16.8486 63.6409 17.2127 64.4996 17.4833C65.349 17.7634 66.1797 17.894 66.9731 17.894C67.9159 17.894 68.6346 17.7914 69.1293 17.586C69.624 17.3807 69.8667 17.082 69.8667 16.6899C69.8667 16.5499 69.8387 16.4286 69.7827 16.3166C69.7267 16.2139 69.6333 16.1206 69.512 16.0459C69.3907 15.9712 69.26 15.9059 69.1293 15.8592C68.9986 15.8032 68.8213 15.7659 68.6066 15.7285C68.3919 15.6912 68.1959 15.6632 68.0279 15.6445C67.8599 15.6259 67.6452 15.5979 67.3745 15.5699C66.9451 15.5139 66.6184 15.4765 66.3851 15.4392C66.1517 15.4019 65.8157 15.3458 65.3957 15.2525C64.9663 15.1685 64.6303 15.0658 64.3783 14.9631C64.1262 14.8605 63.8462 14.7111 63.5195 14.5151C63.2022 14.3191 62.9502 14.1044 62.7728 13.8617C62.5955 13.619 62.4461 13.3204 62.3248 12.9657C62.2034 12.6016 62.1381 12.2003 62.1381 11.7616C62.1381 10.5948 62.6515 9.6614 63.6875 8.94268C64.7236 8.22396 66.0771 7.86926 67.7665 7.86926C68.6066 7.86926 69.4653 7.97194 70.3427 8.17729C71.2201 8.38264 71.9855 8.66266 72.6296 9.01735V11.9296C71.9762 11.5095 71.2201 11.1735 70.3521 10.9122C69.4933 10.6508 68.6999 10.5295 67.9719 10.5295C67.2905 10.5295 66.7491 10.6321 66.3478 10.8282C65.9371 11.0242 65.7317 11.2855 65.7317 11.6122C65.7317 11.7522 65.7597 11.8736 65.8064 11.9856C65.8624 12.0883 65.9557 12.1909 66.0864 12.2656C66.2264 12.3496 66.3478 12.415 66.4598 12.4616C66.5718 12.5083 66.7491 12.555 66.9918 12.6016C67.2345 12.6483 67.4212 12.6856 67.5705 12.7043C67.7105 12.723 67.9345 12.7603 68.2426 12.7883C68.6439 12.835 68.98 12.8723 69.232 12.919C69.4933 12.9563 69.82 13.0217 70.2214 13.115C70.6228 13.199 70.9588 13.3017 71.2295 13.4137C71.4908 13.5257 71.7802 13.675 72.0882 13.8711C72.3962 14.0577 72.6389 14.2818 72.8256 14.5151C73.0123 14.7578 73.1616 15.0472 73.283 15.4019C73.4043 15.7565 73.4696 16.1486 73.4696 16.5686C73.4696 17.7634 72.8909 18.7341 71.7428 19.4622C70.5668 20.2182 69.0546 20.5823 67.1692 20.5823Z" fill="#fff"/>
<path d="M87.7429 13.9603V15.1457H78.8569C79.0809 15.9111 79.5663 16.5085 80.2944 16.9472C81.0224 17.3859 81.9278 17.6006 83.0012 17.6006C83.7666 17.6006 84.532 17.4699 85.3067 17.1992C86.0721 16.9379 86.7069 16.5832 87.2109 16.1538V19.2527C86.5948 19.6541 85.8108 19.9808 84.8587 20.2141C83.9066 20.4568 82.9639 20.5688 82.0305 20.5688C79.9957 20.5688 78.3529 19.9901 77.1114 18.8234C75.87 17.6566 75.254 16.1258 75.254 14.2217C75.254 12.3175 75.87 10.7774 77.1114 9.61998C78.3529 8.45322 79.9863 7.87451 82.0118 7.87451C83.7386 7.87451 85.1201 8.42522 86.1655 9.53597C87.2202 10.6561 87.7429 12.1215 87.7429 13.9603ZM81.8438 10.432C81.1251 10.432 80.5184 10.6374 80.005 11.0574C79.4916 11.4775 79.1369 12.0468 78.9316 12.7749H84.3267C84.2707 12.0655 84.0186 11.4868 83.5706 11.0668C83.1226 10.6467 82.5439 10.432 81.8438 10.432Z" fill="#fff"/>
<path d="M98.831 8.11096H102.453V8.45632L93.8653 25.351H90.421V25.0056L93.7439 18.5838L88.5635 8.45632V8.11096H92.1852L95.5734 15.1395L98.831 8.11096Z" fill="#fff"/>
</svg>
